<?xml version="1.0" encoding="utf-8"?>
<!-- Generator: Adobe Illustrator 19.2.1, SVG Export Plug-In . SVG Version: 6.00 Build 0)  -->
<svg version="1.1" id="Layer_1" xmlns="http://www.w3.org/2000/svg" xmlns:xlink="http://www.w3.org/1999/xlink" x="0px" y="0px"
	 viewBox="0 0 921 432" style="enable-background:new 0 0 921 432;" xml:space="preserve">
<style type="text/css">
	.st0{fill:#53B6F9;}
	.st1{fill:#BEBEBE;}
	.st2{fill:#3C3C3C;}
	.st3{fill:#3376A3;}
	.st4{fill:#F2FF28;}
	.st5{fill:#91979B;}
	.st6{fill:#7E7E7E;}
	.st7{fill:#4A4A4A;}
	.st8{fill:#393939;}
	.st9{fill:#FFC90A;}
	.st10{fill:#FFC68E;}
	.st11{fill:#5C5C5C;}
	.st12{fill:#020202;}
	.st13{fill:#252525;}
	.st14{fill:#E7ED0C;}
	.st15{fill:#D8CD6A;}
</style>
<g>
	<path d="M377.8,385.4c-5.8,0-11.6-0.4-17.4-1.1c-25-3.1-42.4-15.4-51.8-37c-1.2-2.8-2.3-3.3-5.6-3.3h-0.2
		c-44.7,0-79.2,0.5-111.9,0.5c-4.2,0-8.4-0.1-12.6-0.1c-7.9,0-15.9-1.1-23.6-2.1c-1.4-0.2-2.7-0.4-4.1-0.5
		c-7.4-0.9-13.8-4.4-19.5-7.4c-4.5-2.4-10.4-3.2-16-3.9c-0.9-0.1-1.7-0.2-2.6-0.3c-7.5-1-15.1-2-22.5-2.8c-11.2-1.3-22.7-2.7-34-4.5
		c-4.2-0.7-8.3-1.7-12.3-2.8c-6.1-1.6-11.9-3.1-18.1-3.3c-7.2-0.3-9.4-7.7-10.6-12l-0.3-0.9c-1-3.5,2.1-8.3,4.7-10
		c1.4-0.9,1.4-1.3,1.2-3.9v-0.5c-0.3-3.5-0.5-7-0.8-10.6c-0.9-12.1-1.9-24.6-1.9-36.9c0-10.2,5.5-19.1,16.3-26.4
		c0.2-0.3,0.5-1.1,0.5-1.4c-0.4-8,2.3-15.3,8.1-22.2c14-16.6,29.9-26.6,48.6-30.4c23.3-4.8,47-9.5,69.9-14.1
		c10.3-2.1,20.7-4.1,31-6.2c1-0.2,1.9-0.4,2.9-0.6c1.1-9.5,2.6-11,13.8-11.6c17.6-0.9,33.5-1.6,49.6-1.8c6-0.1,9.6-1.2,12.7-3.9
		c-0.3-4.4,0.7-7.8,2.8-10.2c2.3-2.5,5.8-3.8,10.5-3.8c0.6,0,1.2,0,1.8,0.1c0.3,0,0.6,0,0.9,0c3.4,0,6.1-1.3,9.2-3.4
		c9-6,18.2-12,27-17.8c11.8-7.7,24.1-15.7,36-23.8c22.9-15.4,49.3-24,83.2-27c53.9-4.7,97.9-6.9,138.4-6.9c14.9,0,29.7,0.3,43.8,0.9
		l1.3,0.1c24.5,1.1,49.8,2,73.4,12c6.1,2.4,12.4,2.4,20,2.4h1.7c0.8,0,1.7,0,2.7-0.2c1.2-0.2,2.4-0.4,3.7-0.4c0.7,0,1.4,0.1,2.1,0.3
		c7.5,1.8,11.8,4.2,13.9,8c2.3,4.1,1.6,9,0.2,13.8c3.1,3.1,6.7,4.5,11.5,4.5c0.4,0,0.7,0,1.1,0c12.5-0.5,25.3-0.8,37.6-1.1
		c9.5-0.2,19.3-0.4,28.9-0.8c3.9-0.1,7.7-0.9,11.8-1.7c1.1-0.2,2.3-0.5,3.4-0.7c4.5-0.8,7.9-1.2,10.9-1.2c13.4,0,16.8,8.7,17.9,22.8
		c0.3,3.8,0.5,7.6,0.7,11.3c0.1,3.2,0.3,6.5,0.5,9.7c0.4,6.1-2.4,10.5-8.1,12.6c-1.7,0.7-3.5,1.4-5.3,2.2
		c9,10.5,13.4,22.6,17.7,34.3c0.4,1.2,0.9,2.4,1.3,3.6c0.9,2.3,0.8,4.8,0.8,7.1c0,0.5,0,0.9,0,1.4c0,4.2,0,8.5-0.1,12.6
		c0,1.7,0,3.3,0,5c0,3.8,1.4,6.6,4.9,9.6c3,2.6,6,7.5,6,11.9c0,11.5-0.7,21.4-2.1,30.3c-2,12.1-9.2,22.4-21,29.8
		c-5.8,3.7-12.1,6.5-18.1,9.2l-0.1,0.5l-0.2-0.3c-0.4,0.2-0.8,0.3-1.2,0.5c-1.6,0.7-2.2,1.3-2.9,3.4c-0.6,1.6-1.1,3.3-1.7,4.9
		c-2.5,7.3-5.1,14.9-8.6,21.9c-7,13.9-19.4,21.6-35.6,22.2c-2.1,0.1-4.1,0.1-6,0.1c-12.4,0-22.6-1.6-32.1-4.9
		c-12.5-4.4-20.6-12.1-24.6-23.3c-0.7-2.1-1.3-2.1-2.5-2.1c-0.4,0-0.9,0-1.4,0.1l-14,1.7c-42.1,5-85.7,10.2-128.5,14.9
		c-41.7,4.6-84,8.8-121.3,12.4c-3.3,0.3-4.1,1-5.1,3.8c-9.1,26.5-27.6,42.5-55.1,47.4C394.7,384.6,386.2,385.4,377.8,385.4z
		 M317.2,343.6c7.5,15.6,17.2,24.5,31,28.6c9.3,2.7,19.2,4.1,29.3,4.1c8.8,0,17.8-1,27.5-3.1c21.3-4.5,36-17.4,43.8-38.3
		c7.1-18.9,9.1-39.6,6.2-61.5c-4.3-31.8-27.4-47.7-47.5-52c-8.6-1.8-17.7-2.4-26.6-2.9c-2.1-0.1-4.2-0.2-6.2-0.4c-0.1,0-0.2,0-0.3,0
		c-1.6,0-3.8,0.8-5.4,2c-14.1,10.5-22.3,25.4-28.4,38.5c-10.7,22.9-13.9,47.1-16.7,74.2l-0.1,0.5
		C323.4,336.9,322.8,342.5,317.2,343.6z M159.4,333.5c7.2,0.8,14.5,1.5,21.7,1.6c3.2,0,6.4,0,9.6,0c29.1,0,58.6-0.2,87.2-0.5
		c11.4-0.1,22.8-0.2,34.1-0.3c0.7,0,1.5,0,2.3-0.1c1.5-17.2,3.7-33.2,7.2-48.2c-3.1,8.9-6.2,18.1-9.1,27.2c-0.2,0.6-0.3,1.1-0.5,1.7
		c-0.6,2.6-1.5,6.2-5.6,7.7c-1.7,0.6-3.3,1.3-5,2c-5.2,2.1-10.5,4.2-16.2,5.1c-8.4,1.3-17,1.8-25.3,2.3c-3.2,0.2-6.5,0.4-9.8,0.6
		c-18.1,1.3-35.9,2-53,2C184.4,334.6,171.8,334.2,159.4,333.5z M29.1,301.1c2.1,0,3.8,0.3,5.2,1c10.7,5,22.6,8.2,37.5,9.9
		c10.3,1.2,20.9,2.2,31.1,3.2c8.1,0.8,16.4,1.6,24.6,2.5c2.3,0.2,4.3,1.3,6.1,2.2c0.5,0.2,1,0.5,1.5,0.7c1.1,0.5,2,1.1,3,1.6
		c1.3,0.8,2.6,1.6,3.6,1.7c17,1.7,34.7,2.5,53.9,2.5c16.3,0,33.3-0.6,52.9-1.8c-16.6,0.8-30.8,1.2-44,1.2c-20,0-38-0.9-55.2-2.6
		h-0.2c-9.3-1-10.6-1.9-12.7-10.7c-2.7-0.1-5.3-0.3-8-0.4c-33-1.6-67.1-3.2-98.6-16.7c-0.2,0.2-0.4,0.4-0.6,0.6
		c-1.5,1.5-3,2.8-4.8,4c-1,0.6-1.5,1.2-1.8,1.6c0.8,0,1.6-0.1,2.4-0.2C26.4,301.2,27.8,301.1,29.1,301.1z M738.9,301.7
		c3.3,8.7,8.6,14.4,16.4,17.5c9.9,3.8,20.5,5.9,32.4,5.9l0,0c2,0,4-0.2,6-0.3c13.5-0.7,23.2-7.3,29.6-20.2
		c10.1-20.3,13.3-41.8,9.4-63.7c-2.8-16.2-10.7-26.7-24-31.9c-5-2-9.2-3-12.9-3c-7,0-12.5,3.6-17.9,11.8c-5.7,8.6-10.2,18-15.2,28.6
		c-3.3,7-6.1,14-9.1,21.5c-1.1,2.8-2.3,5.7-3.5,8.6c2.7,4.3,3.3,9.8,1.6,16C749.9,300.4,743.6,301.1,738.9,301.7z M470.7,316.8
		c-0.9,2.3-2.2,4.3-3.9,6c5.7-0.6,11.5-1.2,17.2-1.8c19.6-2,39.8-4.1,59.6-6.3c27.2-3,54.4-6,81.6-9.1c37.6-4.2,76.4-8.5,114.6-12.7
		c2.3-0.2,3.5-0.7,4.2-1.9c-1.4,0.1-2.8,0.1-4.1,0.2c-3.2,0.3-6.6,0.6-9.8,1c-6.5,0.7-13.1,1.4-19.8,1.6
		c-38.7,1.1-77.7,5.9-115.4,10.6c-13.6,1.7-27.6,3.4-41.4,4.9c-21.9,2.4-44.2,4.7-65.7,6.8l-10.8,1.1c-0.4,0-0.8,0.1-1.2,0.1
		c-1.2,0-2.4-0.2-3.5-0.3C471.7,316.9,471.2,316.9,470.7,316.8z M207.2,317.8l3-43.5c-2.8,0-5.6,0-8.4-0.1c-3.7,0-7.4-0.1-11-0.1
		c-5.9,0-10.7,0.1-15.1,0.4c-5.3,0.3-11.8,2.7-13.1,8.6c-1.7,8-2.4,16.2-3.2,24.9c-0.2,2.6-0.5,5.3-0.7,8L207.2,317.8z M215,317.8
		c0.6,0,1.2,0,1.7,0c0.8,0,1.5,0,2.3,0c6.3-0.3,12.5-0.5,18.8-0.8c14.8-0.6,30.1-1.2,45.2-1.7c0.2,0,0.4,0,0.6,0
		c2.5,0,4.8,0.5,7.1,0.9c0.6,0.1,1.2,0.2,1.8,0.4c-0.1-4.9,1.1-9.4,2.2-13.6c0.5-1.8,1-3.6,1.3-5.4c-0.8,0.3-1.5,0.7-2.3,1
		c-5.4,2.4-11,4.9-16.9,5.5c-10.1,1.1-21.2,1.7-35.1,1.7c-3.3,0-6.8,0-11.1-0.1c-3.8-0.1-7.4-1.8-10.8-3.4c-1.2-0.6-2.5-1.2-3.7-1.7
		L215,317.8z M84.9,262.3c3.2,0.3,6.4,0.6,9.6,0.9c9,0.8,18.4,1.7,27.5,2.7c9.8,1,14.9,5.6,16.8,15.3c1.6,7.9,3.2,16.3,4.9,26.6v0.2
		c0.6,3.3,1,5.9,1.6,6.6c0.4,0.5,3,0.5,3.9,0.5c0.6,0,1.3,0,2,0c0-0.6,0.1-1.2,0.1-1.7c0.2-3.1,0.3-6.4,0.6-9.6l0.1-1
		c0.3-4.5,0.7-9.1,1.3-13.6c1.9-14.2,10.6-22,25-22.3c0.9,0,1.9,0,2.8,0c2.3,0,4.7,0.1,7,0.1c2.2,0.1,4.6,0.1,6.8,0.1
		c2,0,3.7,0,5.3-0.1c33.8-1.9,68.1-4.1,101.4-6.1l18.3-1.1c0.5,0,1-0.1,1.5-0.1c1.8,0,4.3,0.2,5.8,2.3c0.5,0.6,0.7,1.3,0.8,2
		c2.7-7.5,6-14.8,9.8-21.8c-4.9,3.8-10.6,6.7-17.7,7.2c-9.8,0.7-19.8,1.5-29.5,2.3c-14.5,1.2-29.5,2.4-44.2,3.3
		c-22.6,1.4-46.6,2.1-73.1,2.1c-30.5,0-61.2-0.9-90-1.9C84.2,256.6,84.6,258.9,84.9,262.3z M681.6,285.2
		c-23.1,2.2-46.2,4.4-69.3,6.5l-52.3,4.9c-23.5,2.2-47.8,4.5-71.7,6.8c-1.5,0.1-2.6,0.7-2.8,0.9c-0.9,1.2-1.6,2.5-2.3,4L681.6,285.2
		z M473.7,302.3c-0.4,0-0.8,0.1-0.8,0.2c-0.2,0.2-0.8,1.2-0.8,5.2c0.3-0.1,0.6-0.3,0.9-0.4c3.2-1.6,4.5-2.4,4.6-4.1
		C475.9,302.6,474.6,302.3,473.7,302.3z M84.2,301.2c12.6,1.6,25.4,2.3,38.6,3c4,0.2,8.2,0.4,12.3,0.7l-0.3-1.8
		c-0.6-3.7-1.2-7.2-1.7-10.8c-0.7-4.3-1.2-7.1-2-7.9s-3.6-1.1-7.8-1.5c-0.3,0-0.7-0.1-1-0.1s-0.6-0.1-1-0.1l-35.8-3.4c0,3,0,6,0.1,9
		v3C85.7,296.4,85.7,299.2,84.2,301.2z M264.8,298.3c-4.4,0.3-8.8,0.6-13.2,0.9C256.1,299.1,260.6,298.8,264.8,298.3z M388.2,209.4
		c5.4,0.5,10.5,1,15.6,1.7c30.8,4.6,53.6,26.4,59.5,57c1.9,9.5,2.5,19.5,2,30.2c0.6-0.9,1.4-1.8,2.6-2.6c0.1-0.2,0.1-0.4,0.2-0.9
		c3.6-19.8,2.7-35.9-2.8-50.6c-8.9-24-30-38.9-54.9-38.9C402.8,205.3,395.2,206.7,388.2,209.4z M43.2,289.5
		c9.7,1.7,19.3,3.2,29.6,4.8l4.7,0.7c0-0.7,0-1.3,0-1.9l-0.1-5.8c-0.1-6.6-0.3-13.4-0.5-20.1l-0.1-2.3c-0.1-2.5-0.1-4.8-0.3-5.7
		c-0.5-0.1-1.8-0.3-2.8-0.4c-1.3-0.1-2.9-0.3-4.9-0.6c-6.7-1-13.6-1.9-20.3-2.7c-1.9-0.2-3.7-0.4-5.6-0.7v4.7
		c0,10.2,0,19.8,0.1,29.5C43,289.2,43.1,289.4,43.2,289.5z M491,153.5c0,0.7,0,1.4,0,2c0.2,6.9,0.3,13.8,0.5,20.6
		c0.4,15.4,0.8,31.2,1,46.9c0.2,18.9-0.1,35.8-0.9,51.6c-0.3,5.4-1.4,10.8-2.6,16c-0.3,1.2-0.5,2.4-0.8,3.6c0.5,0,1,0,1.4-0.1
		c7.6-0.7,15.2-1.3,22.7-2l9.1-0.8c9.7-0.9,19.4-1.8,29.1-2.6c29.6-2.7,60.2-5.5,90.4-8c4.7-0.4,6.2-1.2,8.6-6.4
		c6.1-13.7,7.1-28,7.6-42.7c0-1.4,0-2.8,0-4.3c-22.7,2.1-45.7,3.9-67.9,5.6c-31.2,2.4-63.4,4.9-95.1,8.4l-1.1-5.9
		c1.4-0.3,2.7-0.7,4.2-1.2c3.2-0.9,6.4-1.9,9.8-2.2c32.6-3.1,65.7-6.1,97.8-9l19.7-1.8c8-0.7,16-1.4,24.3-2.1c3-0.3,6.2-0.5,9.2-0.8
		V162h-4.9l-0.6-5.9l5.4-0.8c-0.1-0.2-0.1-0.4-0.2-0.7c-0.8-2.9-1.5-5.6-2.1-8.5s-1.3-3.2-3.6-3.2c-0.3,0-0.7,0-1.1,0
		c-32.3,2.3-65,4.4-96.8,6.4c-11,0.7-21.9,1.4-32.9,2.1c-7.4,0.5-14.9,1-22.4,1.5L491,153.5z M261,289.3c-10.5,0-20.8,1.1-30.9,3.3
		l45.2-2.7C270.5,289.6,265.7,289.3,261,289.3z M216.7,292c3.2-3.8,6.9-6,11.8-7c11.4-2.2,22.5-3.2,33.2-3.2
		c12.4,0,24.7,1.5,36.6,4.4l3.9-17.8l-84.3,5.9L216.7,292z M30.3,286.8c0.1,0.2,0.4,0.3,0.5,0.4c1.3,0.7,2.7,1.3,4.1,2
		c0-2.8,0-5.5,0-8.1c-0.1-4.3-0.1-7.2-0.8-8.2c-0.6-0.7-2.4-1.4-5.2-2.2c0,0.4,0.1,0.8,0.1,1.1C29.3,276.8,29.7,281.9,30.3,286.8z
		 M656.2,278.9c0.8,0,1.4,0,1.9-0.1c23.1-2.1,50.3-4.5,77.1-7c0.2,0,1-0.3,2-1.2c5.7-4.9,8-11.7,10.5-19c0.4-1.2,0.8-2.5,1.3-3.7
		c6.6-18.8,15.2-38.3,32.9-52.8c4.9-4,5.8-9.4,5.1-17.2l-89.5,5.2l-0.4-7l2.8-0.2l-0.6-2.9l52-10c-1.8-0.8-3.5-2-4.6-3.6
		c-1.1-1.5-1.7-1.7-2.9-1.7c-0.2,0-0.4,0-0.6,0c-11.8,0.7-23.7,1.3-35.5,1.9c-10.1,0.5-20.2,1.1-30.4,1.6c-3,0.2-6,0.4-9.3,0.7
		c-0.7,0.1-2.1,0.1-2.1,0.2v55.4c2-0.2,5.3-0.4,8-0.6c16.4-1.2,33.2-2.5,49.7-2.5c10.2,0,19.4,0.5,28.2,1.4l-0.2,6l-86.7,3.8
		c-0.1,2.5-0.2,5-0.3,7.4c-0.3,7.3-0.6,14.2-1.7,20.9c-1.2,6.7-3.3,13.4-5.4,19.8c-0.5,1.6-1.1,3.3-1.6,4.9
		C656,278.9,656.1,278.9,656.2,278.9z M411.7,189.1c2.6,0,5.4,0.1,8.1,0.3c26.7,2.1,45.9,15.2,57,38.8c6,12.7,8,26.9,6.5,45.9
		c2-17.3,1.6-34.6,1.2-52.7c-0.1-5.6-0.3-11.3-0.3-17l-2.1,1.3l0.8,0.9l-1.9-0.2l-1.6,1l0.3-1.1l-4.3-0.4c-2.5-0.2-4.5-1.3-5.8-3.1
		s-1.8-4.1-1.3-6.5c0.7-3.3,5-5.8,7.8-6.2c0.8-0.1,1.4-0.1,2.2-0.1c1.6,0,3.6,0.2,4.6,0.4v-46.8l-158.1-3.7l0.1,1.2
		c-1.9,0.4-3.7,0.6-5.7,0.6c-4.9,0-9.4-1.3-13.8-2.5c-3-0.9-5.8-1.7-8.7-2c-8.4-1.1-17.5-1.9-28-2.4c-0.6,0-1.2,0-1.9-0.1
		c1,0.6,1.8,1.2,2.6,1.8c2.2,1.7,4.1,5.6,4.3,7.9c0.1,1.5-0.4,2.5-0.9,3c-2,2.2-5.8,4.8-9.8,5c-1.8,0.1-3.6,0.1-5.6,0.1
		c-4.7,0-9.5-0.3-14-0.5l-1.1-0.1c-9-0.5-18.1-1.1-26.9-1.7c-5-0.3-10-0.7-15-1c-0.7,0-1.4-0.1-2.1-0.2c-1.1-0.1-2.1-0.2-3-0.2
		c-0.6,0-1.2,0-1.7,0.1c-21.5,4.3-43.4,8.7-64.6,13c-11.3,2.3-22.5,4.6-33.8,6.8c-10.8,2.2-21.2,6.9-31.8,14.4
		c-3.6,2.5-5.4,5.7-6.2,11c0.7,0.2,1.3,0.4,1.9,0.6c1.7,0.5,3.2,1,4.6,1c1.1,0,2.4-0.3,3.9-2.1c1.4-1.7,3.8-1.8,4.8-1.8
		c0.2,0,0.4,0,0.5,0l1.1,0.1c8.6,0.6,17.4,1.2,26.2,2.1c2.2,0.2,5.8,1.8,7,4.4c0.5,1.1,0.6,1.2,3.2,1.3h0.1
		c7.4,0.1,14.9,0.3,22.3,0.4c7.7,0.2,15.4,0.3,23.2,0.5c0.5,0,1.1,0,1.6,0c7.4,0,14-1,20.8-3.1c14.4-4.4,29.4-7.7,43.9-10.8
		c3.1-0.7,6.1-1.3,9.2-2c2-0.4,3.9-0.8,5.8-1.2c6.1-1.1,11.8-2.2,17.1-5.3c4.6-2.6,9.7-4.4,14.5-6.1c2.1-0.7,4.2-1.5,6.3-2.3
		l2.8-1.1l2.6,6.6L270,180c1.2,0,2.4,0,3.5,0c0.8,0,1.5,0,2.3,0c4.5,0.1,8.1,2.1,9.8,5.4c1.8,3.4,1.4,7.5-1.1,11.4
		c-1.5,2.4-3.4,4.8-5.7,7.5c-3.6,4.2-7.3,8.3-11.2,12.6c-1,1.1-1.9,2.2-2.9,3.3l5,4.3l0,0c5.2,4.2,11.2,6,20.2,6
		c2.9,0,6-0.2,8.6-0.4c3.3-0.2,6.6-0.5,10-0.8c7.7-0.6,15.7-1.2,23.6-1.4c7.2-0.1,12.3-2.8,17.6-9.4
		C365.3,199,386.2,189.1,411.7,189.1z M866.9,253.7c-4.2,1.6-8.6,3.3-13,4.6c-3.9,1.2-5.7,3.1-6.1,6.8c-0.2,1.6-0.6,3.2-1,4.8
		c8.1-3.3,17.6-10.4,22.4-17.1C868.4,253.2,867.7,253.5,866.9,253.7z M34.1,255.5c0-0.1,0-0.1,0-0.2c-0.2-2-0.3-4.9,1.5-7
		c0.1-0.1,0.2-0.2,0.3-0.3c-1.2-0.3-2.4-0.7-3.6-1.1c-2.3-0.7-4.4-1.8-6.5-3.1l-0.5,10.9L34.1,255.5z M836.8,203.6
		c9.8,14.4,12,30.8,13,47.7l24.1-8c3.7-10.6,3.4-21.9,3-33.8l-0.9,0.2c-2.9,0.6-5.4,1.2-7.9,1.7c-1.3,0.3-2.6,0.5-3.9,0.8
		c-2.5,0.5-4.8,0.9-7.1,1.6c-2,0.5-3.8,0.8-5.4,0.8c-5.3,0-9.2-2.7-11.9-8.2c-1.3-2.5-1.8-2.9-1.9-2.9
		C837.5,203.4,837.2,203.5,836.8,203.6z M87,247.2c29.7,1.4,57,2.1,83.2,2.1c29.3,0,56.5-0.8,83.2-2.6c22.5-1.5,45.3-3.5,67.4-5.5
		l1.3-0.1c5.2-0.5,9.3-3.2,12.9-6.7c-4.2,0.3-8.3,0.6-12.5,0.9c-12.1,0.8-24.7,1.7-37,2.4c-0.5,0-0.9,0-1.4,0c-7,0-13.2-3-18.1-8.6
		l-7.2-5.2c-2.9,1.3-5.8,2.7-8.6,4c-7.6,3.5-15.5,7.2-23.5,10.3c-4.6,1.8-9.7,2.7-15,2.7c-4.6,0-9.5-0.7-14.8-2l-1.4-0.4
		c-3.5-0.9-7.2-1.8-10.6-1.8h-0.2c-17.3,0.2-34.8,0.6-51.8,1.1c-6.4,0.2-12.7,0.3-19.1,0.5c-0.7,0-1.3,0-2,0c-0.6,0-2.7,0-3.3,0
		l-0.3-6c0.9-0.1,1.9-0.2,2.9-0.3v-23h-3.4c0,0-6.6,19.8-8.8,26.6C96.6,242,92.5,246,87,247.2z M35.7,223.5
		c-0.3,0.2-0.8,0.7-1.6,1.7c-1.4,1.6-2.8,3.5-4.2,5.7c-1.4,2.3-1.9,4.4-1.3,5.8c0.7,1.6,2.6,2.3,4.2,2.6c2.9,0.6,5.8,1.3,8.7,1.9
		c2,0.4,4,0.9,6,1.3c-3.5-2.5-4.7-6.6-3.3-11.3c0.2-0.6,0.4-1.2,0.6-1.8c-0.1,0-0.2-0.1-0.3-0.1c-2.3-0.9-4.6-1.9-6.5-3.7
		C37.5,225.1,36.3,223.9,35.7,223.5z M430,198.7c17.7,5.3,32.3,18.1,40.8,36.3c1,2.2,1.9,4.4,2.7,6.6c-4-15.5-12.4-27.1-25.7-35.4
		C442.6,202.8,436.6,200.3,430,198.7z M54.3,227.9c-0.4,0.7-0.8,1.4-1.2,2.1c-2.3,4.1-2.1,5.5-1.9,5.9c0.2,0.4,1,1.3,4.7,2.1
		c0.7,0.1,1.4,0.3,2.2,0.4c-1.3-1-2.3-2.3-2.9-3.7C54.2,232.6,53.9,230.3,54.3,227.9z M804.1,199.2c16,2.9,27.2,11.9,33.3,26.9
		c1.3,3.3,2.4,6.8,3.2,10.3c-1.4-7.5-3.8-14.6-6.3-21.1c-3.8-10-13.6-16.5-24.9-16.5C807.6,198.7,805.8,198.9,804.1,199.2z
		 M77.5,204.2c-0.5,0.1-1.4,0.7-1.6,1.1C71.1,213,67,220,63.4,226.7c-0.9,1.7-1.2,3.2-0.7,4.2s1.8,1.9,3.7,2.3
		c3.9,0.9,7.7,1.5,12.2,2.1c1.8,0.3,3.6,0.5,5.5,0.8c0.4-0.2,0.8-0.4,1.2-0.6c0.9-0.4,2.5-1.2,2.8-1.6c3.2-8.3,5.7-16.8,8.4-26.1
		c0.1-0.3,0.2-0.9,0-1.3c-0.2-0.3-0.8-0.6-1.9-0.8l-1-0.1C88.3,205.1,82.8,204.4,77.5,204.2z M181.1,228.2c5,0,10.8,0,17.1,0l-2.7-1
		c-0.7-0.3-1.5-0.5-2.4-0.7c-2.5-0.7-5.3-1.4-6.9-3.7c-1.8-2.6-0.8-6,0-9.1c0.1-0.5,0.3-1,0.4-1.4c0.4-1.7,1.2-3.2,1.9-4.5
		c0.3-0.5,0.5-1,0.8-1.5l0.2-0.4l4-4.6c-17.6,4.3-29.3,13-35.9,26.9H181.1z M192,218.3c0.5,0.2,1.6,0.6,4.5,0.9
		c1.4,0.2,2.2,1.1,2.5,1.5l0.1,0.1l1.5,1.4l-0.8,1.9l-1.6,4.1c4.8,0,9.9,0,15,0c2.6,0,4.7-0.3,6.3-1c0.2-0.1,0.3-0.1,0.5-0.2
		l-0.5-3.9c-0.1-1.1-0.3-2.3-0.4-3.5c-0.3-2.7-0.5-5.6-1.2-8.2c-1-3.9-2.6-5.7-5.6-6l-7.7-0.9c0,0,6.3-4.6,6.4-4.6
		c-7.3,2.5-13.2,6.6-17.2,14.2C192.5,216.6,192.1,217.8,192,218.3z M128.8,225c5.5,0,11,0,16.5,0c0.1,0,0.4,0.1,0.5,0.1
		c3.5-4.2,7-9.1,10.9-13.1H119v13H128.8z M47.9,198.3c-4.3,5.5-5.7,11.5-4.7,18.5c0.7,5.2,2.1,5.2,3.3,5.2c0.1,0,0.2,0,0.2,0
		l3.6-18.4C48.5,201.9,47.9,200.1,47.9,198.3z M221.4,202.2c4.5,7.5,6.2,13,5.5,17.4c1.9-1,3.5-1.8,4.1-2.8c3-5,5.6-10.5,8-15.8
		c0.5-1.1,1-2.1,1.5-3.2L221.4,202.2z M251,193.1c4.1,1.9,6.5,4.3,7.2,7c0.6,2.6-0.2,5.3-2.6,8.1c-3.5,4.1-7.9,7.3-12.1,10.5
		c-0.1,0.1-0.2,0.1-0.3,0.2c1.4-0.7,2.8-1.3,4.2-2c10.1-5.2,18.2-12,23.9-20.1c0.7-1.1,1.2-2.6,1.6-4.3h-0.1
		c-1.7-0.6-3.4-1.2-4.8-1.2h-0.2c-4.5,0.2-9,0.8-13.4,1.4C253.3,192.8,252.1,192.9,251,193.1z M243.1,210.2c2.4-2.2,4.7-4.3,6.8-6.7
		c0.6-0.7,0.9-1.3,0.8-1.8c-0.1-0.6-0.8-1.2-1.8-1.8c-0.3-0.2-0.6-0.4-0.9-0.6L243.1,210.2z M846.6,202.9c2.4,4.1,2.5,4.1,3.5,4.1
		c1.1,0,3-0.3,5.5-0.8c1-0.2,2.1-0.4,3.4-0.6c1.2-0.2,2.5-0.4,3.8-0.7c2.9-0.6,5.8-1.3,8.8-2l-4.8-5.1L846,202
		C846.2,202.3,846.4,202.6,846.6,202.9z M475.3,197.8c0.1,0.1,0.1,0.3,0.3,0.5c0.3,0.5,0.9,1.1,1.5,1.7c0.4,0.4,0.7,0.7,1,1.1
		l2.5,2.9l1.2-4.2c0.3-1.2,0.5-1.9,0.6-2.3c-0.4-0.1-1.1-0.2-2.2-0.2c-0.2,0-0.4,0-0.7,0c-1.3,0-2.6,0.2-4,0.4
		C475.4,197.7,475.3,197.8,475.3,197.8z M809,190.8c6,0,11.9,1.6,17.7,4.7c1.6,0.9,3.1,1.3,4.6,1.3c0.3,0,0.7,0,1-0.1
		c-5.6-6.4-14.8-10.5-24.2-10.5c-5,0-9.7,1.2-13.5,3.4c-0.3,0.2-0.8,1-1.1,1.5c-0.2,0.3-0.4,0.6-0.6,0.9c-0.6,0.9-1.2,1.9-1.8,2.9
		c-0.1,0.2-0.3,0.5-0.4,0.7C796.7,192.5,802.9,190.8,809,190.8z M809.3,178.8c12.1,0,22.7,5.4,31.6,16c0,0,0.2,0.1,0.3,0.1
		c7-1.3,14.1-2.7,21-4l3.6-0.7c0.4-6-1.9-11-4.4-16.4c-0.9-2-1.8-4-2.6-6.1c-0.3,0-0.6,0-0.8-0.1c-1.6,0.8-3.2,1.5-4.9,2.2
		c-3.2,1.5-6.7,3-10.4,3.6c-7.1,1.1-14.4,1.6-21.5,2c-3,0.2-6.1,0.4-9.1,0.6c-4.7,0.4-9.3,0.7-13.9,1.1l-3.2,0.3v3.6
		C800,179.6,804.8,178.8,809.3,178.8z M731.2,174.2l55-3.2l-1.9-6.3L731.2,174.2z M793.8,170.3c1.7-0.1,3.4-0.2,5.1-0.3
		c5.5-0.3,10.7-0.5,15.9-1.1c3.8-0.4,7.7-0.7,11.5-0.9c8.6-0.5,16.7-0.9,24.4-3.7l1.1-0.5c1.3-0.6,2.6-1.2,4-1.8
		c0.1-0.2,0.2-0.4,0.3-0.6c-0.3-0.2-0.7-0.3-0.9-0.3c-18.8,0.6-35.8,1.3-51.8,2.1c-3.2,0.2-6.3,0.6-9.7,1.2c-0.5,0.1-1,0.2-1.5,0.2
		L793.8,170.3z M780.9,158.4c1-0.3,2-0.6,2.9-1.1c-0.1-0.7-0.3-1.6-0.5-2.1c-0.2,0-0.6-0.1-1.2-0.1c-0.1,0-0.2,0-0.3,0L780.9,158.4z
		 M790.9,156.7l63.3-3.3l-0.1-0.1c-0.1-0.2-0.7-0.5-2.4-0.5c-0.4,0-0.8,0-1.2,0c-7,0.5-14.2,0.7-21.1,0.9c-3.2,0.1-6.3,0.2-9.5,0.3
		c-7.5,0.3-15,0.5-22.6,0.8l-6.7,0.3L790.9,156.7z M665.7,155l78.3-4.4c1.4-7.3,5.7-10.9,13.3-11.3c0.6,0,1.3-0.1,1.9-0.1
		c1.3-0.1,2.7-0.2,4.1-0.2c1.9,0,3.4,0.2,4.9,0.6c2.9,0.8,8,2.6,10.3,6.3c0.9,1.4,1.6,2,2.2,2.2l-2.6-7.3l5.4-2.5
		c0.3,0.6,0.7,1.1,1,1.7c0.9,1.4,2,3.1,2.5,5c0.7,2.5,1.6,3.1,4.5,3.1c0.3,0,0.6,0,0.9,0c14-0.6,28.2-1.1,41.9-1.5
		c6-0.2,11.9-0.4,17.9-0.6l1.9-6.6c-1.6-5.7-5.9-8.6-13.5-9.3c-3.2-0.3-6.4-1.1-9.4-1.8c-0.9-0.2-1.8-0.4-2.7-0.7
		c-1.1-0.2-2-0.8-2.6-1.2c-0.2-0.1-0.4-0.3-0.6-0.4l-2.3-1.2l1-2.9c-0.5,0.4-1.1,0.8-1.6,1.2l-3.9,2.8l-0.7-4.6
		c-0.6-0.5-3-1.4-7.8-1.4c-1,0-2.1,0-3.2,0.1l8.2,8.9l-9.9-2.6c-2.6-0.7-4.4-2-5.9-3.3l-19.9-16.3c-12.8-10.5-25.6-21.1-38.5-31.6
		c-0.3-0.2-0.5-0.4-0.8-0.7c-0.3-0.3-0.8-0.7-1.1-0.9c-0.6,0.1-1.2,0.1-1.8,0.1c-1.6,0-3.1-0.2-4.5-0.5c3.1,2.8,6.1,5.9,8.9,9.2
		c9.4,10.9,18.6,22.2,27.6,33.2c3,3.7,6,7.4,9.1,11.1c0.9,1.1,1.3,2.4,1.6,3.4c0.1,0.3,0.2,0.7,0.3,1l1.7,4.1h-4.5
		c-0.5,0-1.1,0-1.6,0c-0.6,0-1.1,0-1.7,0c-0.5,0-0.9,0-1.4,0c-36.5,2.4-73.1,4.7-109.6,7.1c-0.2,0-0.5,0-0.7,0.1L665.7,155z
		 M260,145.2c1,0,1.4,0.1,2,0.1c0.8,0,1.4-0.1,1.8-0.2c0.4-0.2,1.2-1,1.5-1.6c-0.5-1.5-2.4-3.3-5.4-4.2v5.9H260z M491.6,145
		c0.6,0,1.1,0,1.5-0.1c2.3-0.3,4.6-0.6,7-0.9c7.2-0.9,14.6-1.8,21.8-3.1c15-2.6,28.4-5.2,41.1-7.9c6.7-1.4,7.2-2.3,6.1-9.3
		c-0.5-3.3-1.4-5.8-2.6-7.5c-1.1-1.6-3.3-3.1-4.2-3.1c-0.4,0-0.9,0-1.3,0c-2.7,0-5.4-0.1-8-0.2s-5.3-0.2-7.8-0.2
		c-8.8,0-18,0.9-26.4,7.6l-3.9,3.1l-0.9-4.7c0,0.1-0.1,0.1-0.1,0.2c-3,4.2-6,8.2-8.7,12.2c-3.2,4.7-7.1,9.6-14.1,10.7v3.1
		C491,145,491.5,145,491.6,145z M248.2,144.7c0.1,0,0.3,0,0.5,0c0.8,0,1.4-0.1,3.4-0.3V138h-3.7c0,1-0.1,1.5-0.1,2.2
		C248.1,142,248.1,143.8,248.2,144.7z M240.6,144l-0.3-6H238v6H240.6z M230,144v-6h-3v6H230z M219,144v-6h-3v6H219z M207.4,143
		l0.2-4.6c-1.9,0.3-2.4,0.7-2.5,0.9s-0.5,1.7,0.5,3.7L207.4,143L207.4,143z M284.4,127.7c8.1,1.2,15.8,2.4,23.4,2.7
		c49.4,2,99.6,3.6,148.2,5.1l5.1,0.2c1.2,0,2.9-0.7,3.5-1.4c22.7-26.6,45.6-53.8,67.8-80.1c1.2-1.4,1.3-2.3,1.2-2.6s-0.8-1-2.7-1.4
		c-0.5-0.1-1.2-0.1-1.9-0.2c-0.4,0-0.8,0-1.3-0.1c-13.7-1.3-28-1.9-42.3-1.9c-20.7,0-42.3,1.3-64.2,4c-15.6,1.9-33.8,5.3-50.5,16
		c-9.3,6-18.8,12-28,17.9c-10.2,6.4-20.7,13.1-30.9,19.8c-8.7,5.6-17.1,11.4-25.9,17.5c-1.9,1.3-3.7,2.6-5.6,3.9
		C281.7,127.3,283.1,127.5,284.4,127.7z M478.3,135.2c1.1,0.1,1.9,0.2,2.7,0.2c3.2,0,4.3-0.9,8.8-6.9l3-4.1
		c14-18.7,28.5-38.1,43.5-56.6c10.7-13.2,25-20.8,42.4-22.7c16.8-1.8,32.2-2.6,47-2.6c14.3,0,28.2,0.8,41.4,2.5
		c16.6,2.1,31.2,6.4,44,13.1l0.1-0.2c-0.3-0.4-0.6-0.8-0.7-0.9c-13-5.8-26.4-11.8-40.7-13c-15.2-1.2-30.8-2.1-45.8-3
		c-10.3-0.6-20.9-1.2-31.4-1.9c-1.1-0.1-2.2-0.1-3.4-0.1c-7.7,0-15,1.6-22.8,3.3c-2.8,0.6-5.8,1.3-8.7,1.8c-2.3,0.4-4.6,1.7-7,3
		c-0.9,0.5-1.7,0.9-2.6,1.4c-0.2,0.1-0.6,0.5-0.9,1.1c-0.3,0.6-0.6,1.4-0.9,2.2c-0.6,1.5-1.2,3.2-2.4,4.7
		c-16.6,19.9-33.4,40.1-49.8,59.7L478.3,135.2z M561.9,104.6c4,0,9.4,1.6,12.7,9.2c2,4.8,4,10.9,2.6,18l65.7-3.6
		c-2-22-4.8-47.3-13.2-71.3c-0.6-1.8-0.9-1.8-1.8-1.8c-0.1,0-0.3,0-0.5,0c-5.8,0.4-11.8,0.7-17.5,1c-10.1,0.6-20.6,1.1-30.8,2
		c-11.8,1-21,5.2-27.4,12.4c-10,11.5-19.5,23.8-28.7,35.7l-1.2,1.5c-0.2,0.2-0.3,0.7-0.4,1.2c2.5-1.3,4.8-2.5,7.4-2.7
		c9.6-0.9,19.4-1.2,28.9-1.5l3.6-0.1C561.6,104.6,561.7,104.6,561.9,104.6z M660.2,127.9l90.4-4.9c-7.4-15.1-15.7-27.9-25.4-39
		c-6.8-7.8-15.4-13.8-26.5-18.2c-11.4-4.6-24-7.4-39.4-8.7c-4.3-0.4-8.8-0.7-12.7-1c-0.3,0-0.6,0-0.9-0.1L660.2,127.9z M759.5,122.7
		c1.1,0.1,2.3,0.2,3.7,0.2c0.5,0,0.9,0,1.4,0c-2.4-2.9-4.8-5.7-7.1-8.6c-3.4-4.1-6.9-8.3-10.4-12.5c1.5,2.6,3,5.2,4.5,7.8
		c2.1,3.7,4.4,7.6,6.6,11.3C758.8,122,759.2,122.5,759.5,122.7z M845.7,121.9c1.8-4,5.7-5.2,8.5-6c0.5-0.2,1-0.3,1.5-0.5
		c3.9-1.3,4.2-2.3,4.1-4.2c-0.2-2.9-0.4-5.7-0.5-8.6c-0.4-6-0.7-12.2-1.5-18.1c-1.1-8.8-2.9-9.2-7-9.2c-1.2,0-2.7,0.1-4.6,0.3
		c-2.9,0.4-6,0.9-8.9,1.3c-0.1,0-0.1,0-0.2,0l0.1,2.7c0.6,13.3,1.3,28.2-10.3,39.6L845.7,121.9z M768.8,86.6
		c5.2,4.3,10.1,8.3,15,12.3c1.9,1.6,3.6,3.3,5.3,5c3.4,3.4,6.6,6.6,10.2,7.9c1.8,0.7,4.1,1,7,1c1.8,0,3.7-0.1,5.7-0.2
		s4.1-0.3,6.1-0.3c0.7,0,1.4,0,2.1,0c0.1,0,0.3,0,0.4,0c1.6,0,2.5-0.3,3.9-2.7c4.3-7.6,5.1-15.7,5.1-23.7H768
		C768.2,86,768.5,86.4,768.8,86.6z M734,65.5c0,0,0.3,0.1,0.7,0.1c0.6,0,1.1-0.1,1.4-0.2c0.9-1.4,3-5.3,0.9-7.3
		c-1.8-1.7-4.5-2.7-7.5-3.8c-0.8-0.3-1.6-0.6-2.5-0.9c-0.9,0.8-1.9,1.6-2.8,2.4c-0.9,0.8-1.8,1.6-2.7,2.3c3,2.6,6.8,4.6,10.7,6.6
		C732.3,64.7,734,65.5,734,65.5z M711.4,58.3L711.4,58.3L711.4,58.3L711.4,58.3z M518.5,40.8c7.3,0.5,14.6,1.2,21.9,2
		c0.3,0,0.6,0.1,0.8,0.1c0.7,0,1-0.1,1-0.1c1.7-1.1,3.4-2.1,5.1-2.9C538,40.1,528.3,40.4,518.5,40.8z"/>
	<path d="M198.1,142.8c1-10.3,1-10.6,11.1-11.1c16.5-0.8,33-1.6,49.4-1.8c6.2-0.1,11.4-1.2,15.7-5.8c-0.9-8.6,2.6-12.7,11.8-12.1
		c4.7,0.3,8.2-1.4,11.9-3.8c20.9-13.9,42.2-27.5,63-41.5c24.8-16.7,52.5-23.9,81.8-26.5c60.5-5.3,121-8.6,181.7-6
		c24.9,1.1,50.1,2,73.6,12c7.6,3.2,15.2,3.1,23,3.1c2.6,0,5.4-1.3,7.8-0.7c13.9,3.3,14.9,8.7,11.4,19.7c4.2,5,9.3,7,16.1,6.7
		c22.1-1,44.3-1.1,66.5-1.9c5.2-0.2,10.4-1.5,15.6-2.4c18.6-3.5,23.7,0.2,25.2,18.9c0.6,7,0.7,14,1.2,21c0.3,4.8-1.6,7.9-6.2,9.6
		c-3,1.1-5.9,2.5-9.3,3.9c11.5,11.8,16.1,26.1,21.2,40.1c0.8,2.2,0.6,4.9,0.6,7.4c0,5.8-0.1,11.7-0.1,17.5c0,5,2.1,8.6,6,11.9
		c2.6,2.2,4.9,6.4,4.9,9.6c0,9.9-0.5,20-2.1,29.8c-2,12.1-9.3,21.3-19.6,27.8c-6,3.8-12.6,6.8-19.2,9.6c-2.6,1.1-3.6,2.6-4.5,5.2
		c-3.1,8.9-5.9,18.1-10.2,26.5c-6.7,13.3-18.1,20-33.1,20.6c-12.6,0.5-24.9-0.4-37-4.6c-10.9-3.8-18.9-10.5-22.8-21.5
		c-1.3-3.8-3.4-4.4-7.1-4c-47.5,5.6-94.9,11.3-142.5,16.6c-40.4,4.5-80.9,8.5-121.3,12.4c-4.2,0.4-6.2,1.7-7.7,5.8
		c-8.7,25.4-26.3,40.7-52.8,45.4c-13.9,2.5-27.8,2.9-41.8,1.2c-23-2.8-40.1-13.8-49.4-35.4c-1.8-4.2-4.2-5.3-8.6-5.3
		c-41.5,0.4-83,0.7-124.5,0.6c-9.1,0-18.2-1.4-27.3-2.5c-6.7-0.8-12.4-3.9-18.4-7.1c-5.7-3.1-13-3.7-19.6-4.6
		c-18.8-2.6-37.7-4.3-56.5-7.4c-10.3-1.7-20.1-5.6-30.8-6.1c-5.5-0.3-6.9-6.4-8.2-10.8c-0.5-1.8,1.6-5.4,3.5-6.7
		c3.1-2,2.7-4.2,2.5-7.1c-1.1-15.7-2.7-31.5-2.7-47.3c0-10.3,6.5-18.2,15.1-24c1-0.7,1.8-2.7,1.7-4c-0.3-7.8,2.5-14.3,7.4-20.1
		c12.5-14.8,27.7-25.4,47-29.4c33.6-6.9,67.3-13.5,100.9-20.3C194.7,143.7,196.3,143.3,198.1,142.8z M858,164.3
		c-5.3,2.2-10.4,5.4-15.8,6.2c-10,1.6-20.2,1.8-30.3,2.6c-6.7,0.5-13.4,1.1-19.8,1.6c0,4,0,7.2,0,10.6c18.5-6.9,34-3.5,46.6,11.5
		c0.6,0.7,2,1.4,2.9,1.2c9.1-1.7,18.2-3.5,27-5.2c1.9-10.8-4.5-18.7-7.4-27.6c-0.2-0.5-2.1-0.4-3.2-0.5c0.5-1.5,1.7-3.4,1.2-4.4
		c-0.5-1.2-2.7-2.3-4.1-2.2c-17.3,0.5-34.6,1.2-51.9,2.1c-4.9,0.2-9.7,1.2-14.9,1.9c1.2,4.2,2.2,7.6,3.3,11.4
		c8.1-0.5,15.9-0.6,23.6-1.5C829.6,170.3,844.6,171.8,858,164.3z M196.6,202.2c3.6-2.2,7.3-4.5,10.1-6.2
		c-23.4,2.5-44.3,10.8-53.7,35.2c19.9,0,40.1,0,60.3,0c2.5,0,5.1-0.3,7.4-1.2c2.7-1.1,5.1-2.9,7.7-4.5c-0.3-0.4-0.5-0.8-0.8-1.3
		c-1,0.2-2,0.4-4.5,0.8c4.4-2.7,8.8-3.9,10.5-6.7c4.4-7.2,7.6-15,11.3-22.6c-0.3-0.6-0.7-1.2-1-1.8c-8.9,2-17.7,4.1-27.1,6.2
		c7.7,11.7,9,18,5.8,22.4c-0.5-3.7-0.6-8-1.7-12.1c-1-4-3-7.7-8.1-8.3c10.1-7.3,21.9-8.4,33.6-9.4c-0.2-0.7-0.3-1.3-0.5-2
		c-5,0.6-10,1.2-15,1.8c-0.1-0.6-0.1-1.3-0.2-1.9c13.7-1.3,27.5-3.1,41.2-3.8c6.1-0.3,7,2,7,9c1.2-2.3,2.5-4.8,2.2-7.1
		c-0.4-3.4-3.6-4-6.6-3.8c-9.5,0.5-19-0.9-28.5,2.8c-6.3,2.4-13.6,2.3-20.5,3.4c0.3,0.5,0.6,0.9,0.9,1.4c-0.9,0.5-1.8,1.4-2.8,1.5
		c-13.3,1.8-25.3,5.5-32.3,18.6c-3.8,7.2-3.3,8.6,4.9,9.6c0.3,0,0.6,0.5,0.9,0.8c-0.2,0.5-0.3,0.9-0.5,1.4c-2.7-1-6.5-1.3-7.9-3.3
		c-1.2-1.7,0.1-5.4,0.8-8.1c0.5-1.9,1.7-3.6,2.5-5.4C193.5,205.8,195,204,196.6,202.2z M777.3,132.2c-1.7,0-3.3-0.1-5,0
		c-36.5,2.4-73.1,4.7-109.6,7.1c-1.4,0.1-2.8,0.4-4.3,0.7c1.7,6.2,3.3,11.9,5,18.2c27.7-1.6,55.5-3.1,83.2-4.7
		c0.7-7.6,3.9-10.8,10.9-11.1c3.3-0.2,6.8-0.7,9.9,0.1c3.1,0.8,6.9,2.5,8.5,5c2.5,4,5.1,4.2,8.9,3.3c-1.4-3.9-2.6-7.4-3.9-10.9
		c1.1,2,2.7,3.9,3.2,6c1.3,4.6,4.1,5.5,8.5,5.3c20-0.9,39.9-1.4,59.9-2.1c1,0,1.9-0.3,2.1-0.3c1-3.3,1.8-6.1,2.7-9.3
		c-1.9-7.9-7.9-11.6-16.3-12.4c-4-0.4-7.8-1.5-11.7-2.4c-0.9-0.2-1.7-0.8-2.6-1.3c0.1-0.3,0.2-0.6,0.3-1c6.8,0.9,13.7,1.9,20.8,2.9
		c0.8-5.3,5.1-5.7,8.8-7c3.6-1.2,6.5-2.8,6.1-7.3c-0.7-9-0.9-18-2-26.9c-1.3-10.8-4.2-12.7-14.9-11.4c-8,1-16,2.9-24.1,3.2
		c-17.5,0.7-35,0.7-52.5,0.9c-5.4,0.1-10.8,0-16.2,0c-0.1,0.5-0.2,1-0.3,1.5c1.4,0.5,2.7,1.5,4.1,1.5c23.8,0.1,47.6,0.2,71.5,0.1
		c1.9,0,3.7-1.2,5.7-1.9c0.7,15.5,2,31.4-13.5,42.6c-0.6-3.7-10.1-4.8-20-2.8c1.8,1.9,3.5,3.7,5.1,5.6c-1.9-0.5-3.4-1.5-4.7-2.7
		c-19.4-16-38.9-31.9-58.3-47.9c-1.1-0.9-2.6-2.5-3.7-2.3c-9.9,1.1-15.5-6.4-22.6-10.9c-1.9-1.2-2.7-4.4-4.7-5.3
		c-13.4-6-26.9-12.1-41.7-13.2c-25.7-2-51.5-3.1-77.3-4.9c-12.3-0.8-23.8,2.9-35.6,5.1c-3.6,0.7-7,3-10.4,4.7
		c-0.9,0.5-1.7,1.4-2.2,2.4c-1.1,2.1-1.5,4.6-3,6.4c-21.8,26.3-43.8,52.4-65.7,78.6c-1,1.2-1.9,2.5-3,3.9c11.6,2.3,13,1.4,19.3-7
		c15.3-20.4,30.5-40.8,46.5-60.6c10.2-12.6,23.8-19.8,40.4-21.6c29.3-3,58.5-3.8,87.8-0.1c28.4,3.5,53.4,14.2,72.4,36.3
		c12.5,14.5,24.5,29.5,36.6,44.3C776.6,129.5,776.9,130.9,777.3,132.2z M267.9,226.8c9.2,7.4,20,7,30.8,6.3
		c11.1-0.8,22.2-1.9,33.4-2.1c8.7-0.1,14.4-3.8,19.9-10.5c17.3-21.5,40.6-30.2,67.7-28c25,2,43.7,14,54.5,37.1
		c6.6,14.2,7.4,29.2,6.2,44.5c-0.6,7.6-2.1,15.1-3.3,22.9c1.7,0.2,3.3,0.4,4.9,0.7c8.8-32.6,5.2-65.3,5.3-98.5
		c-1.5,0.9-2,1.3-2.6,1.6c1.6-5.2,1.1-6.1-4.2-6.4c-1.8-0.1-3.6,0.2-5.4,0.5c-3.3,0.5-3.5,2.6-2.1,5.1c0.7,1.2,1.9,2.2,2.9,3.3
		c-3.7-0.3-5-3.2-4.5-5.9c0.4-1.6,3.3-3.6,5.2-3.8c3.3-0.4,6.8,0.4,9.7,0.6c0-17.8,0-35.8,0-53.2c-57.8-1.3-114.8-2.7-173.3-4
		c4.7,0.6,8.1,1.1,11.5,1.5c-9.7,2.2-18.1-2.8-27.2-4c-9.4-1.3-18.9-2-28.3-2.4c-9.1-0.4-18.3-0.1-27.4-0.1c5.2,1,10.4,0.8,15.4,1.9
		c3.8,0.9,7.6,2.9,10.8,5.3c1.8,1.3,3.7,5.7,3,6.5c-1.9,2-5,3.9-7.7,4c-6.8,0.4-13.6-0.1-20.5-0.5c-14-0.8-28-1.8-42-2.7
		c-2.5-0.2-5.2-0.7-7.6-0.2c-32.8,6.5-65.6,13.2-98.4,19.9c-12.1,2.4-22.9,7.8-32.9,14.9c-5.5,3.9-7.2,9.1-7.7,15.8
		c5.5,0.7,10.9,5.1,16-1c0.5-0.6,1.9-0.8,2.8-0.8c9.1,0.6,18.2,1.3,27.2,2.2c1.6,0.2,3.9,1.3,4.5,2.6c1.3,3.1,3.5,3.1,6.1,3.1
		c15.2,0.3,30.3,0.6,45.5,0.9c7.9,0.2,15.5-0.8,23.3-3.2c17.3-5.3,35.2-8.9,52.9-12.8c8.1-1.8,16.2-2.4,23.8-6.7
		c6.3-3.6,13.6-5.5,20.4-8.1c0.1,0.4,0.3,0.7,0.4,1.1c-7,2.8-14,5.6-20.9,8.4c1.1,1,2,1,2.9,1c5.7-0.2,11.3-0.6,17-0.4
		c7.2,0.2,10.2,6.1,6.3,12.2c-1.6,2.5-3.5,4.9-5.5,7.1c-5.1,5.8-10.3,11.6-16.1,18.1c1.9,1.6,4.7,4.1,7.6,6.6
		c-3.3-2.4-6.5-4.8-8.9-6.5c-11.4,5.1-22.3,10.5-33.6,14.9c-9.1,3.5-18.6,3-28,0.6c-4.3-1.1-8.7-2.3-13-2.3c-23.7,0.3-47.3,1-71,1.5
		c-1.7,0-3.4,0-5.2,0c11.8-1.4,23.5-2.1,35.3-2.2c4.7-0.1,6.8-2.2,7.7-5c-2.8,0.6-5.8,1.6-8.9,1.9c-3.6,0.4-7.3,0.1-11,0.2
		c-5.8,0-11.5,0-17.6,0c0-8,0-15.4,0-23.3c6.5,0,13.1,0,19.8,0c0-0.4,0-0.8,0-1.2c-9.4,0-18.8,0-28.2,0c-3.1,9.6-6.3,19.2-9.5,28.9
		c-1.6,4.9-4.7,8.9-9.7,9.9C74,247,62,246.1,50.6,240.8c-3.7-1.7-4.8-4.9-3.6-8.8c0.5-1.5,1.1-3,1.5-4.3c-3-1.5-6.4-2.3-8.5-4.4
		c-3.9-3.7-4.8-4.1-8.3-0.2c-1.6,1.9-3.1,3.9-4.4,6c-3.8,6.1-2.2,11.4,4.8,12.9c14,3,28,6.7,42.2,7.5c59.8,3.1,119.6,4,179.4,0.1
		c22.9-1.5,45.8-3.6,68.7-5.6c8.6-0.8,14.2-6.5,19.4-12.7c-2.4-0.3-4.6-0.1-6.7,0.1c-16.6,1.1-33.2,2.3-49.8,3.2
		C278.2,235.1,272.4,232.2,267.9,226.8z M493.9,238.1c4.5-1.1,9-2.9,13.5-3.3c39.1-3.7,78.3-7.2,117.4-10.7
		c11.7-1.1,23.5-2,36.1-3.1c0-20.7,0-41,0-61.5c-1.8,0-3.4,0-5.1,0c0-0.2,0-0.4-0.1-0.6c1.7-0.3,3.4-0.6,5.9-1
		c-1.1-4.3-2.3-8.2-3.1-12.2c-0.9-4.5-2.9-6-7.8-5.6c-43.2,3-86.4,5.7-129.7,8.5c-10.9,0.7-21.9,1.5-33.1,2.2c0,1.9,0,3.4,0,4.9
		c0.5,22.5,1.3,45,1.5,67.5c0.2,17.1,0,34.3-0.9,51.4c-0.4,7.5-2.6,14.9-4,22.6c2,0,3.7,0.1,5.3,0c10.6-0.9,21.2-1.9,31.9-2.9
		c39.8-3.6,79.6-7.3,119.5-10.7c5.9-0.5,8.3-2,11-8.2c6.4-14.3,7.3-28.9,7.8-43.9c0.1-2.4,0-4.8,0-7.7
		C604.3,229.1,549.1,232.1,493.9,238.1z M272.2,129c12.5,1.6,24,3.9,35.5,4.4c51.1,2.1,102.2,3.7,153.3,5.2c2,0.1,4.6-1,5.9-2.5
		c22.7-26.6,45.3-53.3,67.8-80.1c3.5-4.1,2.2-7.7-3.2-8.8c-1.1-0.2-2.3-0.2-3.5-0.3c-35.8-3.3-71.5-2.2-107.2,2.1
		c-18.5,2.2-35.9,6.3-51.7,16.5c-19.6,12.7-39.4,24.9-58.9,37.6C297.6,111.4,285.2,120.1,272.2,129z M751.6,219
		c-29.3,1.3-59.3,2.6-89.4,4c-0.7,11.2-0.5,21.1-2.2,30.7c-1.7,9.4-5.2,18.5-8.1,28.2c2.7,0,4.6,0.2,6.6,0c25.7-2.3,51.4-4.6,77.2-7
		c1.3-0.1,2.6-1,3.7-1.9c7.4-6.3,9.6-15.4,12.6-24c6.9-19.5,15.5-37.9,32-51.5c7.1-5.8,6.9-14.1,5.9-22.6
		c-30.1,1.7-59.7,3.4-89.3,5.1c0-0.3,0-0.7-0.1-1c29.8-1.8,59.5-3.5,89.8-5.3c-1.3-4.5-2.4-7.9-3.7-12.4c-28,5-55.8,10-83.5,14.9
		c0-0.2-0.1-0.5-0.1-0.7c22.4-4.3,44.8-8.6,68.2-13.1c-5.7-0.3-10.4-0.1-14.9-0.8c-2.5-0.4-5.6-1.8-7-3.8c-1.8-2.5-3.4-3.1-6.1-2.9
		c-22,1.2-43.9,2.3-65.9,3.5c-4.6,0.2-9.2,0.7-14.4,1.2c0,20.7,0,40.9,0,61.4C692.6,218.7,722.4,215.8,751.6,219z M312.5,340.5
		c7.2,17,17.3,29.4,34.8,34.5c19.3,5.7,38.8,5.3,58.3,1.1c22.7-4.8,38-18.7,46-40.2c7.6-20.3,9.2-41.4,6.3-63
		c-4.3-31.5-26.7-49.6-49.9-54.6c-10.8-2.3-22.1-2.6-33.2-3.3c-2.5-0.2-5.6,1-7.7,2.6c-13.8,10.2-22.3,24.4-29.4,39.7
		c-11.1,23.8-14.3,49.4-17,75.1C320.3,337.3,320.2,341.9,312.5,340.5z M154.2,317.5c0.2-4.4,0.4-9,0.8-13.6
		c0.4-4.8,0.7-9.6,1.4-14.4c1.7-12.8,9.1-19.4,22.1-19.7c7.3-0.2,14.7,0.5,22,0.1c39.9-2.3,79.8-4.8,119.7-7.3
		c4.8-0.3,5.9,0.8,4.4,5.3c-5,14.8-10.2,29.6-15,44.5c-1,3-1,6.3-4.3,7.5c-6.8,2.5-13.5,5.8-20.6,6.9c-11.5,1.8-23.2,2-34.8,2.9
		c-36.5,2.7-72.9,2.8-109.3-0.6c-2.3-0.2-5.7-0.8-6.7-2.3c-2.4-3.8-5.8-3.9-9.5-4.3c-17.7-1.7-35.5-3.3-53.2-5.3
		c-13.4-1.5-26.6-4.4-39-10.2c-2.4-1.1-6,0.2-9,0.4c-0.1,0.8-0.1,1.6-0.2,2.4c1.7,0.6,3.3,1.4,5,1.7c8.3,1.7,16.6,3.3,24.9,5
		c4.1,0.8,8.1,2.1,12.2,2.6c18.4,2.1,36.8,4.1,55.1,6c6.4,0.7,12.3,2,17.5,6.4c2.3,1.9,5.6,3.2,8.6,3.5c11.6,1.3,23.2,3.1,34.8,3.1
		c43.7,0.1,87.3-0.4,131-0.8c1.6,0,3.2-0.2,5.1-0.3c3.3-38,9.3-74.7,31.6-106.9c-2.5,0.7-4.3,1.8-5.8,3.3
		c-6.4,6.5-13.2,12.1-23,12.8c-24.6,1.8-49.1,4.1-73.7,5.6c-55.6,3.5-111.2,2-166.9,0c-15.7-0.6-31.2-2.9-46.2-7.7
		c-3.4-1.1-6.4-3.3-10.2-5.2c-0.3,6.3-0.6,13.2-0.8,18.7c5.6,0.4,10.1,0.8,14.9,1.2c0-1.2,0.1-2.5,0-3.8c-0.5-4.5,0.8-6.3,5.8-5.4
		c9.7,1.6,19.5,2.5,29.2,3.8c9.2,1.3,9.1,1.4,9.9,10.6c0,0.3,0.3,0.6,0.5,1c13,1.2,26.1,2.4,39.2,3.8c8.6,0.9,12.5,4.5,14.2,12.9
		c1.8,8.8,3.4,17.7,4.9,26.5c1.7,10,1.6,10,11.9,9.8C153.1,318,153.4,317.8,154.2,317.5z M645.7,131.1c0.1-1.4,0.2-2,0.2-2.6
		c-2.2-24.6-5.2-49-13.4-72.5c-1-2.9-2.3-4-5.3-3.8c-16.1,1-32.3,1.6-48.3,3c-11.2,1-21.8,4.9-29.4,13.4
		c-10.5,11.9-20.3,24.6-30,37.2c-1.4,1.9-1,5.1-1.6,8.2c4.6-2.1,7.9-4.6,11.3-4.9c10.8-1,21.6-1.2,32.4-1.6
		c5.1-0.2,8.4,2.9,10.3,7.4c2.7,6.3,4.1,12.9,1.2,20.1C597.5,133.8,621.4,132.5,645.7,131.1z M755.2,125.8
		c-7.7-16.4-16.6-30.8-27.7-43.7c-7.5-8.7-17-14.8-27.7-19.1c-13-5.2-26.5-7.7-40.3-9c-6.2-0.6-12.4-1-17.6-1.4
		c5.3,26.3,10.5,52.2,15.8,78.4C689.6,129.3,722,127.6,755.2,125.8z M293.3,319.7c-0.1,0.4-0.2,0.8-0.3,1.2c-3.7-0.3-7.4-1-11.1-0.9
		c-7.7,0.1-15.3,0.6-23,1c-36.5,2-72.9,2.9-109.3-0.9c-8.5-0.9-8.5-0.8-10.4-9.2c-0.1-0.5-0.4-0.9-0.7-1.4
		c-37.2-1.9-74.7-2.4-109.2-17.7c-2.3,2.1-4.2,4.1-6.5,5.6c-3.8,2.5-4.3,5.1-2.4,7.1c5.1,0,9.5-1.2,12.6,0.2
		c12.3,5.8,25.2,8.6,38.4,10.2c18.5,2.1,37.1,3.7,55.7,5.7c2.3,0.2,4.5,1.6,6.7,2.6c2.5,1.2,4.9,3.3,7.5,3.6
		c44.6,4.4,89.2,2.4,133.8-1.2c7.4-0.6,14.7-2,21.4-3c-3.5-11.3,3.2-20.6,3-29.7c-7.5,2.8-15.1,7.3-23,8.2
		c-15.1,1.7-30.5,1.8-45.8,1.6c-4.7-0.1-9.3-3.3-14.2-5.1c3.4-5.9,7.3-8.6,12.5-9.6c23.9-4.5,47.6-4.5,71.5,1.9
		c1.8-8.1,3.6-16.2,5.4-24.7c-30.6,2.1-60.6,4.2-90.9,6.3c-1.1,16.6-2.2,32.7-3.3,49.3c3,0,5.2,0.1,7.3,0
		c21.3-0.9,42.6-1.8,63.9-2.5C286.4,318.2,289.9,319.2,293.3,319.7z M734.9,299.2c3.2,10.7,9,18.5,19.3,22.5
		c12.8,5,26.1,6.4,39.7,5.7c15.1-0.8,25.5-8.4,32.1-21.7c10.3-20.8,13.7-42.7,9.7-65.5c-2.7-15.6-10.3-28-25.8-34.2
		c-15.4-6.1-25.3-3.7-34.4,10c-6,9.1-10.8,19.1-15.4,29c-4.8,10.2-8.7,20.7-13.3,31.8c3,3.7,3.7,8.9,2.1,14.8
		C747.1,299.2,740.7,298.1,734.9,299.2z M480.4,300.8c-9.4-3.2-11.5-1.6-11.3,7.9c0.1,6.6-2.4,12-8.8,14.9c-1,0.5-2.2,0.6-3.4,0.9
		c0.6,0.6,1.1,1.3,1.7,1.9c0.6,0,1.3,0.2,1.9,0.1c27.8-2.9,55.7-5.7,83.5-8.7c65.4-7.2,130.7-14.6,196.1-21.7
		c5.2-0.6,7.3-2.8,7.4-8.1c-2.7,0.1-5.4,0.2-8,0.4c-9.8,0.8-19.6,2.2-29.4,2.5c-52.7,1.6-104.8,9.7-157.1,15.5
		c-25.5,2.8-51,5.3-76.5,7.9c-1.9,0.2-3.9-0.3-5.8-0.5c-0.2-0.5-0.3-1-0.5-1.5C474.2,309,481.9,308.5,480.4,300.8z M210,320.9
		c1.2-16.9,2.3-33,3.5-49.5c-13.1,0-25.6-0.5-37.9,0.2c-7,0.4-14.3,3.8-15.9,11c-2.5,11.7-3,23.9-4.4,36.4
		C174.2,319.7,191.8,320.3,210,320.9z M839.3,274.9c10.1-0.4,27.7-11.9,33.8-22.5c8.2-14.5,7.2-30.2,6.7-46.5
		c-5,1.1-8.7,1.9-12.4,2.7s-7.5,1.4-11.2,2.4c-6.2,1.7-10.7,0.5-13.9-5.9c-2.8-5.6-4.3-5.6-10.1-2.7c12,15.5,13.8,34,14.8,53
		c9.1-3,17.5-5.8,25.9-8.6c-0.6,1.5-1.5,2.1-2.5,2.4c-5.8,2.1-11.5,4.5-17.4,6.3c-4.9,1.5-7.6,4.2-8.3,9.3c-0.4,2.8-1.4,5.6-2.2,8.9
		c-0.8-1-1.2-1.3-1.1-1.5c0.2-1.3,0.4-2.6,0.8-3.9c5.9-18.8,1.5-36.7-5.2-54.1c-6.1-15.8-25-22.7-40.5-15.7c-1,0.5-2,1.3-3.6,2.3
		c3.6,0.4,6.2,0.7,8.9,1.1c15.6,2.3,26.8,10.8,32.7,25.3c2.4,5.9,4,12.5,4.5,18.8C839.8,255.6,839.3,265.2,839.3,274.9z
		 M377.3,211.5c9.3,0.9,17.7,1.4,26.1,2.7c29.5,4.4,51.3,25.4,57,54.6c3.1,15.7,2.5,31.5,0,47.2c-0.3,1.7-0.5,3.4-0.8,5
		c5.7-3.1,8.1-7.6,7.6-13.6c-0.3-3.5-1-7,2.7-9.4c0.7-0.4,1-1.7,1.1-2.6c3.2-17.6,3.4-35.1-2.9-52.2
		C452.8,202,407.9,193,377.3,211.5z M515.6,111.5c-4.6,6.5-8.8,12.2-12.8,18.1c-3.6,5.3-7.6,9.6-14.5,9.5c0,3.1,0,5.9,0,8.8
		c2,0,3.7,0.2,5.3,0c9.6-1.2,19.3-2.3,28.8-4c13.8-2.4,27.5-5,41.2-7.9c8.3-1.8,9.8-4.3,8.5-12.7c-0.5-3.1-1.4-6.3-3.1-8.8
		c-1.5-2.1-4.4-4.4-6.7-4.3c-15.4,0.2-31.5-3.2-45.4,7.9C516.5,115.9,516.1,114.2,515.6,111.5z M745.2,280.8c0-0.6,0.1-1.2,0.1-1.8
		c-3.4-3.1-7.6-2-11.6-1.6c-51.9,4.9-103.7,9.8-155.6,14.7c-30,2.8-60,5.6-90,8.6c-1.7,0.2-4,0.9-5,2.1c-1.9,2.7-3.2,5.9-5,9.4
		C567.1,301.7,656.1,291.2,745.2,280.8z M832.5,82.9c-24.4,0-48.1,0-72.9,0c8.1,6.7,15.2,12.5,22.2,18.3
		c5.5,4.6,10.1,11.2,16.4,13.4c6.5,2.4,14.4,0.4,21.7,0.7c3.6,0.2,5.4-1.4,7-4.2C832.1,102.3,832.6,92.6,832.5,82.9z M80.5,298.5
		c0-2.3,0-3.9,0-5.5c-0.2-8.6-0.3-17.3-0.6-25.9c-0.4-12.9,0.5-10.1-10.7-11.8c-9.8-1.5-19.6-2.5-29.4-3.8c0,13.1-0.1,25.6,0.1,38
		c0,1,1.5,2.7,2.5,2.9C54.8,294.5,67.3,296.4,80.5,298.5z M138.7,308c-1-5.9-1.8-11.1-2.6-16.3c-1.8-10.8-1.8-10.7-12.4-11.9
		c-0.7-0.1-1.3-0.2-2-0.3c-12.9-1.2-25.8-2.4-38.5-3.6c-0.3,0.7-0.6,1-0.6,1.3c0,4.7,0.1,9.3,0.1,14c0.1,9.9,0.1,9.9-9.9,8.2
		c-5.1-0.9-10.2-1.7-15.3-2.5c-5-0.9-10.1-1.8-15.1-2.7C73.3,306.2,105.8,305.9,138.7,308z M84.6,239.3c1.8-1.1,5.4-2.1,6.2-4.2
		c3.3-8.6,5.9-17.5,8.5-26.4c1-3.3-1-5.5-4.4-5.8c-5.8-0.7-11.6-1.3-17.4-1.6c-1.4-0.1-3.5,1.2-4.3,2.5c-4.4,7.1-8.6,14.2-12.6,21.5
		c-2.9,5.3-1,9.5,5,10.9C71.4,237.5,77.4,238.2,84.6,239.3z M347.4,228.5c0.3,0.4,0.5,0.8,0.8,1.3c1.7-1.2,3.7-2.2,5-3.7
		c9.5-10.7,20.9-18.6,34.4-23.2c32.4-11.1,65.6,1.6,80.4,33.4c8.4,18.1,8.8,37,5.5,56.2c-0.3,1.5-0.4,3-0.5,4.5
		c0.4,0.1,0.8,0.2,1.3,0.3c0.5-1.1,1.1-2.1,1.4-3.3c3.4-15.4,4.8-31,2.2-46.6c-3.2-18.6-12.1-33.6-28.4-43.8
		C422.5,186.6,373.6,189,347.4,228.5z M490.5,135.7c0.4,0.5,0.9,0.9,1.3,1.4c2.1-1.6,4.7-3,6.3-5c4-4.9,7.4-10.2,11.2-15.3
		c10.9-14.7,21.6-29.5,33-43.9c9.5-12.1,22.6-18.2,37.8-20.2c33-4.2,65.9-4,98.6,1.7c24.5,4.2,44.9,15.7,58.6,37.1
		c6.4,10.1,12.1,20.7,18.2,30.9c0.8,1.3,2,3,3.2,3.2c3.4,0.4,6.8,0.2,10.2,0.2c0.2-0.5,0.4-1,0.6-1.6c-10.7-12.7-21.1-25.6-32-38.2
		c-17.2-19.9-39.5-30.9-65.2-34.8c-30.5-4.6-61.1-3.7-91.7-1c-17.6,1.6-31.4,9.6-42.3,22.9c-11.9,14.4-23.3,29.2-34.7,43.9
		C499.1,123.1,494.9,129.5,490.5,135.7z M537.8,145c78.2-5.1,156.4-10.2,234.5-15.3c0.1-0.6,0.1-1.1,0.2-1.7
		c-1.7-0.2-3.4-0.7-5.1-0.6c-15.3,0.8-30.6,1.7-45.9,2.6c-20.1,1.1-40.3,2.2-60.4,3.3c-4,0.2-8,1-12.1,1.2c-2.6,0.1-5.2-0.7-7.9-0.6
		c-15.8,0.7-31.6,1.9-47.4,2.2C574.8,136.6,556.2,139.8,537.8,145z M293.3,292.8c-24.4,1.9-47.6,4.8-70.9,3.3
		c24.1-1.4,48.2-2.8,72.3-4.3c0-0.7-0.1-1.3-0.1-2c-22.7-4.6-45.4-5-68.1,0.6c-2.8,0.7-5.1,3.3-7.8,5.1
		C230.4,305.5,277.3,303.8,293.3,292.8z M163.1,208.7c-16.6,0-31.7,0-47,0c0,6.4,0,12.7,0,19.4c10,0,19.6,0,29.2,0
		c0.9,0,2.1-0.4,2.7-1C152.8,221.3,157.4,215.5,163.1,208.7z M248.6,190.4c-4.1,9.3-8.1,18.3-12.2,27.3c0.5,0.4,0.9,0.9,1.4,1.3
		c4.8-4.4,9.9-8.6,14.2-13.4c2.5-2.8,2.1-6.2-1.9-8.3c-0.5-0.3-0.9-0.9-2-2.1c7.2,2.9,9.2,6.4,5.1,11.2c-4.6,5.4-11,9.3-16.7,13.8
		c-2.9,2.3-5.8,4.5-8.8,6.7c0.3,0.5,0.6,1,0.9,1.6c6.6-2.9,13.5-5.5,19.9-8.8c9.9-5.1,18.5-11.9,25-21.1c1.6-2.2,1.9-5.4,2.8-8.1
		c-3-0.8-5.9-2.3-8.9-2.2C261.2,188.5,254.8,189.6,248.6,190.4z M740.3,274.2c0.3,0.4,0.6,0.9,1,1.3c1.2-0.8,2.8-1.3,3.5-2.4
		c2.6-4.2,5.3-8.5,7.2-13.1c3.4-8.1,6-16.6,9.6-24.7c6.5-14.5,14.8-27.6,29-36c11.4-6.7,23.2-7.4,34.7-1.1c4.4,2.4,8,1.9,12.1,0.4
		c-8.6-14.2-30.1-19.7-44.2-11.5c-1.1,0.7-1.9,2.1-2.7,3.3c-2.1,3-3.5,6.7-6.2,8.9c-13.9,11.4-21.7,26.7-28.2,42.9
		C751.5,253.2,749.7,265.5,740.3,274.2z M573.6,36.6c-53.5,0-150.3,5.1-163.4,12.4c1.5-0.1,2.7-0.1,3.8-0.3
		c41.9-6.7,83.8-7.8,126-2.8c1.2,0.1,2.8,0.1,3.8-0.5C552.9,39.3,563.3,37.9,573.6,36.6z M857.6,156.2c0.3-5.3-2.2-6.7-7.3-6.4
		c-10.1,0.7-20.3,0.8-30.4,1.1c-10.8,0.4-21.5,0.8-32.5,1.2c0.4,3,0.7,5.5,0.9,7.7C811.7,158.7,834.5,157.5,857.6,156.2z
		 M654.4,132.6c-0.5-4-0.9-7.7-1.4-11.5c-2.7-21.8-6.1-43.5-13.2-64.4c-1.1-3.1-2.2-5.6-6.2-3.7c0.1,0.6,0,1.1,0.2,1.6
		c8.5,24,12.1,49,14.2,74.3C648.3,132.8,650.2,133.7,654.4,132.6z M88.5,241.3c-7.6-1-15.9-1.5-23.9-3.2c-7.1-1.5-9.3-7.4-6-13.8
		c2-3.8,4.2-7.6,6.3-11.3c2-3.4,4-6.9,6.7-11.5c-8.4,5.5-8.5,5.4-12.6,12.3c-2.9,4.8-5.8,9.7-8.5,14.7c-4,7.3-3.1,10.7,4.9,12.4
		c8.9,1.8,18,2.1,27.1,2.6C84.8,243.6,87.2,241.8,88.5,241.3z M867.8,194.6c-8.3,1.6-17.3,3.4-26.6,5.3c7.4,11.8,4.2,11.1,18.2,8.8
		c1.3-0.2,2.6-0.4,3.9-0.7c4.5-1,9.1-2,13.9-3.1C874,201.2,871.3,198.4,867.8,194.6z M52.6,189.3c-9.2,7.4-14.1,15.9-12.4,27.8
		c0.9,6.6,3.4,8.7,9.1,7.5c1.5-7.6,2.9-14.8,4.4-22.4C48,199.1,52.8,194.1,52.6,189.3z M713.2,51.1c3.3,9.3,11.6,13,19.4,17.1
		c1.5,0.8,5.1,0.4,5.8-0.8c2.3-3.5,3.9-8.4,0.7-11.5c-3.1-3-8-4.1-12.1-5.9c-0.4-0.2-1.1,0.4-1.6,0.8c-2.1,1.8-4.2,3.6-6.3,5.4
		c-0.3,0.2-0.8,0.2-2,0.5c1.1-1.5,1.8-2.3,2.6-3.4c-1.2,0.3-2.1,0.5-3.2,0.7c0.6-1.2,1-2,1.4-2.9C715.9,51.1,714.5,51.1,713.2,51.1z
		 M25.5,267.3c0.6,6.7,1.1,13.5,1.8,20.2c0.1,0.9,1.2,2,2.1,2.5c2.8,1.4,5.7,2.6,8.5,3.9c0-4.5,0.1-8.6,0-12.7
		c-0.2-11-0.2-11-10.7-13.9C26.8,267.1,26.5,267.2,25.5,267.3z M323.1,268.6c-1.2-0.2-1.5-0.4-1.8-0.3c-4.9,1.4-4.5,6.1-5.8,9.6
		c-4.6,12.5-5.9,26.4-14.7,37.2c-0.4,0.5-0.3,1.5-0.4,2.3c3.1-1.4,6.4-3.1,7.4-5.7C313.2,297.5,318,283.1,323.1,268.6z M766.5,159.4
		c9.2,1.8,12.1-0.4,10.3-6.9c-1.1-4.1-3.2-8.4-8.1-8.3c-6.6,0.2-14.6-3.5-19.1,4.3c-1.2,2.1,0.2,5.9,1.1,8.8c0.4,1.1,2.6,2.3,4,2.3
		c2.8,0,5.6-0.8,8.3-1.2c1.4-0.2,2.9-0.5,4.3-0.8c-0.1-0.4-0.1-0.8-0.2-1.2c-2.6,0-5.2,0-7.8,0c-7.3,0-7.3,0.1-4.4-6.4
		c0.1-0.3,0.1-0.7,0.2-1c1.5-4.4,8.9-5.6,12.3-2.2c1.4,1.5,3.6,2.2,5.3,3.4c1,0.7,2.3,1.6,2.4,2.6c0.1,0.9-1,2.3-1.9,2.9
		C770.9,157,768.7,158.1,766.5,159.4z M82.2,274.2c11.3,1.1,22.2,2.3,33.1,3c1.1,0.1,2.3-2.1,3.5-3.3c-0.3-0.5-0.6-0.9-0.9-1.4
		c-11.5-0.6-22.9-1.2-34.4-1.8c0-0.4,0.1-0.7,0.1-1.1c7.1,0,14.3,0,21.4,0c0-0.1,0-0.2,0-0.4c-7.4-0.6-14.8-1.1-22.5-1.7
		C82.4,269.8,82.3,271.6,82.2,274.2z M746.7,281.3c-18.2,2.7-35.9,5.4-53.5,8c0,0.2,0,0.4,0.1,0.6c18.2-1.2,36.3-2.4,54.9-3.7
		C747.5,284.2,747.2,282.9,746.7,281.3z M868.3,177.2c2.5-13.2-4.5-23.6-10-34.4C857.8,155.5,863.7,166.1,868.3,177.2z M307.6,265
		c-1.4,6.3-2.7,12.3-4,18.3c-1.3,6.2-2.7,12.3-4,18.5c-3.3,15-3.3,15-1.8,17.1c0.2-0.2,0.7-0.4,0.7-0.6c3.6-16.1,7.2-32.1,10.5-48.2
		c0.7-3.2,1.8-4.6,5.2-4.5c3.1,0.1,6.1-0.4,9.2-0.7c0-0.3-0.1-0.7-0.1-1C318.1,264.3,312.9,264.7,307.6,265z M302,308.9
		c0.6,0.2,1.2,0.4,1.8,0.6c4.1-12.9,8.2-25.8,12.3-38.6c-0.5-0.4-1-0.8-1.5-1.3c-1.5,1-3.9,1.8-4.2,3.1
		C307.4,284.7,304.7,296.8,302,308.9z M245.3,135.1c-0.2,13.2-2.2,13.6,9.4,12c0-3.9,0-7.8,0-12
		C251.5,135.1,248.6,135.1,245.3,135.1z M257,148.1c3,0,5.7,0.6,7.9-0.2c1.6-0.6,3.8-3.1,3.6-4.5c-0.6-4.1-6.7-7.7-11.4-7.5
		C257,139.6,257,143.4,257,148.1z M221.9,146.5c0-3.9,0-7.6,0-11.3c-3.3,0-6.3,0-9.3,0c0,4,0,7.5,0,11.3
		C215.7,146.5,218.5,146.5,221.9,146.5z M253.2,219.6c-17.3,8.8-35.1,15.2-54.9,13.6C219.4,239.5,236.4,229.6,253.2,219.6z
		 M224.2,134.8c0,4.1,0,7.9,0,11.9c3,0,5.7,0,8.5,0c0-4.1,0-7.9,0-11.9C229.9,134.8,227.3,134.8,224.2,134.8z M243.7,147.1
		c-0.2-4.3-0.4-8.3-0.5-12.2c-3.3,0-5.8,0-8.2,0c0,4.3,0,8.2,0,12.2C238,147.1,240.6,147.1,243.7,147.1z M102.5,206.2
		c1.6-3.3,1.6-6.4-2.4-7c-8.8-1.2-17.7-2-26.6-2.5c-1.6-0.1-3.3,1.8-4.9,2.8C79.4,196.4,98.1,199.6,102.5,206.2z M210.8,135.4
		c-8.7-0.1-10.6,3.1-7.2,10.9c2.1,0,4.2,0,6.6,0C210.5,142.6,210.6,139.2,210.8,135.4z M776.5,162.8c3.6-1.1,7.1-1.8,10-3.5
		c0.8-0.4,0.2-4.9-1-6.3c-1.1-1.2-4.1-0.7-5.8-0.8C778.6,155.9,777.7,158.8,776.5,162.8z M51.8,219c0.4,0.2,0.8,0.3,1.2,0.5
		c3.2-5.1,6.3-10.1,9.8-15.8c-2.5-0.4-4.2-0.7-6.3-1C54.8,208.3,53.3,213.6,51.8,219z M132.9,279c-2.2-6-3.5-6.6-12.7-5.8
		c0,1.5,0,3.1,0,4.7C124.5,278.3,128.6,278.6,132.9,279z M773.3,154c-4.8-3.2-16.7-2.5-19.2,0C760.6,154,766.9,154,773.3,154z
		 M288.7,114.5c-8.4-1.1-13.1,2.3-11.2,7.8C281.2,119.8,284.7,117.3,288.7,114.5z M766.7,149.9c-0.9-4-3.7-3.8-6.2-3.4
		c-1.4,0.2-2.7,1.3-4,2c0.2,0.4,0.5,0.9,0.7,1.3C760.2,149.9,763.3,149.9,766.7,149.9z M37,269.9c1.4-7.6-3.7-5.6-6.1-7
		c-0.3,0.4-0.7,0.9-1,1.3C32,265.9,34,267.6,37,269.9z M528.1,67.8c-0.3-0.3-0.7-0.5-1-0.8c-3.7,4.4-7.5,8.8-11.2,13.2
		c0.3,0.3,0.6,0.5,0.9,0.8C520.6,76.6,524.3,72.2,528.1,67.8z"/>
	<path class="st0" d="M484.7,200.7c0.5-0.4,1.1-0.7,2.6-1.6c0,33.3,3.5,66-5.3,98.5c-1.6-0.2-3.2-0.4-4.9-0.7
		c1.2-7.9,2.7-15.4,3.3-22.9c1.2-15.2,0.4-30.3-6.2-44.5c-10.8-23.1-29.6-35.1-54.5-37.1c-27.1-2.1-50.4,6.5-67.7,28
		c-5.4,6.8-11.2,10.4-19.9,10.5c-11.1,0.2-22.3,1.4-33.4,2.1c-10.9,0.7-21.6,1.1-30.8-6.3l0.2,0.2c-2.9-2.5-5.7-4.9-7.6-6.6
		c5.8-6.5,11-12.3,16.1-18.1c2-2.3,3.8-4.6,5.5-7.1c3.9-6.1,0.9-12-6.3-12.2c-5.7-0.1-11.3,0.3-17,0.4c-0.9,0-1.8,0-2.9-1
		c7-2.8,14-5.6,20.9-8.4c-0.1-0.4-0.3-0.7-0.4-1.1c-6.8,2.6-14.1,4.5-20.4,8.1c-7.5,4.3-15.7,4.9-23.8,6.7
		c-17.7,3.9-35.6,7.5-52.9,12.8c-7.9,2.4-15.4,3.3-23.3,3.2c-15.2-0.3-30.3-0.6-45.5-0.9c-2.5,0-4.8,0-6.1-3.1
		c-0.6-1.3-2.9-2.5-4.5-2.6c-9-0.9-18.1-1.5-27.2-2.2c-0.9-0.1-2.3,0.1-2.8,0.8c-5.1,6.1-10.5,1.7-16,1c0.5-6.7,2.2-11.9,7.7-15.8
		c10.1-7.2,20.8-12.5,32.9-14.9c32.8-6.6,65.6-13.3,98.4-19.9c2.4-0.5,5.1,0,7.6,0.2c14,0.9,28,1.9,42,2.7
		c6.8,0.4,13.7,0.8,20.5,0.5c2.7-0.2,5.8-2,7.7-4c0.7-0.7-1.2-5.1-3-6.5c-3.2-2.4-6.9-4.5-10.8-5.3c-5-1.1-10.3-0.9-15.4-1.9
		c9.1,0,18.3-0.3,27.4,0.1c9.5,0.4,18.9,1.1,28.3,2.4c9,1.2,17.5,6.2,27.2,4c-3.4-0.5-6.8-0.9-11.5-1.5c58.4,1.4,115.5,2.7,173.3,4
		c0,17.3,0,35.4,0,53.2c-2.9-0.3-6.4-1.1-9.7-0.6c-2,0.2-4.9,2.2-5.2,3.8c-0.6,2.7,0.7,5.6,4.5,5.9
		C478.7,202.3,481.7,201.5,484.7,200.7z M208.1,166.1c8.4-2,16.7-4.1,25.1-6.1c-0.1-0.5-0.3-1-0.4-1.5
		C224.6,161,216.4,163.6,208.1,166.1c-8.4,2-16.8,3.9-25.3,5.8c0.1,0.5,0.3,1,0.4,1.5C191.5,171,199.8,168.5,208.1,166.1z
		 M175.8,158.8c-21.1,3.8-42.2,8.2-62.7,14.6c14.9-3.2,29.8-6.6,44.6-10.1C163.7,161.9,169.7,160.2,175.8,158.8
		c7.9-1.3,15.9-2.6,23.8-3.8c-0.1-0.4-0.2-0.9-0.2-1.3C191.5,155.4,183.6,157.1,175.8,158.8z M421,189.6c0-0.3-0.1-0.7-0.1-1
		c-16,1.3-32,2.6-48,3.9c0,0.2,0,0.5,0.1,0.7C389,192,405,190.8,421,189.6z M425.4,178.7c0-0.1,0-0.2,0-0.3c-9.4,0-18.8,0-28.3,0
		c0,0.1,0,0.2,0,0.3C406.6,178.7,416,178.7,425.4,178.7z M345.5,185.2c0,0.3,0,0.6,0.1,0.9c7.7-1.1,15.3-2.3,23-3.4
		c0-0.3-0.1-0.7-0.1-1C360.8,182.8,353.1,184,345.5,185.2z"/>
	<path class="st0" d="M493.9,238.1c55.2-6,110.4-9,166.2-14.3c0,2.8,0.1,5.2,0,7.7c-0.5,15-1.5,29.6-7.8,43.9
		c-2.8,6.2-5.2,7.7-11,8.2c-39.8,3.4-79.6,7.1-119.5,10.7c-10.6,1-21.2,1.9-31.9,2.9c-1.6,0.1-3.3,0-5.3,0c1.4-7.7,3.7-15.1,4-22.6
		c0.8-17.1,1-34.3,0.9-51.4c-0.2-22.5-1-45-1.5-67.5c0-1.5,0-3,0-4.9c11.2-0.8,22.1-1.5,33.1-2.2c43.2-2.8,86.4-5.5,129.7-8.5
		c4.9-0.3,6.9,1.1,7.8,5.6c0.8,4,2,7.9,3.1,12.2c-2.5,0.4-4.2,0.7-5.9,1c0,0.2,0,0.4,0.1,0.6c1.7,0,3.4,0,5.1,0
		c0,20.5,0,40.8,0,61.5c-12.6,1.1-24.4,2.1-36.1,3.1c-39.1,3.5-78.3,7-117.4,10.7C502.8,235.2,498.4,236.9,493.9,238.1z
		 M635.1,171.1c0-0.1,0-0.2,0-0.3c2.7,0,5.3,0.2,8,0c6-0.6,9.9-4.5,9.7-9.4c-0.2-7.8-3.6-12.3-10.2-12.3c-7.6,0.1-15.2,1-22.7,1.9
		c-4.5,0.5-8,2.5-8,7.8c0.1,5.9,3.6,10.4,8.8,11.1C625.5,170.5,630.3,170.7,635.1,171.1z"/>
	<path class="st1" d="M272.2,129c13-8.9,25.3-17.6,38-25.8c19.5-12.7,39.4-25,58.9-37.6C385,55.3,402.4,51.2,420.9,49
		c35.7-4.3,71.4-5.4,107.2-2.1c1.2,0.1,2.3,0.1,3.5,0.3c5.3,1.1,6.7,4.7,3.2,8.8c-22.5,26.7-45.1,53.5-67.8,80.1
		c-1.3,1.5-3.9,2.6-5.9,2.5c-51.1-1.6-102.2-3.2-153.3-5.2C296.2,132.9,284.7,130.6,272.2,129z"/>
	<path class="st0" d="M751.6,219c-29.1-3.2-58.9-0.2-88.8,1.9c0-20.5,0-40.7,0-61.4c5.3-0.4,9.9-0.9,14.4-1.2
		c22-1.2,43.9-2.3,65.9-3.5c2.7-0.1,4.4,0.4,6.1,2.9c1.4,2,4.5,3.4,7,3.8c4.6,0.8,9.3,0.6,14.9,0.8c-23.4,4.5-45.8,8.8-68.2,13.1
		c0,0.2,0.1,0.5,0.1,0.7c27.7-5,55.5-9.9,83.5-14.9c1.3,4.5,2.4,8,3.7,12.4c-30.3,1.8-60.1,3.5-89.8,5.3c0,0.3,0,0.7,0.1,1
		c29.6-1.7,59.3-3.4,89.3-5.1c1,8.5,1.2,16.8-5.9,22.6c-16.5,13.6-25.1,32-32,51.5c-3,8.6-5.2,17.7-12.6,24c-1,0.9-2.4,1.7-3.7,1.9
		c-25.7,2.4-51.4,4.7-77.2,7c-1.9,0.2-3.9,0-6.6,0c2.9-9.7,6.4-18.8,8.1-28.2c1.7-9.6,1.5-19.5,2.2-30.7
		C692.2,221.6,722.2,220.3,751.6,219z"/>
	<path class="st2" d="M312.5,340.5c7.6,1.4,7.8-3.2,8.3-7.9c2.7-25.7,5.9-51.3,17-75.1c7.1-15.3,15.6-29.5,29.4-39.7
		c2.1-1.5,5.1-2.7,7.7-2.6c11.1,0.7,22.4,1,33.2,3.3c23.1,4.9,45.6,23.1,49.9,54.6c2.9,21.5,1.2,42.6-6.3,63
		c-8,21.5-23.3,35.4-46,40.2c-19.5,4.1-38.9,4.6-58.3-1.1C329.9,369.9,319.7,357.5,312.5,340.5z M352.4,300.4
		c-0.1,17.7,3.8,31.9,12.3,44.5c8.7,12.7,20.6,19.9,36.5,17.9c11.6-1.4,21.8-6.2,29.9-14.7c23.1-24.3,25.2-63.1,10.7-89.3
		c-12.1-21.9-43.8-30.4-65.3-11.8C359.2,261.8,353.2,281.1,352.4,300.4z"/>
	<path class="st3" d="M154.2,317.5c-0.8,0.3-1.1,0.5-1.4,0.5c-10.3,0.2-10.2,0.2-11.9-9.8c-1.5-8.9-3.1-17.7-4.9-26.5
		c-1.7-8.4-5.6-12-14.2-12.9c-13.1-1.4-26.2-2.5-39.2-3.8c-0.2-0.4-0.5-0.7-0.5-1c-0.8-9.3-0.8-9.4-9.9-10.6
		c-9.7-1.4-19.5-2.2-29.2-3.8c-5-0.8-6.4,0.9-5.8,5.4c0.2,1.3,0,2.6,0,3.8c-4.8-0.4-9.3-0.8-14.9-1.2c0.2-5.4,0.5-12.4,0.8-18.7
		c3.7,2,6.8,4.1,10.2,5.2c15,4.7,30.5,7.1,46.2,7.7c55.6,2,111.3,3.4,166.9,0c24.6-1.5,49.1-3.8,73.7-5.6c9.7-0.7,16.6-6.3,23-12.8
		c1.5-1.5,3.3-2.6,5.8-3.3c-22.3,32.2-28.3,68.9-31.6,106.9c-1.9,0.1-3.5,0.3-5.1,0.3c-43.7,0.3-87.3,0.8-131,0.8
		c-11.6,0-23.2-1.8-34.8-3.1c-3-0.4-6.3-1.6-8.6-3.5c-5.2-4.4-11.1-5.7-17.5-6.4c-18.4-1.9-36.8-3.9-55.1-6
		c-4.1-0.5-8.1-1.8-12.2-2.6c-8.3-1.7-16.6-3.3-24.9-5c-1.7-0.4-3.4-1.1-5-1.7c0.1-0.8,0.1-1.6,0.2-2.4c3-0.2,6.6-1.5,9-0.4
		c12.4,5.9,25.5,8.7,39,10.2c17.7,2,35.5,3.6,53.2,5.3c3.6,0.4,7,0.5,9.5,4.3c1,1.6,4.3,2.1,6.7,2.3c36.4,3.4,72.9,3.2,109.3,0.6
		c11.6-0.8,23.4-1.1,34.8-2.9c7-1.1,13.8-4.4,20.6-6.9c3.3-1.2,3.3-4.5,4.3-7.5c4.7-14.9,10-29.6,15-44.5c1.5-4.5,0.3-5.6-4.4-5.3
		c-39.9,2.5-79.8,5-119.7,7.3c-7.3,0.4-14.7-0.2-22-0.1c-13,0.3-20.4,6.9-22.1,19.7c-0.6,4.8-1,9.6-1.4,14.4
		C154.6,308.5,154.5,313.1,154.2,317.5z"/>
	<path class="st0" d="M777.3,132.2c-0.5-1.2-0.7-2.6-1.5-3.6c-12.1-14.8-24.1-29.8-36.6-44.3c-19.1-22-44.1-32.8-72.4-36.3
		c-29.2-3.6-58.5-2.9-87.8,0.1c-16.5,1.7-30.2,9-40.4,21.6c-16,19.8-31.2,40.2-46.5,60.6c-6.3,8.4-7.7,9.3-19.3,7
		c1.1-1.4,2-2.7,3-3.9c21.9-26.2,43.8-52.4,65.7-78.6c1.4-1.7,1.9-4.3,3-6.4c0.5-0.9,1.3-1.9,2.2-2.4c3.4-1.7,6.8-4,10.4-4.7
		c11.8-2.2,23.3-5.9,35.6-5.1c25.7,1.7,51.5,2.8,77.3,4.9c14.8,1.2,28.3,7.2,41.7,13.2c2,0.9,2.8,4.1,4.7,5.3
		c7.1,4.5,12.7,12,22.6,10.9c1.1-0.1,2.6,1.4,3.7,2.3c19.4,15.9,38.9,31.9,58.3,47.9c1.4,1.1,2.8,2.2,4.7,2.7
		c-1.7-1.8-3.4-3.6-5.1-5.6c9.9-2,19.4-0.8,20,2.8c15.6-11.2,14.2-27.1,13.5-42.6c-2,0.7-3.9,1.9-5.7,1.9c-23.8,0.1-47.6,0.1-71.4,0
		c-1.4,0-2.7-1-4.1-1.5c0.1-0.5,0.2-1,0.3-1.5c5.4,0,10.8,0.1,16.2,0c17.5-0.2,35-0.2,52.5-0.9c8.1-0.3,16-2.3,24.1-3.2
		c10.8-1.3,13.6,0.7,14.9,11.4c1.1,8.9,1.4,17.9,2,26.9c0.3,4.4-2.6,6-6.1,7.3c-3.7,1.3-8.1,1.7-8.8,7c-7.1-1-14-1.9-20.8-2.9
		c-0.1,0.3-0.2,0.6-0.3,1c0.9,0.4,1.7,1.1,2.6,1.3c3.9,0.9,7.8,2,11.7,2.4c8.5,0.8,14.5,4.4,16.3,12.4c-0.9,3.2-1.7,6-2.7,9.3
		c-0.2,0-1.1,0.3-2.1,0.3c-20,0.7-39.9,1.2-59.9,2.1c-4.4,0.2-7.2-0.7-8.5-5.3c-0.6-2.1-2.1-4-3.2-6
		C779.7,137.2,778.5,134.7,777.3,132.2z M859.5,109.3c0-0.3,0-0.6,0-0.9c-7.7,0-15.4,0-23.1,0c0,0.3,0,0.6,0,0.9
		C844.1,109.3,851.8,109.3,859.5,109.3z M829.6,120.2c0,0.4,0.1,0.8,0.1,1.1c5.6,0,11.3,0,16.9,0c0-0.4,0-0.8,0-1.1
		C841,120.2,835.3,120.2,829.6,120.2z"/>
	<path class="st1" d="M645.7,131.1c-24.3,1.3-48.2,2.6-72.7,3.9c2.9-7.2,1.5-13.7-1.2-20.1c-1.9-4.5-5.2-7.5-10.3-7.4
		c-10.8,0.3-21.6,0.6-32.4,1.6c-3.4,0.3-6.6,2.8-11.3,4.9c0.5-3.1,0.1-6.4,1.6-8.2c9.8-12.6,19.5-25.3,30-37.2
		c7.6-8.6,18.2-12.4,29.4-13.4c16.1-1.4,32.2-2,48.3-3c3-0.2,4.3,0.9,5.3,3.8c8.2,23.5,11.2,47.9,13.4,72.5
		C646,129.1,645.8,129.8,645.7,131.1z"/>
	<path class="st1" d="M755.2,125.8c-33.2,1.8-65.6,3.5-97.5,5.2c-5.3-26.2-10.5-52.1-15.8-78.4c5.2,0.4,11.4,0.8,17.6,1.4
		c13.8,1.2,27.3,3.7,40.3,9c10.7,4.3,20.1,10.3,27.7,19.1C738.6,95,747.5,109.4,755.2,125.8z"/>
	<path class="st3" d="M293.3,319.7c-3.4-0.5-6.9-1.5-10.3-1.4c-21.3,0.7-42.6,1.7-63.9,2.5c-2.1,0.1-4.3,0-7.3,0
		c1.1-16.6,2.2-32.7,3.3-49.3c30.3-2.1,60.3-4.2,90.9-6.3c-1.9,8.5-3.6,16.6-5.4,24.7c-23.9-6.5-47.6-6.4-71.5-1.9
		c-5.3,1-9.1,3.7-12.5,9.6c4.9,1.9,9.5,5.1,14.2,5.1c15.3,0.2,30.6,0.1,45.8-1.6c8-0.9,15.5-5.4,23-8.2c0.2,9.1-6.5,18.4-3,29.7
		c-6.6,0.9-14,2.4-21.4,3c-44.6,3.7-89.1,5.7-133.8,1.2c-2.6-0.3-5-2.4-7.5-3.6c-2.2-1-4.4-2.4-6.7-2.6c-18.5-2-37.1-3.6-55.7-5.7
		c-13.3-1.5-26.2-4.4-38.4-10.2c-3.1-1.5-7.5-0.2-12.6-0.2c-1.9-2-1.4-4.6,2.4-7.1c2.3-1.5,4.1-3.6,6.5-5.6
		c34.5,15.3,72,15.8,109.2,17.7c0.3,0.6,0.6,1,0.7,1.4c2,8.4,2,8.3,10.4,9.2c36.4,3.8,72.9,2.9,109.3,0.9c3.5-0.2,11.9-0.7,23-1
		C286.7,319.8,290.7,319.7,293.3,319.7z"/>
	<path class="st0" d="M267.9,226.8c4.5,5.4,10.4,8.3,17.3,7.9c16.6-0.9,33.2-2.1,49.8-3.2c2.1-0.1,4.3-0.4,6.7-0.1
		c-5.2,6.2-10.8,11.9-19.4,12.7c-22.9,2.1-45.8,4.1-68.7,5.6c-59.8,3.9-119.6,3-179.4-0.1C60,248.9,46,245.1,32,242.1
		c-7-1.5-8.6-6.8-4.8-12.9c1.3-2.1,2.8-4.2,4.4-6c3.5-4,4.4-3.6,8.3,0.2c2.1,2.1,5.4,2.9,8.5,4.4c-0.4,1.2-1,2.7-1.5,4.3
		c-1.2,3.9-0.1,7.1,3.6,8.8c11.4,5.3,23.5,6.1,35.6,3.5c5-1.1,8.1-5,9.7-9.9c3.2-9.6,6.3-19.3,9.5-28.9c9.4,0,18.8,0,28.2,0
		c0,0.4,0,0.8,0,1.2c-6.7,0-13.3,0-19.8,0c0,7.9,0,15.3,0,23.3c6.1,0,11.9,0,17.6,0c3.7,0,7.4,0.2,11-0.2c3.1-0.3,6.1-1.3,8.9-1.9
		c-0.9,2.9-3,5-7.7,5c-11.8,0.1-23.6,0.8-35.3,2.2c1.7,0,3.4,0,5.2,0c23.7-0.5,47.3-1.2,71-1.5c4.3-0.1,8.7,1.2,13,2.3
		c9.4,2.4,19,2.9,28-0.6c11.3-4.4,22.2-9.8,33.6-14.9c2.4,1.7,5.6,4.1,8.9,6.5C268,227,267.9,226.8,267.9,226.8z M108.9,211
		c-6.1,11.1-8.1,20-6.6,22C104.4,226.1,106.7,218.5,108.9,211z"/>
	<path class="st2" d="M734.9,299.2c5.8-1.2,12.1,0,14.1-7.5c1.6-5.9,0.9-11.1-2.1-14.8c4.6-11.1,8.5-21.6,13.3-31.8
		c4.6-9.9,9.4-19.9,15.4-29c9.1-13.7,18.9-16.1,34.4-10c15.6,6.1,23.1,18.5,25.8,34.2c4,22.8,0.6,44.7-9.7,65.5
		c-6.6,13.3-17,21-32.1,21.7c-13.6,0.7-26.9-0.8-39.7-5.7C743.9,317.7,738.2,309.9,734.9,299.2z M770.6,270.8
		c-0.3,8.9,3.3,19.6,9,29.9c8.9,15.9,31,21.9,43.5,0.4c13.1-22.4,12.2-45.4,3.1-68.6c-2.9-7.3-8.5-12.5-16.2-15.4
		c-9.8-3.8-25.2,5.1-29.8,14.1C774.2,242.7,770.6,254.8,770.6,270.8z"/>
	<path class="st3" d="M480.4,300.8c1.5,7.7-6.2,8.1-10.2,11.5c0.2,0.5,0.3,1,0.5,1.5c1.9,0.2,3.9,0.7,5.8,0.5
		c25.5-2.6,51-5.1,76.5-7.9c52.3-5.8,104.3-13.9,157.1-15.5c9.8-0.3,19.6-1.7,29.4-2.5c2.6-0.2,5.2-0.3,8-0.4
		c-0.1,5.3-2.2,7.5-7.4,8.1c-65.4,7.1-130.8,14.5-196.1,21.7c-27.8,3.1-55.7,5.8-83.5,8.7c-0.6,0.1-1.3-0.1-1.9-0.1
		c-0.6-0.6-1.1-1.3-1.7-1.9c1.1-0.3,2.3-0.4,3.4-0.9c6.4-2.9,8.9-8.3,8.8-14.9C468.9,299.2,471,297.6,480.4,300.8z"/>
	<path class="st3" d="M210,320.9c-18.2-0.7-35.7-1.3-54.7-2c1.4-12.5,1.9-24.7,4.4-36.4c1.5-7.2,8.9-10.6,15.9-11
		c12.4-0.7,24.9-0.2,37.9-0.2C212.3,288,211.2,304,210,320.9z"/>
	<path class="st3" d="M839.3,274.9c0-9.6,0.5-19.3-0.2-28.8c-0.5-6.4-2-12.9-4.5-18.8c-5.9-14.5-17.1-23-32.7-25.3
		c-2.6-0.4-5.3-0.7-8.9-1.1c1.6-1.1,2.5-1.8,3.6-2.3c15.5-7,34.4-0.2,40.5,15.7c6.7,17.4,11,35.3,5.2,54.1c-0.4,1.3-0.6,2.6-0.8,3.9
		c0,0.2,0.3,0.5,1.1,1.5c0.8-3.3,1.8-6.1,2.2-8.9c0.7-5.1,3.4-7.8,8.3-9.3c5.9-1.7,11.6-4.1,17.4-6.3c1-0.4,1.9-1,2.5-2.4
		c-8.4,2.8-16.9,5.6-25.9,8.6c-0.9-19-2.8-37.5-14.8-53c5.8-2.9,7.3-2.9,10.1,2.7c3.2,6.4,7.6,7.6,13.9,5.9c3.7-1,7.5-1.6,11.2-2.4
		c3.7-0.8,7.4-1.6,12.4-2.7c0.6,16.4,1.5,32.1-6.7,46.5C867,263,849.3,274.5,839.3,274.9z"/>
	<path class="st4" d="M191.9,207.5c-0.9,1.8-2.1,3.5-2.5,5.4c-0.7,2.7-2,6.4-0.8,8.1c1.4,2,5.2,2.3,7.9,3.3c0.2-0.5,0.3-0.9,0.5-1.4
		c-0.3-0.3-0.6-0.7-0.9-0.8c-8.2-1-8.7-2.4-4.9-9.6c6.9-13.1,19-16.7,32.3-18.6c1-0.1,1.9-1,2.8-1.5c-0.3-0.5-0.6-0.9-0.9-1.4
		c6.9-1,14.1-1,20.5-3.4c9.5-3.6,19-2.3,28.5-2.8c3-0.1,6.2,0.4,6.6,3.8c0.3,2.3-1.1,4.9-2.2,7.1c0-7-0.9-9.3-7-9
		c-13.8,0.7-27.5,2.5-41.2,3.8c0.1,0.6,0.1,1.3,0.2,1.9c5-0.6,10-1.2,15-1.8c0.2,0.7,0.3,1.3,0.5,2c-11.8,1-23.5,2.1-33.6,9.4
		c5.1,0.6,7.1,4.3,8.1,8.3c1,4.1,1.2,8.4,1.7,12.1c3.1-4.4,1.8-10.7-5.8-22.4c9.4-2.2,18.3-4.2,27.1-6.2c0.3,0.6,0.7,1.2,1,1.8
		c-3.7,7.6-6.9,15.5-11.3,22.6c-1.7,2.8-6.1,4-10.5,6.7c2.5-0.5,3.5-0.6,4.5-0.8c0.3,0.4,0.5,0.8,0.8,1.3c-2.6,1.5-5,3.4-7.7,4.5
		c-2.3,0.9-4.9,1.2-7.4,1.2c-20.2,0.1-40.4,0-60.3,0c9.4-24.4,30.2-32.6,53.7-35.2c-2.8,1.7-6.4,4-10.1,6.2c0-0.7,0-1.4,0-3.4
		c-5.1,6.3-10.8,11-13.3,17c-3.5,8.4-10.2,9.4-17.3,11.1c-3.1,0.7-6.2,1.6-9.4,2.5c0.1,0.4,0.2,0.9,0.3,1.3
		c10.9-1.8,21.4-8,33.1-3.8c-1-1-2.1-1.4-3.1-1.6c-5.8-1-6.7-2.9-3.3-7.7C186.2,214,189.1,210.9,191.9,207.5z M211.5,203.2
		c-5.6,5.2-6.6,11.5-3.6,17c2.4,4.4,7,6.3,12.1,5C206.9,220.4,205.1,216.2,211.5,203.2z"/>
	<path class="st5" d="M377.3,211.5c30.6-18.5,75.5-9.5,90.8,31.7c6.4,17.1,6.1,34.6,2.9,52.2c-0.2,0.9-0.5,2.2-1.1,2.6
		c-3.7,2.4-3,5.9-2.7,9.4c0.5,6-1.9,10.5-7.6,13.6c0.3-1.7,0.6-3.4,0.8-5c2.5-15.7,3-31.5,0-47.2c-5.7-29.2-27.5-50.2-57-54.6
		C395.1,212.9,386.6,212.4,377.3,211.5z"/>
	<path class="st0" d="M515.6,111.5c0.5,2.7,0.9,4.4,1.3,6.6c13.9-11.1,30-7.7,45.4-7.9c2.3,0,5.2,2.3,6.7,4.3
		c1.7,2.5,2.6,5.8,3.1,8.8c1.3,8.5-0.1,10.9-8.5,12.7c-13.7,2.9-27.4,5.5-41.2,7.9c-9.5,1.6-19.2,2.7-28.8,4c-1.6,0.2-3.3,0-5.3,0
		c0-2.9,0-5.7,0-8.8c6.8,0.1,10.9-4.2,14.5-9.5C506.8,123.7,511,117.9,515.6,111.5z M515.9,121.5c-2.4,6.6-0.4,13.9,4.2,16.8
		C518.8,133,517.3,126.9,515.9,121.5z"/>
	<path class="st0" d="M777.3,132.2c1.2,2.5,2.4,5,3.6,7.6c1.3,3.5,2.5,7.1,3.9,10.9c-3.8,0.9-6.4,0.8-8.9-3.3
		c-1.5-2.5-5.4-4.2-8.5-5s-6.6-0.3-9.9-0.1c-6.9,0.4-10.1,3.5-10.9,11.1c-27.7,1.6-55.5,3.1-83.2,4.7c-1.7-6.3-3.3-12-5-18.2
		c1.5-0.2,2.9-0.6,4.3-0.7c36.5-2.4,73.1-4.8,109.6-7.1C774,132,775.7,132.2,777.3,132.2z"/>
	<path class="st3" d="M745.2,280.8c-89,10.5-178.1,20.9-267,31.4c1.8-3.6,3-6.8,5-9.4c0.9-1.3,3.2-2,5-2.1c30-2.9,60-5.7,90-8.6
		c51.9-4.9,103.7-9.8,155.6-14.7c4-0.4,8.2-1.5,11.6,1.6C745.2,279.5,745.2,280.1,745.2,280.8z"/>
	<path class="st6" d="M80.5,298.5c-13.2-2.1-25.6-4-38.1-6.1c-1-0.2-2.5-1.9-2.5-2.9c-0.2-12.4-0.1-24.9-0.1-38
		c9.7,1.2,19.6,2.3,29.4,3.8c11.2,1.7,10.4-1,10.7,11.8c0.2,8.6,0.4,17.3,0.6,25.9C80.5,294.7,80.5,296.3,80.5,298.5z"/>
	<path class="st0" d="M138.7,308c-32.8-2.1-65.4-1.9-96.3-13.8c5,0.9,10,1.8,15.1,2.7c5.1,0.9,10.2,1.7,15.3,2.5
		c10,1.7,10,1.7,9.9-8.2c0-4.7-0.1-9.3-0.1-14c0-0.3,0.3-0.6,0.6-1.3c12.7,1.2,25.6,2.4,38.5,3.6c0.7,0.1,1.3,0.2,2,0.3
		c10.6,1.1,10.7,1.1,12.4,11.9C136.9,297,137.7,302.2,138.7,308z"/>
	<path class="st0" d="M857.9,164.7c1.1,0.2,3,0.1,3.2,0.5c3,8.8,9.3,16.7,7.4,27.6c-8.8,1.7-17.9,3.6-27,5.2
		c-0.9,0.2-2.3-0.5-2.9-1.2c-12.6-15.1-28.1-18.5-46.6-11.5c0-3.3,0-6.5,0-10.6c6.4-0.5,13.1-1.1,19.8-1.6c10.1-0.8,20.3-1,30.3-2.6
		c5.5-0.9,10.6-4.1,15.8-6.2C858,164.3,857.9,164.7,857.9,164.7z"/>
	<path class="st7" d="M84.6,239.3c-7.2-1.2-13.1-1.8-19-3.1c-5.9-1.4-7.8-5.6-5-10.9c4-7.3,8.2-14.5,12.6-21.5
		c0.8-1.3,2.8-2.6,4.3-2.5c5.8,0.2,11.6,0.9,17.4,1.6c3.4,0.4,5.4,2.5,4.4,5.8c-2.6,8.9-5.2,17.8-8.5,26.4
		C90,237.2,86.3,238.2,84.6,239.3z"/>
	<path class="st3" d="M347.4,228.5c26.1-39.5,75.1-41.9,102-25c16.3,10.2,25.2,25.3,28.4,43.8c2.7,15.6,1.3,31.2-2.2,46.6
		c-0.3,1.1-0.9,2.2-1.4,3.3c-0.4-0.1-0.8-0.2-1.3-0.3c0.2-1.5,0.3-3,0.5-4.5c3.4-19.3,3-38.2-5.5-56.2c-14.8-31.7-48-44.5-80.4-33.4
		c-13.5,4.6-24.9,12.6-34.4,23.2c-1.4,1.5-3.3,2.5-5,3.7C348,229.3,347.7,228.9,347.4,228.5z"/>
	<path class="st8" d="M490.5,135.7c4.4-6.2,8.6-12.6,13.2-18.7c11.4-14.7,22.8-29.5,34.7-43.9c10.9-13.2,24.7-21.3,42.3-22.9
		c30.6-2.7,61.2-3.6,91.7,1c25.7,3.9,48,14.8,65.2,34.8c10.9,12.6,21.4,25.5,32,38.2c-0.2,0.5-0.4,1-0.6,1.6
		c-3.4,0-6.9,0.3-10.2-0.2c-1.2-0.2-2.4-1.9-3.2-3.2c-6.1-10.3-11.8-20.9-18.2-30.9c-13.7-21.5-34.1-32.9-58.6-37.1
		c-32.7-5.7-65.6-5.9-98.6-1.7c-15.2,2-28.3,8.1-37.8,20.2c-11.3,14.4-22,29.2-33,43.9c-3.8,5.1-7.3,10.4-11.2,15.3
		c-1.6,2-4.2,3.4-6.3,5C491.4,136.6,491,136.2,490.5,135.7z"/>
	<path class="st8" d="M537.8,145c18.3-5.3,36.9-8.5,56-8.9c15.8-0.3,31.6-1.5,47.4-2.2c2.6-0.1,5.2,0.7,7.9,0.6c4-0.2,8-1,12.1-1.2
		c20.1-1.2,40.3-2.2,60.4-3.3c15.3-0.9,30.6-1.8,45.9-2.6c1.7-0.1,3.4,0.4,5.1,0.6c-0.1,0.6-0.1,1.1-0.2,1.7
		C694.2,134.8,616,139.9,537.8,145z"/>
	<path class="st0" d="M857.9,164.7l0.1-0.4c-13.4,7.5-28.4,6-42.8,7.6c-7.7,0.9-15.6,1-23.6,1.5c-1.1-3.7-2.1-7.2-3.3-11.4
		c5.2-0.7,10-1.7,14.9-1.9c17.3-0.9,34.6-1.5,51.9-2.1c1.4,0,3.5,1.1,4.1,2.2C859.6,161.3,858.4,163.2,857.9,164.7z"/>
	<path class="st9" d="M293.3,292.8c-16,11-62.9,12.7-74.6,2.8c2.7-1.9,5-4.5,7.8-5.1c22.6-5.5,45.4-5.2,68.1-0.6
		c0,0.7,0.1,1.3,0.1,2c-24.1,1.4-48.2,2.8-72.3,4.3C245.7,297.6,268.9,294.8,293.3,292.8z"/>
	<path class="st0" d="M163.1,208.7c-5.6,6.8-10.3,12.6-15.1,18.3c-0.5,0.6-1.8,1-2.7,1c-9.6,0.1-19.3,0-29.2,0c0-6.7,0-13,0-19.4
		C131.3,208.7,146.5,208.7,163.1,208.7z"/>
	<path class="st10" d="M248.6,190.4c6.2-0.7,12.6-1.9,19.1-2.1c2.9-0.1,5.9,1.4,8.9,2.2c-0.9,2.7-1.2,5.8-2.8,8.1
		c-6.5,9.1-15.1,15.9-25,21.1c-6.4,3.3-13.3,5.9-19.9,8.8c-0.3-0.5-0.6-1-0.9-1.6c2.9-2.2,5.9-4.4,8.8-6.7
		c5.7-4.5,12.1-8.4,16.7-13.8c4-4.7,2-8.3-5.1-11.2c1.1,1.2,1.4,1.8,2,2.1c4,2,4.4,5.5,1.9,8.3c-4.3,4.8-9.4,9-14.2,13.4
		c-0.5-0.4-0.9-0.9-1.4-1.3C240.5,208.6,244.5,199.7,248.6,190.4z"/>
	<path class="st3" d="M740.3,274.2c9.4-8.6,11.2-21,15.7-32c6.6-16.2,14.3-31.5,28.2-42.9c2.7-2.2,4.1-5.9,6.2-8.9
		c0.8-1.2,1.5-2.6,2.7-3.3c14.1-8.2,35.7-2.7,44.2,11.5c-4.2,1.5-7.7,2-12.1-0.4c-11.5-6.3-23.3-5.6-34.7,1.1
		c-14.2,8.3-22.5,21.5-29,36c-3.6,8-6.1,16.6-9.6,24.7c-1.9,4.6-4.6,8.8-7.2,13.1c-0.7,1.1-2.3,1.6-3.5,2.4
		C741,275,740.6,274.6,740.3,274.2z"/>
	<path class="st0" d="M573.6,36.6c-10.3,1.4-20.7,2.7-29.8,8.7c-1,0.6-2.5,0.7-3.8,0.5c-42.1-5-84.1-3.9-126,2.8
		c-1.1,0.2-2.3,0.2-3.8,0.3C423.3,41.7,520.1,36.5,573.6,36.6z"/>
	<path class="st0" d="M857.6,156.2c-23.1,1.2-46,2.4-69.3,3.6c-0.3-2.1-0.6-4.7-0.9-7.7c11-0.4,21.8-0.8,32.5-1.2
		c10.1-0.4,20.3-0.4,30.4-1.1C855.4,149.5,857.9,150.9,857.6,156.2z"/>
	<path class="st8" d="M654.4,132.6c-4.2,1.1-6.1,0.2-6.4-3.7c-2.1-25.2-5.7-50.2-14.2-74.3c-0.2-0.4-0.1-1-0.2-1.6
		c4-1.9,5.1,0.6,6.2,3.7c7.2,20.9,10.5,42.6,13.2,64.4C653.5,124.9,653.9,128.7,654.4,132.6z"/>
	<path class="st0" d="M88.5,241.3c-1.3,0.5-3.7,2.3-6,2.2c-9.1-0.5-18.3-0.8-27.1-2.6c-8-1.6-8.9-5.1-4.9-12.4
		c2.7-5,5.6-9.8,8.5-14.7c4.2-6.9,4.2-6.9,12.6-12.3c-2.7,4.6-4.7,8-6.7,11.5c-2.1,3.8-4.4,7.5-6.3,11.3c-3.3,6.4-1.1,12.3,6,13.8
		C72.6,239.8,80.9,240.3,88.5,241.3z"/>
	<path class="st0" d="M867.8,194.6c3.5,3.8,6.2,6.6,9.5,10.2c-4.8,1.1-9.4,2.1-13.9,3.1c-1.3,0.3-2.6,0.5-3.9,0.7
		c-14,2.3-10.8,3-18.2-8.8C850.5,198,859.5,196.2,867.8,194.6z"/>
	<path class="st4" d="M52.6,189.3c0.2,4.7-4.7,9.7,1,12.9c-1.5,7.6-2.9,14.8-4.4,22.4c-5.7,1.3-8.1-0.9-9.1-7.5
		C38.5,205.3,43.5,196.7,52.6,189.3z"/>
	<path class="st0" d="M713.2,51.1c1.2,0,2.7,0,4.7,0c-0.5,0.9-0.8,1.7-1.4,2.9c1.2-0.3,2-0.4,3.2-0.7c-0.8,1.1-1.5,1.9-2.6,3.4
		c1.2-0.3,1.7-0.2,2-0.5c2.1-1.8,4.2-3.6,6.3-5.4c0.5-0.4,1.3-1,1.6-0.8c4.1,1.8,9,2.9,12.1,5.9c3.2,3.1,1.6,8-0.7,11.5
		c-0.7,1.1-4.3,1.5-5.8,0.8C724.8,64.1,716.5,60.4,713.2,51.1z"/>
	<path class="st0" d="M25.5,267.3c1-0.1,1.3-0.2,1.6-0.2c10.6,3,10.6,3,10.7,13.9c0.1,4.1,0,8.2,0,12.7c-2.8-1.3-5.7-2.4-8.5-3.9
		c-0.9-0.5-2-1.6-2.1-2.5C26.6,280.8,26.1,274,25.5,267.3z"/>
	<path class="st3" d="M323.1,268.6c-5.1,14.5-9.9,28.9-15.3,43.1c-1,2.6-4.3,4.2-7.4,5.7c0.1-0.8,0-1.7,0.4-2.3
		c8.9-10.8,10.1-24.7,14.7-37.2c1.3-3.6,1-8.2,5.8-9.6C321.6,268.2,321.9,268.4,323.1,268.6z"/>
	<path class="st0" d="M766.5,159.4c2.2-1.3,4.5-2.4,6.5-3.8c0.9-0.6,2-2,1.9-2.9s-1.4-1.9-2.4-2.6c-1.7-1.2-3.8-2-5.3-3.4
		c-3.4-3.4-10.7-2.2-12.3,2.2c-0.1,0.3-0.1,0.7-0.2,1c-2.9,6.5-2.9,6.5,4.4,6.4c2.6,0,5.2,0,7.8,0c0.1,0.4,0.1,0.8,0.2,1.2
		c-1.4,0.3-2.9,0.6-4.3,0.8c-2.8,0.5-5.6,1.3-8.3,1.2c-1.4,0-3.6-1.2-4-2.3c-0.9-2.8-2.3-6.7-1.1-8.8c4.5-7.7,12.5-4.1,19.1-4.3
		c4.9-0.1,7,4.1,8.1,8.3C778.5,159,775.7,161.1,766.5,159.4z"/>
	<path d="M82.2,274.2c0.1-2.6,0.2-4.4,0.4-6.6c7.7,0.6,15.1,1.2,22.5,1.7c0,0.1,0,0.2,0,0.4c-7.1,0-14.3,0-21.4,0
		c0,0.4-0.1,0.7-0.1,1.1c11.5,0.6,22.9,1.2,34.4,1.8c0.3,0.5,0.6,0.9,0.9,1.4c-1.2,1.2-2.4,3.4-3.5,3.3
		C104.4,276.5,93.5,275.3,82.2,274.2z"/>
	<path class="st3" d="M746.7,281.3c0.5,1.7,0.9,2.9,1.5,5c-18.6,1.3-36.8,2.5-54.9,3.7c0-0.2,0-0.4-0.1-0.6
		C710.8,286.7,728.4,284,746.7,281.3z"/>
	<path class="st0" d="M868.3,177.2c-4.6-11.1-10.5-21.8-10-34.4C863.8,153.7,870.8,164,868.3,177.2z"/>
	<path class="st3" d="M307.6,265c5.3-0.4,10.5-0.8,15.7-1.1c0,0.3,0.1,0.7,0.1,1c-3.1,0.2-6.1,0.7-9.2,0.7c-3.3-0.1-4.5,1.3-5.2,4.5
		c-3.4,16.1-7,32.1-10.5,48.2c-0.1,0.2-0.5,0.4-0.7,0.6c-1.5-2-1.5-2,1.8-17.1c1.4-6.2,2.7-12.3,4-18.5
		C304.9,277.3,306.3,271.3,307.6,265z"/>
	<path class="st3" d="M302,308.9c2.7-12.1,5.3-24.2,8.3-36.2c0.3-1.3,2.8-2.1,4.2-3.1c0.5,0.4,1,0.8,1.5,1.3
		c-4.1,12.9-8.2,25.8-12.3,38.6C303.2,309.3,302.6,309.1,302,308.9z"/>
	<path class="st11" d="M245.3,135.1c3.2,0,6.2,0,9.4,0c0,4.2,0,8.1,0,12C243.1,148.6,245.2,148.3,245.3,135.1z"/>
	<path class="st11" d="M257,148.1c0-4.7,0-8.4,0-12.2c4.8-0.2,10.9,3.5,11.4,7.5c0.2,1.4-2,3.9-3.6,4.5
		C262.7,148.6,260.1,148.1,257,148.1z"/>
	<path class="st11" d="M221.9,146.5c-3.4,0-6.2,0-9.3,0c0-3.8,0-7.3,0-11.3c3,0,6,0,9.3,0C221.9,139,221.9,142.7,221.9,146.5z"/>
	<path d="M253.2,219.6c-16.8,9.9-33.8,19.9-54.9,13.6C218.2,234.9,235.9,228.4,253.2,219.6z"/>
	<path class="st11" d="M224.2,134.8c3.1,0,5.7,0,8.5,0c0,4,0,7.8,0,11.9c-2.8,0-5.5,0-8.5,0C224.2,142.7,224.2,139,224.2,134.8z"/>
	<path class="st11" d="M243.7,147.1c-3.1,0-5.7,0-8.7,0c0-4,0-7.9,0-12.2c2.3,0,4.9,0,8.2,0C243.3,138.8,243.5,142.8,243.7,147.1z"
		/>
	<path d="M191.9,207.5c-2.8,3.3-5.7,6.5-8.2,10c-3.5,4.9-2.5,6.8,3.3,7.7c1.1,0.2,2.1,0.6,3.1,1.6c-11.7-4.2-22.1,2-33.1,3.8
		c-0.1-0.4-0.2-0.9-0.3-1.3c3.1-0.8,6.2-1.7,9.4-2.5c7.1-1.6,13.8-2.7,17.3-11.1c2.5-6,8.2-10.7,13.3-17c0,2,0,2.7,0,3.4
		C195,204,193.5,205.8,191.9,207.5z"/>
	<path class="st0" d="M102.5,206.2c-4.4-6.6-23.1-9.8-33.9-6.8c1.6-1,3.3-2.9,4.9-2.8c8.9,0.5,17.8,1.3,26.6,2.5
		C104.1,199.8,104.1,202.9,102.5,206.2z"/>
	<path class="st9" d="M484.7,200.7c-3,0.8-5.9,1.6-8.9,2.4c-1-1.1-2.1-2.1-2.9-3.3c-1.4-2.5-1.1-4.5,2.1-5.1
		c1.8-0.3,3.6-0.6,5.4-0.5C485.7,194.7,486.2,195.5,484.7,200.7z"/>
	<path class="st11" d="M210.8,135.4c-0.2,3.8-0.4,7.2-0.6,10.9c-2.4,0-4.5,0-6.6,0C200.2,138.5,202.1,135.2,210.8,135.4z"/>
	<path class="st0" d="M776.5,162.8c1.2-4,2.1-6.9,3.2-10.6c1.7,0.2,4.7-0.4,5.8,0.8c1.3,1.4,1.8,5.9,1,6.3
		C783.6,161.1,780.1,161.7,776.5,162.8z"/>
	<path class="st0" d="M51.8,219c1.5-5.3,3.1-10.6,4.7-16.3c2.1,0.3,3.8,0.6,6.3,1c-3.5,5.7-6.7,10.7-9.8,15.8
		C52.6,219.3,52.2,219.1,51.8,219z"/>
	<path d="M132.9,279c-4.3-0.4-8.3-0.7-12.7-1.1c0-1.7,0-3.2,0-4.7C129.3,272.4,130.6,273,132.9,279z"/>
	<path class="st8" d="M773.3,154c-6.4,0-12.7,0-19.2,0C756.6,151.5,768.5,150.7,773.3,154z"/>
	<path class="st0" d="M288.7,114.5c-4,2.8-7.5,5.3-11.2,7.8C275.6,116.8,280.3,113.5,288.7,114.5z"/>
	<path class="st8" d="M766.7,149.9c-3.4,0-6.5,0-9.5,0c-0.2-0.4-0.5-0.9-0.7-1.3c1.3-0.7,2.6-1.8,4-2
		C763.1,146,765.8,145.9,766.7,149.9z"/>
	<path d="M37,269.9c-3-2.4-5-4-7.1-5.7c0.3-0.4,0.7-0.9,1-1.3C33.3,264.4,38.4,262.3,37,269.9z"/>
	<path class="st12" d="M528.1,67.8c-3.8,4.4-7.5,8.8-11.3,13.2c-0.3-0.3-0.6-0.5-0.9-0.8c3.7-4.4,7.5-8.8,11.2-13.2
		C527.4,67.2,527.7,67.5,528.1,67.8z"/>
	<path d="M175.7,158.7c-6,1.5-11.9,3.2-17.9,4.6c-14.8,3.5-29.7,6.9-44.6,10.1c20.5-6.4,41.5-10.8,62.7-14.6L175.7,158.7z"/>
	<path d="M421,189.6c-16,1.2-32,2.4-48,3.6c0-0.2,0-0.5-0.1-0.7c16-1.3,32-2.6,48-3.9C421,188.9,421,189.2,421,189.6z"/>
	<path d="M208.2,166.2c8.2-2.6,16.4-5.1,24.6-7.7c0.1,0.5,0.3,1,0.4,1.5C224.8,162,216.4,164,208.2,166.2L208.2,166.2z"/>
	<path d="M425.4,178.7c-9.4,0-18.8,0-28.2,0c0-0.1,0-0.2,0-0.3c9.4,0,18.8,0,28.3,0C425.4,178.5,425.4,178.6,425.4,178.7z"/>
	<path d="M208.1,166.1c-8.3,2.5-16.6,4.9-24.9,7.4c-0.1-0.5-0.3-1-0.4-1.5C191.3,170,199.7,168.1,208.1,166.1
		C208.2,166.2,208.1,166.1,208.1,166.1z"/>
	<path d="M345.5,185.2c7.6-1.2,15.2-2.4,22.9-3.5c0,0.3,0.1,0.7,0.1,1c-7.7,1.1-15.3,2.3-23,3.4
		C345.5,185.8,345.5,185.5,345.5,185.2z"/>
	<path d="M175.8,158.8c7.9-1.7,15.7-3.4,23.6-5.1c0.1,0.4,0.2,0.9,0.2,1.3C191.6,156.2,183.7,157.5,175.8,158.8
		C175.7,158.7,175.8,158.8,175.8,158.8z"/>
	<path d="M635.1,171.1c-4.8-0.4-9.6-0.7-14.4-1.3c-5.2-0.7-8.7-5.2-8.8-11.1c-0.1-5.3,3.5-7.3,8-7.8c7.6-0.8,15.1-1.8,22.7-1.9
		c6.6-0.1,9.9,4.5,10.2,12.3c0.2,4.9-3.7,8.8-9.7,9.4c-2.6,0.3-5.3,0-8,0C635.1,170.9,635.1,171,635.1,171.1z M624.2,151.6
		c-5.3,1.3-10.2,1-10.7,6.6s3.4,9.8,9.7,10.3s12.6,0.6,19,0.5c5.6-0.1,8.9-3.1,9-7.4c0.2-6.8-2.5-10.4-8.6-11.2
		c-2.6-0.3-5.3-0.3-7.8-0.4c3.3,2.8,6.6,5.4,9.6,8.3c0.6,0.6,0.7,2.4,0.3,3.2c-3.4,6.5-12,8.6-19.5,4.8c4.7-2.1,10.9,3.4,15.7-3.2
		c-6.9,0-12.8,0.1-18.8,0c-2.7,0-4.4-0.9-2.5-4C620.9,157.1,622.2,154.9,624.2,151.6z M644.3,160.9c-4.5-3-19.1-2.6-23.3,0
		C628.5,160.9,635.7,160.9,644.3,160.9z M623.4,157.6c5.4-0.3,10-0.6,15-0.9c-1.6-5.3-5.4-3.9-8.3-3.7
		C627.6,153.1,624.1,152.5,623.4,157.6z"/>
	<path d="M352.4,300.4c0.8-19.3,6.9-38.5,24.1-53.5c21.5-18.6,53.2-10.1,65.3,11.8c14.5,26.2,12.3,65-10.7,89.3
		c-8.1,8.5-18.3,13.3-29.9,14.7c-15.9,1.9-27.8-5.2-36.5-17.9C356.1,332.3,352.3,318.1,352.4,300.4z M448.6,297.5
		c-0.1-15.8-3.5-28.9-9.2-38.6c-11.8-20.1-41.3-26.7-61.1-10.7c-25.8,20.8-32.7,69.9-8.9,99.2c7.7,9.5,18,14.8,30.7,13.3
		c13.7-1.6,25-7.7,33.4-18.8C443.7,328.4,448.4,313.1,448.6,297.5z"/>
	<path d="M859.5,109.3c-7.7,0-15.4,0-23.1,0c0-0.3,0-0.6,0-0.9c7.7,0,15.4,0,23.1,0C859.4,108.7,859.4,109,859.5,109.3z"/>
	<path d="M829.6,120.2c5.7,0,11.4,0,17.1,0c0,0.4,0,0.8,0,1.1c-5.6,0-11.3,0-16.9,0C829.7,120.9,829.6,120.6,829.6,120.2z"/>
	<path d="M108.9,211c-2.3,7.6-4.5,15.1-6.6,22C100.8,231,102.8,222.1,108.9,211z"/>
	<path d="M770.6,270.8c0-16,3.6-28.1,9.6-39.7c4.7-8.9,20-17.8,29.8-14.1c7.6,2.9,13.3,8.1,16.2,15.4c9.1,23.2,10,46.2-3.1,68.6
		c-12.6,21.5-34.7,15.5-43.5-0.4C773.9,290.4,770.3,279.7,770.6,270.8z M797.3,219.6c-5.8,1.3-10.2,4.6-13.7,9.3
		c-14.8,20.1-15.3,52.7-1.1,73.1c2,2.8,4.5,5.5,7.3,7.4c9.3,6.5,20.8,4.7,28.2-4c15.1-17.9,18-54.6,5.7-74.7
		c-2.3-3.7-5.6-7.2-9.1-9.7C809.4,217.3,803.4,216.1,797.3,219.6L797.3,219.6z"/>
	<path d="M211.5,203.2c-6.4,13-4.6,17.2,8.5,22c-5.1,1.3-9.7-0.6-12.1-5C204.9,214.7,205.9,208.4,211.5,203.2z"/>
	<path d="M515.9,121.5c1.4,5.5,2.8,11.5,4.2,16.8C515.5,135.3,513.6,128,515.9,121.5z"/>
	<path class="st0" d="M624.2,151.6c-2,3.2-3.3,5.4-4.7,7.6c-1.9,3-0.2,3.9,2.5,4c6,0.1,11.9,0,18.8,0c-4.8,6.6-11,1.1-15.7,3.2
		c7.5,3.7,16.1,1.7,19.5-4.8c0.4-0.8,0.3-2.6-0.3-3.2c-3.1-2.9-6.4-5.6-9.6-8.3c2.5,0.1,5.2,0.1,7.8,0.4c6.1,0.8,8.8,4.4,8.6,11.2
		c-0.1,4.3-3.4,7.3-9,7.4c-6.3,0.1-12.7,0-19-0.5s-10.2-4.7-9.7-10.3C614,152.7,618.8,152.9,624.2,151.6z"/>
	<path class="st8" d="M644.3,160.9c-8.5,0-15.8,0-23.3,0C625.1,158.4,639.8,157.9,644.3,160.9z"/>
	<path class="st8" d="M623.4,157.6c0.7-5.1,4.2-4.5,6.8-4.6c2.9-0.1,6.7-1.6,8.3,3.7C633.4,157,628.8,157.3,623.4,157.6z"/>
	<path d="M448.6,297.5c-0.2,15.6-4.9,30.9-15.1,44.4c-8.4,11.1-19.8,17.2-33.4,18.8c-12.7,1.5-23-3.8-30.7-13.3
		c-23.8-29.3-16.9-78.4,8.9-99.2c19.8-15.9,49.3-9.3,61.1,10.7C445.1,268.6,448.5,281.7,448.6,297.5z M446.5,300.7
		c0.1-15.7-2.6-26.7-7.7-37.2c-12.2-24.9-43-30.1-62.7-10.6c-22.6,22.4-26,65.3-7.2,91c10.7,14.7,28.5,18.8,44.9,10.6
		C437.5,342.4,444.6,321.1,446.5,300.7z"/>
	<path d="M797.2,219.8c6.1-3.6,12.1-2.4,17.3,1.3c3.6,2.5,6.8,6,9.1,9.7c12.4,20,9.4,56.7-5.7,74.7c-7.4,8.7-18.8,10.5-28.2,4
		c-2.8-2-5.3-4.6-7.3-7.4c-14.2-20.4-13.7-53,1.1-73.1c3.5-4.7,7.9-8.1,13.7-9.3c-1.5,1.3-2.9,2.6-4.5,3.7
		c-6.1,4.1-11,9.1-13.5,16.2c-3.9,11.4-6.6,23.2-5.1,35.3c1.5,11.8,4.5,23.3,14.1,31.6c8.8,7.6,18.6,7.4,26.8-0.8
		c3.2-3.2,6-7.2,8-11.3c8.8-18.3,8.1-37.1,1.9-55.9c-4-12-13.2-17.8-26-18.1C798.4,220.3,797.8,220,797.2,219.8z"/>
	<path d="M446.5,300.7c-1.9,20.4-9,41.8-32.8,53.8c-16.3,8.2-34.2,4.1-44.9-10.6c-18.8-25.7-15.4-68.5,7.2-91
		c19.7-19.5,50.5-14.3,62.7,10.6C444,273.9,446.7,285,446.5,300.7z M430.6,339.5c4.6-7.6,8.9-15.3,10.6-24.5
		c-3.3-1-6.2-1.9-10.3-3.1c2,1.7,3.1,2.7,4.2,3.7c-0.1,0.2-0.2,0.3-0.4,0.5c-1.8-0.7-3.5-1.4-4.9-2c-6.7,6.9-7.6,13.8-1.3,21.1
		C429.4,336.3,429.9,338,430.6,339.5c-1.5-1.4-3.5-2.5-4.5-4.2c-4-7-7.8-14.2-11.7-21.5c-1.2,1.1-2.5,2.3-3.1,2.8
		c5.4,8.8,10.5,17,15.5,25.2C428.2,341,429.4,340.3,430.6,339.5z M405.1,355.2c-0.5-1.8-1.5-3.6-1.4-5.4c0.4-9.7,1-19.4,1.5-27.7
		c-5.6-2-10.7-3.9-15-5.4c-2.3,5-4.7,10.3-7.2,15.5s-5.3,10.2-8,15.5c8.9,7.6,18.6,11,30,7.5c7.9-1.5,14.2-6.1,20.2-11.2
		c-4.7-7.8-9.2-15.3-13.7-22.8c-0.4,0.2-0.8,0.4-1.2,0.7c3.2,6,6.5,12,9.7,18c-0.3,0.2-0.5,0.3-0.8,0.5c-1.7-2.5-3.3-4.9-4.8-7.2
		c-6.9,2-9.2,6.3-8.6,12.8C406.2,348.9,405.4,352.1,405.1,355.2z M387,300.4c0.6,2.5,0.9,6.3,2.4,9.5c4.3,9.4,14.7,11.3,21.6,4.2
		c6.1-6.4,7.5-20.6,2.7-28c-4.1-6.3-10.2-8-16.8-4.6C389.6,285.2,387.8,291.9,387,300.4z M443.2,307.4c0-9.3,0-17.9,0-26.8
		c-12.6,4.1-13.7,5.7-12.6,17c0.2,2,0.3,3.9,0.5,6.2C435.1,305,439,306.1,443.2,307.4z M359.4,315c6.1-3.9,11.2-6.9,16.1-10.3
		c3.2-2.2,2.8-7.5-0.8-8.9c-4.7-1.9-9.6-3-15.3-4.7C359.4,299.2,359.4,306.4,359.4,315z M433.6,274.4c0.2,0.2,0.4,0.5,0.6,0.7
		c-1.3,1.1-2.6,2.3-3.9,3.4c3.3-0.8,6-2.2,8.6-3.9c0.7-0.4,1.4-1.7,1.2-2.3c-2.4-7-5.3-13.7-11.1-19c-7.8,12.6-7.9,15.6-0.8,24.1
		C429.9,276.5,431.8,275.5,433.6,274.4z M413.8,259.6c1.5-2.6,2.8-4.9,4.1-7.2c0.3,0.2,0.7,0.3,1,0.5c-2.3,4.8-4.5,9.6-6.8,14.4
		c0.3,0.1,0.6,0.3,0.9,0.4c3.3-6.2,6.6-12.4,10.5-19.7c-6.5-2-12.3-3.7-18.3-5.5C403.3,254.6,403.4,254.8,413.8,259.6z M361.2,283.1
		c5,1.4,8.7,2.9,12.6,3.5c2,0.3,4.6-0.4,6.2-1.6c0.8-0.6,0.4-3.6-0.3-5.2c-1.9-4.2-4.2-8.1-6.9-13.4
		C368.6,272.4,365.2,277.4,361.2,283.1z M402.6,243.5c-0.8,0-1.5,0-2.3,0c0,11.3,0,22.7,0,33.2c4.5,1.4,9,2.8,12.9,4
		c4.3-9.4,8.8-19.4,13.4-29.5c-0.6-0.3-1.2-0.5-1.8-0.8c-0.8,1.4-1.6,2.7-2.4,4.1c-3.7,6.7-7.2,13.5-11.2,20
		c-0.8,1.4-3.4,2.7-4.7,2.4c-1.4-0.4-3.1-2.6-3.4-4.2c-0.6-4.3-0.6-8.6-0.6-12.9C402.5,254.4,402.6,249,402.6,243.5z M394,277.2
		c1.3-1.1,3.6-2.1,3.6-3.2c0.3-9.9,0.2-19.8,0.2-30.2c-7.7,1.3-13.7,4.2-18.6,9.2c-0.5,0.5-0.8,1.9-0.5,2.5c0.3,0.5,1.6,1,2.3,0.8
		c3.6-1,7.2-2.2,10.9-3.3c0.1-1.5,0.2-3.1,0.3-4.6c0.5,0,0.9,0,1.4,0C393.2,257.5,397.7,266.5,394,277.2z M365.8,323.4
		c3,4.2,5.6,7.9,8.8,12.5c3-5.5,5.4-9.8,7.5-14.3c0.5-1.1-0.1-2.8-0.7-4c-0.2-0.4-2.1-0.3-3.1,0.1
		C374.5,319.2,370.6,321.1,365.8,323.4z M380.5,258.6c3.3,4.9,6.1,9,8.9,13c0.5,0.7,1.9,1.5,2.2,1.3c0.8-0.6,1.8-1.7,1.8-2.6
		c-0.1-4.7-0.5-9.5-0.9-15.1C388.3,256.5,384.7,257.5,380.5,258.6z M363.1,324.5c1.6,7.8,4.6,14.9,10.3,21.3
		c3.8-7.5,7.3-14.2,10.7-20.9c-0.3-0.2-0.6-0.3-0.9-0.5c-3.3,5.5-6.7,11-10.1,16.6C372.8,333.1,365.5,330.2,363.1,324.5z M385.8,307
		c-7.6,3.9-15,7.5-22.3,11.4c-1.1,0.6-1.8,2.1-2.7,3.2c0.4,0.3,0.8,0.7,1.1,1c8.4-3.8,16.8-7.6,25.3-11.4
		C386.7,309.5,386.1,308.1,385.8,307z M376.3,256.8c-0.5,0.1-1,0.2-1.5,0.4c0.3,1.4,0.3,3,1,4.2c4.7,7.3,9.7,14.5,14.6,21.9
		c1.1-0.9,2.5-2,3-2.5C387.6,272.6,381.9,264.7,376.3,256.8z M385.9,292.1c-7.5-2-14.7-4-21.9-5.8c-1-0.2-2.2,0.4-3.3,0.6
		c0.8,1,1.4,2.4,2.3,2.8c7.2,2.4,14.5,4.6,21.9,7C385.2,295,385.6,293.2,385.9,292.1z M417.1,307.6c3,0.2,5.6,0,8.1,0.6
		c4.7,1.1,9.3,2.6,14,3.7c1,0.2,2.2-0.3,3.4-0.5c-0.8-0.9-1.5-2.3-2.5-2.6c-7-2.4-14.1-4.6-21.5-7
		C418.1,303.7,417.6,305.8,417.1,307.6z M372.9,263.7c2.7,4.7,5.3,9.1,7.8,13.6c1.9,3.5,4.5,7.1,0.3,11c5.2,0.3,7.8-2.7,5.6-6.5
		c-4.2-7.2-9-14.1-14.1-21.8c-2,3.5-3.3,5.9-4.7,8.3c0.2,0.1,0.5,0.3,0.7,0.4C369.8,267.2,371.2,265.6,372.9,263.7z M427.5,303.2
		c0.4-0.3,0.7-0.7,1.1-1c-0.4-4.2-0.7-8.3-1.1-12.8c-4.3,1.7-7.9,4.2-6.9,8.3C421.2,299.9,425.1,301.4,427.5,303.2z M425.7,279.1
		c-1.8-3.3-3.4-6-5.4-9.7c-1.3,5.4-5.8,8.9-2.7,14.5C420.4,282.2,422.8,280.8,425.7,279.1z M405.3,273.1c0.4,0.1,0.8,0.2,1.2,0.3
		c2-3.8,4-7.5,6.2-11.6c-2.8-1.4-5-2.5-7.4-3.8C405.3,263.5,405.3,268.3,405.3,273.1z M441.7,277.6c-0.2-0.3-0.5-0.6-0.7-1
		c-7.7,3.8-15.5,7.7-23.6,11.7c0.2,0.8,0.8,2.4,1.2,3.7C426.5,287.1,434.1,282.3,441.7,277.6z M379.7,297.8
		c1.4,11.4-10,10.9-15,17.5c4.6-2.3,8.4-4.2,12.2-6.1c1.5-0.8,3-1.5,4.3-2.5C385.2,303.7,384.7,299.9,379.7,297.8z M421.7,322.9
		c2-4,3.7-7.1,5.3-10.2c-0.3-0.5-0.6-0.9-0.9-1.4c-2.8,0.7-5.6,1.4-9,2.3C418.8,317.1,420,319.6,421.7,322.9z M408.8,323.3
		c-0.5,0-0.9-0.1-1.4-0.1c-0.2,3.5-0.4,6.9-0.7,11.6c2.7-1.8,4.5-3.1,6.5-4.4C411.5,327.7,410.2,325.5,408.8,323.3z"/>
	<path d="M797.2,219.8c0.6,0.2,1.2,0.5,1.9,0.5c12.9,0.2,22,6.1,26,18.1c6.2,18.7,7,37.6-1.9,55.9c-2,4.1-4.8,8.1-8,11.3
		c-8.1,8.2-18,8.4-26.8,0.8c-9.6-8.3-12.6-19.7-14.1-31.6c-1.5-12.1,1.1-23.8,5.1-35.3c2.4-7.1,7.4-12.1,13.5-16.2
		c1.6-1.1,3-2.5,4.5-3.7C797.3,219.6,797.2,219.8,797.2,219.8z M792.3,268.6c1.3,3.5,1.9,6.9,3.7,9.5c4,5.6,9.3,5.2,13.4-0.3
		c6.1-8,3.4-17.7-0.7-23.8c-3.5-5.3-8.5-5-11.3,0.6C795.1,259,794,263.9,792.3,268.6z M811.8,293.1c-8.2,3.3-6.9,9.6-6.2,16.7
		c2.5-1.3,4.5-2,6.1-3.3c9.8-7.5,13.1-18.4,15.3-29.9c0.2-0.8-0.9-2.4-1.8-2.8c-3.3-1.8-6.8-3.2-10.2-4.8c-0.3,0.5-0.6,0.9-0.9,1.4
		c3.8,2.1,7.7,4.3,11.5,6.4c-0.2,0.3-0.4,0.6-0.5,0.8c-3.4-1.4-6.9-2.9-10.3-4.3c-0.2,0.4-0.4,0.9-0.7,1.3c1.9,1.7,3.8,3.4,5.9,5.3
		c-8.4,4.7-2.2,10.7-2.4,16.4c-2.3-5.6-4.6-11.1-7-17c-1.1,1.1-2.2,2.3-3,3.2c3.3,5.5,6.4,10.7,9.5,15.9c-0.4,0.2-0.8,0.5-1.3,0.7
		C814.4,297.2,813.1,295.2,811.8,293.1z M827.4,252.8c-5.9,2.8-5.9,2.8-6.8,10.3c-1,7.5-0.7,7.9,6.8,9.1
		C827.4,266,827.4,259.8,827.4,252.8z M781.5,238.2c-1.1,3.2-1.8,5.1-2.4,7c-2.2,7.6-1.7,8.4,5.9,10c1.1,0.2,2.8-0.1,3.4-0.8
		c0.7-0.8,0.9-2.6,0.4-3.5C786.8,246.9,784.4,243.1,781.5,238.2z M775.8,275c0.4,0.2,0.8,0.4,1.2,0.6c3.3-2.9,9.8-3.4,8.7-9.7
		c-0.8-4.8-5.8-4.1-10-5.1C775.8,265.9,775.8,270.4,775.8,275z M819.6,230.6c-3.8,5.5-4.9,10.2-1.3,14.6c1.1,1.3,3.5,1.5,5.3,2.2
		c0.4-1.5,1.5-3.3,1.1-4.5C823.5,239,821.6,235.2,819.6,230.6z M797.6,307.1c-1.5-3.2-2.6-5.4-3.7-7.7c-1.7,1.5-3.4,3.1-6,5.4
		c4.5,2.2,7.8,3.8,12,5.9c-0.4-9.3,0.9-17.3-0.8-25.3c-0.5,0-1,0-1.5,0C797.6,292.5,797.6,299.5,797.6,307.1z M807.1,232.3
		c2-2.3,2.8-3.1,3.5-3.9c0.4,0.2,0.8,0.4,1.1,0.6c-2.1,6.3-4.3,12.5-6.4,18.8c1.2-0.1,1.7-0.4,1.8-0.8c1.8-4.8,3.7-9.6,5.4-14.4
		c2.6-7.2-0.5-10.9-9.7-10C804.2,225.6,805.4,228.4,807.1,232.3z M790.6,277.3c-0.7,3.8-1.1,7.3-2.1,10.5c-0.9,3-2.8,5.7-3.9,8.6
		c-0.5,1.2-0.1,2.7-0.1,4.1c0.5,0.1,1.1,0.1,1.6,0.2c2.7-5.5,5.6-10.9,8-16.5C795.9,280.2,794.2,277.9,790.6,277.3z M787.3,278.1
		c-3.5,2.5-6.5,4.7-10.9,8c2.9,2.5,5.1,4.5,8.1,7.2C786.1,287.7,790.7,284.3,787.3,278.1z M801.9,283.8c0,9.2,0,17.6,0,26.1
		c0.7,0,1.4,0,2.1,0c0-8.2,0-16.4-0.1-24.6C804,284.7,802.5,284.2,801.9,283.8z M800.6,222.5c0,8.7,0,17.4,0,26.1
		C803,247.7,803.6,235.5,800.6,222.5z M797.2,247.7c0.4,0,0.7,0,1.1,0c0-8.4,0-16.7,0-25.7c-1.4,0.9-2.9,1.4-2.9,1.9
		C795.9,231.9,796.5,239.8,797.2,247.7z M777.5,254.5c-0.3,0.5-0.7,1-1,1.5c5.1,2.6,10.2,5.3,15.5,8c0.5-1.7,1-3.8,1.4-5
		C787.8,257.4,782.7,256,777.5,254.5z M783.1,235.7c1,7.4,10,12.1,7.1,21C795.1,253.2,793.1,247,783.1,235.7z M788.2,232.6
		c2.2,3.7,4,6.8,5.7,9.9c0.2-0.1,0.5-0.3,0.7-0.4c0-3.8,0-7.7,0-12C792.5,230.9,790.7,231.6,788.2,232.6z M817.8,229
		c-0.7-0.2-1.4-0.4-2-0.6c-2.7,7.4-5.4,14.8-8.1,22.2c0.6,0.2,1.2,0.4,1.8,0.6C812.2,243.8,815,236.4,817.8,229z M796.1,253.3
		c0.3-0.5,1.5-1.9,1.2-2.4c-3.7-6.3-7.7-12.5-11.5-18.7c-0.3,0.2-0.7,0.4-1,0.6C788.5,239.6,792.2,246.4,796.1,253.3z M813.3,259.7
		c3.7-4.2,10.6-5,12.4-11C821.2,252.1,815.4,254,813.3,259.7z M804.2,242.1c0.5,0.2,1,0.3,1.5,0.5c0.9-2.8,2.2-5.6,2.5-8.4
		c0.1-1.1-2.1-2.4-3.9-4.2C804.2,234.9,804.2,238.5,804.2,242.1z M788.1,263.9c-0.5,2.2-0.5,4.6-1.6,6.4c-1.2,1.8-3.4,3-5.2,4.4
		c-1.5,1.2-3.2,2.2-4.8,3.4C787.7,273.4,793.5,268.6,788.1,263.9z M791.5,271.2c-5.2,3.8-9.8,7.1-14.5,10.5c0.3,0.4,0.5,0.7,0.8,1.1
		c2.6-1.8,5.8-3.2,7.8-5.6C787.4,275.1,793.2,277.1,791.5,271.2z M810.5,253c8.3-4.7,8.4-5,3.9-10.1C813.2,246,812,249,810.5,253z
		 M805.2,295.1c6-3.7,6.1-4.7,0.5-10.4C805.6,288.5,805.4,291.6,805.2,295.1z M819.3,258.3c-5.5,3.8-5.7,6.6-1,9.8
		C818.7,264.9,819,262,819.3,258.3z"/>
	<path class="st13" d="M387,300.4c0.8-8.5,2.7-15.2,9.9-18.9c6.6-3.4,12.7-1.7,16.8,4.6c4.8,7.3,3.4,21.6-2.7,28
		c-6.9,7.1-17.4,5.3-21.6-4.2C387.9,306.7,387.6,302.9,387,300.4z"/>
	<path class="st14" d="M405,355c-11.4,3.5-21.1,0-30-7.5c2.7-5.2,5.4-10.3,8-15.5c2.5-5.2,4.9-10.5,7.2-15.5c4.4,1.6,9.4,3.4,15,5.4
		c-0.5,8.3-1.1,18-1.5,27.7c-0.1,1.8,0.9,3.6,1.4,5.4C405.1,355.2,405,355,405,355z M396.4,323.6c0.3-0.1,0.7-0.3,1-0.4
		c0.6,1.7,1.5,3.5,1.6,5.2c0.2,7.3,0,14.7,0,22c0,1.2,0.3,2.5,0.5,3.7c0.5-0.1,1-0.1,1.5-0.2c0-9.6,0.2-19.1-0.2-28.7
		c-0.1-1.5-2.2-3.5-3.8-4c-1-0.3-3.2,1.4-4.1,2.7c-4.8,7.4-9.4,14.9-14,22.4c-0.4,0.6-0.3,1.6-0.5,2.4c2.7-2.2,4-5.9,6.6-7.2
		c2.6-1.3,6.4-0.3,9.9-0.3c0.1,2.3,0.2,4.4,0.3,6.4c0.4,0,0.7,0,1.1,0C396.4,339.7,396.4,331.6,396.4,323.6z"/>
	<path class="st15" d="M443.2,307.4c-4.2-1.3-8.1-2.4-12.1-3.6c-0.2-2.2-0.3-4.2-0.5-6.2c-1.1-11.3,0-12.9,12.6-17
		C443.2,289.5,443.2,298.1,443.2,307.4z"/>
	<path class="st15" d="M405.1,355.2c0.3-3.1,1.1-6.3,0.8-9.3c-0.6-6.5,1.7-10.8,8.6-12.8c1.5,2.2,3.1,4.7,4.8,7.2
		c0.3-0.2,0.5-0.3,0.8-0.5c-3.2-6-6.5-12-9.7-18c0.4-0.2,0.8-0.4,1.2-0.7c4.5,7.5,9,15,13.7,22.8C419.2,349,413,353.6,405.1,355.2
		C405,355,405.1,355.2,405.1,355.2z"/>
	<path class="st15" d="M359.4,315c0-8.6,0-15.8,0-24c5.6,1.7,10.6,2.9,15.3,4.7c3.6,1.4,4,6.7,0.8,8.9
		C370.7,308.1,365.5,311.1,359.4,315z"/>
	<path class="st15" d="M433.6,274.4c-1.8,1.1-3.7,2.1-5.5,3.1c-7.1-8.5-7-11.5,0.8-24.1c5.8,5.2,8.7,12,11.1,19
		c0.2,0.6-0.6,1.9-1.2,2.3c-2.6,1.7-5.3,3.1-8.6,3.9c1.3-1.1,2.6-2.3,3.9-3.4C434,274.9,433.8,274.7,433.6,274.4z"/>
	<path class="st15" d="M430.6,339.5c-0.7-1.5-1.2-3.2-2.2-4.4c-6.3-7.3-5.4-14.2,1.3-21.1c1.4,0.6,3.2,1.3,4.9,2
		c0.1-0.2,0.2-0.3,0.4-0.5c-1.1-1-2.2-1.9-4.2-3.7c4.1,1.2,7.1,2.1,10.3,3.1C439.5,324.2,435.2,331.9,430.6,339.5L430.6,339.5z"/>
	<path class="st15" d="M413.8,259.6c-10.4-4.8-10.5-5-8.6-17.2c6,1.8,11.8,3.6,18.3,5.5c-3.9,7.3-7.2,13.5-10.5,19.7
		c-0.3-0.1-0.6-0.3-0.9-0.4c2.3-4.8,4.5-9.6,6.8-14.4c-0.3-0.2-0.7-0.3-1-0.5C416.6,254.7,415.2,257,413.8,259.6z"/>
	<path class="st15" d="M361.2,283.1c4-5.7,7.5-10.7,11.6-16.7c2.8,5.3,5.1,9.2,6.9,13.4c0.7,1.6,1.1,4.6,0.3,5.2
		c-1.6,1.2-4.2,1.9-6.2,1.6C369.9,286,366.2,284.6,361.2,283.1z"/>
	<path class="st14" d="M402.6,243.5c0,5.4-0.1,10.9,0,16.3c0.1,4.3,0,8.7,0.6,12.9c0.2,1.6,1.9,3.9,3.4,4.2c1.3,0.3,3.9-1.1,4.7-2.4
		c3.9-6.5,7.5-13.3,11.2-20c0.8-1.4,1.6-2.7,2.4-4.1c0.6,0.3,1.2,0.5,1.8,0.8c-4.6,10-9.1,20.1-13.4,29.5c-3.9-1.2-8.4-2.6-12.9-4
		c0-10.5,0-21.8,0-33.2C401.1,243.5,401.9,243.5,402.6,243.5z"/>
	<path class="st15" d="M394,277.2c3.7-10.7-0.8-19.7-0.4-28.9c-0.5,0-0.9,0-1.4,0c-0.1,1.6-0.2,3.1-0.3,4.6
		c-3.7,1.1-7.3,2.3-10.9,3.3c-0.7,0.2-2-0.2-2.3-0.8c-0.3-0.6,0-1.9,0.5-2.5c4.9-5,10.9-7.9,18.6-9.2c0,10.4,0.1,20.3-0.2,30.2
		C397.6,275.1,395.3,276.2,394,277.2z"/>
	<path class="st15" d="M365.8,323.4c4.8-2.2,8.7-4.1,12.6-5.8c0.9-0.4,2.9-0.5,3.1-0.1c0.6,1.2,1.1,3,0.7,4
		c-2.1,4.5-4.6,8.8-7.5,14.3C371.3,331.2,368.8,327.6,365.8,323.4z"/>
	<path class="st15" d="M380.5,258.6c4.2-1.2,7.8-2.1,12.1-3.3c0.4,5.6,0.8,10.3,0.9,15.1c0,0.9-1,2-1.8,2.6
		c-0.3,0.2-1.7-0.6-2.2-1.3C386.6,267.6,383.8,263.5,380.5,258.6z"/>
	<path class="st15" d="M363.1,324.5c2.4,5.7,9.7,8.6,9.9,16.6c3.4-5.7,6.8-11.2,10.1-16.6c0.3,0.2,0.6,0.3,0.9,0.5
		c-3.4,6.7-6.8,13.4-10.7,20.9C367.7,339.4,364.7,332.4,363.1,324.5z"/>
	<path class="st14" d="M385.8,307c0.4,1.1,0.9,2.6,1.5,4.2c-8.6,3.9-16.9,7.6-25.3,11.4c-0.4-0.3-0.8-0.7-1.1-1
		c0.9-1.1,1.5-2.6,2.7-3.2C370.8,314.5,378.2,310.8,385.8,307z"/>
	<path class="st14" d="M376.3,256.8c5.7,7.9,11.4,15.9,17.2,24c-0.5,0.4-1.9,1.6-3,2.5c-5-7.4-9.9-14.6-14.6-21.9
		c-0.7-1.1-0.7-2.8-1-4.2C375.3,257,375.8,256.9,376.3,256.8z"/>
	<path class="st14" d="M385.9,292.1c-0.3,1.2-0.6,2.9-1,4.6c-7.5-2.3-14.7-4.5-21.9-7c-1-0.3-1.6-1.8-2.3-2.8
		c1.1-0.2,2.3-0.9,3.3-0.6C371.2,288.1,378.3,290.1,385.9,292.1z"/>
	<path class="st14" d="M417.1,307.6c0.5-1.9,1-3.9,1.4-5.8c7.3,2.4,14.4,4.6,21.5,7c1,0.3,1.7,1.7,2.5,2.6c-1.1,0.2-2.3,0.7-3.4,0.5
		c-4.7-1.1-9.3-2.7-14-3.7C422.7,307.6,420.1,307.8,417.1,307.6z"/>
	<path class="st14" d="M372.9,263.7c-1.7,1.9-3,3.5-4.4,5c-0.2-0.1-0.5-0.3-0.7-0.4c1.4-2.4,2.7-4.8,4.7-8.3
		c5.1,7.8,9.9,14.6,14.1,21.8c2.2,3.8-0.4,6.8-5.6,6.5c4.2-4,1.7-7.5-0.3-11C378.2,272.9,375.6,268.4,372.9,263.7z"/>
	<path class="st14" d="M430.6,339.5c-1.2,0.8-2.4,1.6-3.8,2.5c-5-8.2-10.1-16.4-15.5-25.2c0.7-0.6,2-1.8,3.1-2.8
		c3.9,7.3,7.7,14.5,11.7,21.5C427.1,337,429.1,338.1,430.6,339.5L430.6,339.5z"/>
	<path class="st15" d="M427.5,303.2c-2.4-1.8-6.4-3.3-6.9-5.6c-1-4.1,2.6-6.6,6.9-8.3c0.4,4.5,0.7,8.7,1.1,12.8
		C428.3,302.6,427.9,302.9,427.5,303.2z"/>
	<path class="st15" d="M425.7,279.1c-2.9,1.7-5.3,3.1-8.1,4.8c-3.1-5.6,1.4-9.1,2.7-14.5C422.4,273.1,423.9,275.8,425.7,279.1z"/>
	<path class="st15" d="M405.3,273.1c0-4.8,0-9.6,0-15.1c2.4,1.2,4.6,2.3,7.4,3.8c-2.2,4.1-4.2,7.9-6.2,11.6
		C406.1,273.4,405.7,273.3,405.3,273.1z"/>
	<path class="st14" d="M441.7,277.6c-7.6,4.8-15.2,9.5-23.1,14.5c-0.4-1.4-1-3-1.2-3.7c8.1-4,15.8-7.8,23.6-11.7
		C441.2,276.9,441.4,277.2,441.7,277.6z"/>
	<path class="st14" d="M379.7,297.8c5,2.1,5.5,5.9,1.5,8.9c-1.3,1-2.8,1.7-4.3,2.5c-3.8,1.9-7.6,3.8-12.2,6.1
		C369.8,308.7,381.2,309.2,379.7,297.8z"/>
	<path class="st15" d="M421.7,322.9c-1.7-3.3-2.9-5.8-4.7-9.3c3.4-0.9,6.2-1.6,9-2.3c0.3,0.5,0.6,0.9,0.9,1.4
		C425.4,315.8,423.7,319,421.7,322.9z"/>
	<path class="st15" d="M408.8,323.3c1.4,2.2,2.7,4.4,4.3,7.1c-2,1.3-3.7,2.6-6.5,4.4c0.3-4.6,0.5-8.1,0.7-11.6
		C407.9,323.3,408.4,323.3,408.8,323.3z"/>
	<path class="st13" d="M792.3,268.6c1.7-4.8,2.9-9.6,5.1-14c2.9-5.6,7.8-5.9,11.3-0.6c4,6.1,6.8,15.8,0.7,23.8
		c-4.1,5.5-9.4,5.9-13.4,0.3C794.1,275.6,793.6,272.1,792.3,268.6z"/>
	<path class="st14" d="M811.8,293.1c1.3,2,2.6,4.1,3.9,6.2c0.4-0.2,0.8-0.5,1.3-0.7c-3.1-5.2-6.2-10.4-9.5-15.9c0.8-0.9,1.9-2,3-3.2
		c2.4,5.8,4.7,11.4,7,17c0.2-5.8-6-11.7,2.4-16.4c-2.1-1.9-4-3.6-5.9-5.3c0.2-0.4,0.4-0.9,0.7-1.3c3.4,1.4,6.9,2.9,10.3,4.3
		c0.2-0.3,0.4-0.6,0.5-0.8c-3.8-2.1-7.7-4.3-11.5-6.4c0.3-0.5,0.6-0.9,0.9-1.4c3.4,1.6,6.9,3,10.2,4.8c0.9,0.5,2,2,1.8,2.8
		c-2.2,11.4-5.5,22.4-15.3,29.9c-1.6,1.2-3.7,2-6.1,3.3C804.9,302.8,803.6,296.5,811.8,293.1z"/>
	<path class="st15" d="M827.4,252.8c0,7,0,13.2,0,19.4c-7.5-1.2-7.8-1.6-6.8-9.1C821.5,255.6,821.5,255.6,827.4,252.8z"/>
	<path class="st15" d="M781.5,238.2c2.9,5,5.3,8.7,7.3,12.6c0.5,0.9,0.3,2.8-0.4,3.5c-0.6,0.7-2.3,1-3.4,0.8
		c-7.6-1.6-8.1-2.4-5.9-10C779.7,243.2,780.4,241.4,781.5,238.2z"/>
	<path class="st15" d="M775.8,275c0-4.5,0-9.1,0-14.2c4.2,1,9.2,0.3,10,5.1c1,6.3-5.5,6.8-8.7,9.7
		C776.6,275.4,776.2,275.2,775.8,275z"/>
	<path class="st15" d="M819.6,230.6c2,4.6,3.8,8.3,5.1,12.3c0.4,1.2-0.7,3-1.1,4.5c-1.8-0.7-4.2-0.9-5.3-2.2
		C814.8,240.8,815.8,236.2,819.6,230.6z"/>
	<path class="st14" d="M797.6,307.1c0-7.6,0-14.6,0-21.6c0.5,0,1,0,1.5,0c1.7,7.9,0.4,16,0.8,25.3c-4.2-2-7.5-3.7-12-5.9
		c2.6-2.3,4.3-3.9,6-5.4C795,301.7,796.1,304,797.6,307.1z"/>
	<path class="st14" d="M807.1,232.3c-1.7-3.9-2.9-6.6-4.3-9.8c9.2-0.9,12.3,2.8,9.7,10c-1.7,4.8-3.6,9.6-5.4,14.4
		c-0.2,0.4-0.6,0.7-1.8,0.8c2.1-6.3,4.3-12.5,6.4-18.8c-0.4-0.2-0.8-0.4-1.1-0.6C809.9,229.2,809.1,230,807.1,232.3z"/>
	<path class="st14" d="M790.6,277.3c3.6,0.6,5.3,2.9,3.6,6.9c-2.4,5.6-5.3,11-8,16.5c-0.5-0.1-1.1-0.1-1.6-0.2
		c0-1.4-0.4-2.9,0.1-4.1c1.1-2.9,3-5.6,3.9-8.6C789.5,284.6,789.9,281.1,790.6,277.3z"/>
	<path class="st15" d="M787.3,278.1c3.3,6.2-1.3,9.6-2.7,15.1c-3-2.6-5.2-4.6-8.1-7.2C780.9,282.8,783.9,280.7,787.3,278.1z"/>
	<path class="st14" d="M801.9,283.8c0.6,0.4,2,0.9,2,1.4c0.1,8.2,0.1,16.4,0.1,24.6c-0.7,0-1.4,0-2.1,0
		C801.9,301.4,801.9,292.9,801.9,283.8z"/>
	<path class="st14" d="M800.6,222.5c3,13,2.4,25.2,0,26.1C800.6,239.9,800.6,231.2,800.6,222.5z"/>
	<path class="st14" d="M797.2,247.7c-0.6-7.9-1.3-15.8-1.8-23.8c0-0.5,1.5-1,2.9-1.9c0,8.9,0,17.3,0,25.7
		C797.9,247.7,797.5,247.7,797.2,247.7z"/>
	<path class="st14" d="M777.5,254.5c5.1,1.4,10.3,2.9,15.8,4.4c-0.3,1.2-0.9,3.4-1.4,5c-5.2-2.7-10.4-5.3-15.5-8
		C776.8,255.5,777.2,255,777.5,254.5z"/>
	<path class="st15" d="M783.1,235.7c10,11.3,12,17.4,7.1,21C793.1,247.8,784.1,243.2,783.1,235.7z"/>
	<path class="st15" d="M788.2,232.6c2.5-1,4.3-1.7,6.5-2.5c0,4.3,0,8.2,0,12c-0.2,0.1-0.5,0.3-0.7,0.4
		C792.2,239.4,790.4,236.3,788.2,232.6z"/>
	<path class="st14" d="M817.8,229c-2.8,7.4-5.6,14.8-8.4,22.2c-0.6-0.2-1.2-0.4-1.8-0.6c2.7-7.4,5.4-14.8,8.1-22.2
		C816.4,228.6,817.1,228.8,817.8,229z"/>
	<path class="st14" d="M796.1,253.3c-3.8-6.9-7.6-13.7-11.3-20.5c0.3-0.2,0.7-0.4,1-0.6c3.9,6.2,7.8,12.4,11.5,18.7
		C797.6,251.4,796.3,252.8,796.1,253.3z"/>
	<path class="st14" d="M813.3,259.7c2.1-5.7,7.9-7.6,12.4-11C823.9,254.7,817,255.5,813.3,259.7z"/>
	<path class="st15" d="M804.2,242.1c0-3.6,0-7.2,0-12.2c1.8,1.8,4,3.1,3.9,4.2c-0.3,2.9-1.6,5.6-2.5,8.4
		C805.2,242.4,804.7,242.3,804.2,242.1z"/>
	<path class="st14" d="M788.1,263.9c5.4,4.7-0.4,9.5-11.6,14.2c1.6-1.1,3.2-2.2,4.8-3.4c1.8-1.4,4.1-2.6,5.2-4.4
		C787.6,268.6,787.6,266.1,788.1,263.9z"/>
	<path class="st14" d="M791.5,271.2c1.6,5.9-4.1,3.9-5.9,6c-2,2.4-5.1,3.8-7.8,5.6c-0.3-0.4-0.5-0.7-0.8-1.1
		C781.7,278.4,786.3,275,791.5,271.2z"/>
	<path class="st15" d="M810.5,253c1.6-4,2.7-7,3.9-10.1C818.9,248,818.8,248.3,810.5,253z"/>
	<path class="st15" d="M805.2,295.1c0.2-3.5,0.3-6.7,0.5-10.4C811.3,290.4,811.3,291.5,805.2,295.1z"/>
	<path class="st15" d="M819.3,258.3c-0.4,3.7-0.7,6.6-1,9.8C813.6,264.9,813.8,262.1,819.3,258.3z"/>
	<path d="M396.4,323.6c0,8,0,16.1,0,24.1c-0.4,0-0.7,0-1.1,0c-0.1-2.1-0.2-4.1-0.3-6.4c-3.5,0-7.3-1-9.9,0.3c-2.5,1.3-3.8,5-6.6,7.2
		c0.1-0.8,0.1-1.7,0.5-2.4c4.6-7.5,9.2-15.1,14-22.4c0.9-1.3,3.1-3,4.1-2.7c1.6,0.5,3.7,2.5,3.8,4c0.3,9.6,0.2,19.1,0.2,28.7
		c-0.5,0.1-1,0.1-1.5,0.2c-0.2-1.2-0.5-2.5-0.5-3.7c0-7.3,0.1-14.7,0-22c0-1.8-1-3.5-1.6-5.2C397.1,323.3,396.7,323.5,396.4,323.6z
		 M394.8,327.9c-0.6-0.1-1.1-0.3-1.7-0.4c-2.2,3.6-4.4,7.1-7,11.2c3.5,0,6.1,0,9.4,0C395.3,334.9,395,331.4,394.8,327.9z"/>
	<path class="st15" d="M394.8,327.9c0.2,3.5,0.5,7,0.7,10.8c-3.3,0-5.9,0-9.4,0c2.6-4.1,4.8-7.7,7-11.2
		C393.7,327.6,394.2,327.7,394.8,327.9z"/>
</g>
</svg>
