<?xml version="1.0" encoding="utf-8"?>
<!-- Generator: Adobe Illustrator 19.2.1, SVG Export Plug-In . SVG Version: 6.00 Build 0)  -->
<svg version="1.1" xmlns="http://www.w3.org/2000/svg" xmlns:xlink="http://www.w3.org/1999/xlink" x="0px" y="0px"
	 viewBox="0 0 843 478" style="enable-background:new 0 0 843 478;" xml:space="preserve">
<style type="text/css">
	.st0{display:none;}
	.st1{display:inline;fill:#ED174B;}
	.st2{display:inline;fill:#414042;}
	.st3{fill:#4287C7;stroke:#000000;stroke-width:6;stroke-miterlimit:10;}
	.st4{fill:#3E73B9;}
	.st5{fill:none;stroke:#000000;stroke-width:4.7283;stroke-miterlimit:10;}
	.st6{fill:#BCBEC0;stroke:#000000;stroke-width:3.5462;stroke-miterlimit:10;}
	.st7{fill:#787175;}
	.st8{fill:#2B2A2A;}
	.st9{fill:none;stroke:#000000;stroke-width:3.5462;stroke-miterlimit:10;}
	.st10{fill:#DD3B95;stroke:#000000;stroke-width:2.3642;stroke-miterlimit:10;}
	.st11{fill:#808284;stroke:#000000;stroke-width:3.5462;stroke-miterlimit:10;}
	.st12{fill:#FFFFFF;stroke:#000000;stroke-width:3.5462;stroke-miterlimit:10;}
	.st13{fill:none;stroke:#000000;stroke-width:2.3642;stroke-miterlimit:10;}
	.st14{fill:#4287C7;stroke:#000000;stroke-width:3;stroke-miterlimit:10;}
	.st15{fill:#4287C7;stroke:#000000;stroke-width:5;stroke-miterlimit:10;}
	.st16{fill:none;stroke:#000000;stroke-width:1.1821;stroke-miterlimit:10;}
	.st17{fill:none;stroke:#000000;stroke-width:2;stroke-miterlimit:10;}
	.st18{fill:#FFFFFF;}
	.st19{fill:#B2AFAF;stroke:#000000;stroke-width:2.3642;stroke-miterlimit:10;}
	.st20{fill:#FFFFFF;stroke:#000000;stroke-width:1.1821;stroke-miterlimit:10;}
	.st21{fill:#F9F9FA;stroke:#000000;stroke-width:1.1821;stroke-miterlimit:10;}
	.st22{fill:#F8F7F8;stroke:#000000;stroke-width:2.3642;stroke-miterlimit:10;}
	.st23{fill:#F9F9FA;stroke:#000000;stroke-width:2.3642;stroke-miterlimit:10;}
	.st24{fill:#F9F9FA;stroke:#000000;stroke-width:3;stroke-miterlimit:10;}
	.st25{fill:#FDFDFE;stroke:#000000;stroke-width:3.5462;stroke-miterlimit:10;}
	.st26{fill:#FDFDFE;stroke:#000000;stroke-width:4;stroke-miterlimit:10;}
	.st27{fill:none;stroke:#000000;stroke-width:0.899;stroke-miterlimit:10;}
</style>
<g id="Layer_7" class="st0">
	<rect x="-116" y="-170" class="st1" width="1120.6" height="792"/>
</g>
<g id="Layer_9" class="st0">
	<path class="st2" d="M847.2,410.8C830.5,502.6,555.2,534.4,358,519C198.6,506.5,8.3,456.8,10,415c0.5-12.2,17.2-21.4,38-30
		c123.6-51.3,218.4-9.8,335.2-8.5C595,378.8,674.8,246.6,780,309C814.5,329.4,854.2,372.3,847.2,410.8z"/>
</g>
<g id="colors">
</g>
<g id="Layer_8">
</g>
<g id="front">
	<g id="smoke">
	</g>
	<path class="st3" d="M368,57.1l-114.5,88c0,0-16.1,9.7-27,9.7C215.5,154.8,82,204,82,204l-17.3,18.2C63,228.9,53.2,261,53.2,261
		c-12.1,15.2-16.1,15.2-16.1,15.2v76.5c8.6,6.1,9.2,10.9,9.2,10.9S40,366,40,374.5s4,15.8,4,15.8l53.5,19.4l137.6,34.6
		c0,0,28.2,4.2,48.3,5.5c20.1,1.2,104.2,8.5,111.7,6.1c7.5-2.4,32.8-6.7,47.8-9.1c15-2.4,15-2.4,15-2.4l5.8-5.5l-3.5-15.2l18.4-84.4
		l-4.6-7.9l12.1-37.6c0,0,27.6-46.1,40.9-45.5l22.4,1.2c0,0,19,17.6,19,28.5s4,34,0,44.3s-7.5,27.9-7.5,27.9v28.5l-0.6,6.7
		l155.4-63.1v-21.9l-9.2-4.9l31.7-70.4c0,0,6.9-14,12.1-13.4c5.2,0.6,14.4,12.7,14.4,12.7v49.2l9.2-14c0,0,6.3-26.7,5.2-35.2
		c-1.2-8.5-12.1-11.5-10.4-17.6c1.7-6.1,0.6-37-2.3-43.7c-2.9-6.7,0.6-17-15.5-21.9c-16.1-4.9-19.6-4.9-24.7-14
		c-5.2-9.1-55.3-61.9-55.3-61.9s-15.5-14-28.2-14.6c-12.7-0.6-68.5,0-68.5,0l-140.4-0.3c0,0-18.4-0.9-38.6,0
		C374.9,51.6,368,57.1,368,57.1z"/>
	<path class="st4" d="M703.8,296.3c-4.4-21.5-5.3-47.4,7.8-69.6c16-27.3,46.5-37.7,45-41c-1-2.1-14.5,0.7-63,19
		c-6.5,5.7-16.2,15.5-24,30c-15.2,28.4-8.3,47.8-18,67c-7.2,14.2-25,31.6-75,39"/>
	<path class="st5" d="M253.5,145.1"/>
	<path class="st6" d="M260.4,148.9l112.4-86.2c0,0,94.8-4,101.7-4s100.9,6.9,100.9,6.9s5.4,4,5.4,7.7c0,3.6-29.9,96.3-34.5,97.9
		S257.3,153,257.3,153L260.4,148.9z"/>
	<path class="st7" d="M273.8,148.5c0,0,105.5,1.2,111.3,4.5s20,13.8,18,15.8c-1.9,2-49.9,19-54.9,17.8c-5-1.2-133.1-5.3-134.3-7.7
		C212.8,176.5,273.8,148.5,273.8,148.5z"/>
	<path class="st8" d="M347,181.5c-4.2-6.1-5-11.5-16.5-15.4c-11.5-3.9-86.7-8.5-86.7-8.5s-7.3,2-8.1,5.3s0,18.6,0,18.6l99,1.6
		L347,181.5z"/>
	<g>
		<path d="M230.5,161.9l7.5-3.8l3.8-1.9l0.9-0.5l0.5-0.2l0.1-0.1l0,0c0,0,0,0,0,0c0.4-0.3-0.7,0.3,0.4,0.8c0.1,0-0.1,0-0.2,0.1
			l-1.9,0.9l-15.2,7.2c-5.1,2.4-10.2,4.8-15.3,7.1l-15.4,6.9l-15.4,6.8c-5.1,2.2-10.3,4.5-15.5,6.6l-15.5,6.5
			c-5.2,2.2-10.4,4.3-15.6,6.4l0.2-0.1c-3.1,1.8-6.3,3.8-9.3,5.8c-3.1,2-6.1,4-9,6.2c-1.5,1.1-2.9,2.2-4.3,3.3
			c-0.7,0.6-1.4,1.2-2.1,1.8c-0.3,0.3-0.7,0.6-0.9,0.9l-0.9,0.9c-1.2,1.3-2.3,2.8-3.4,4.2c-1.1,1.4-2.2,2.9-3.3,4.4
			c-4.3,6-8.3,12.1-12.4,18.3l-6.1,9.2c-1,1.5-2.1,3.1-3.1,4.6c-0.5,0.8-1.1,1.5-1.6,2.3c-0.3,0.4-0.6,0.7-0.9,1.1
			c-0.1,0.2-0.3,0.4-0.5,0.6c-0.1,0.2-0.4,0.4-0.6,0.6l0.1-0.1c-2.1,2.1-4.2,4.1-6.3,6.1c-1.1,1-2.2,2-3.3,3c-0.6,0.5-1.1,1-1.7,1.4
			c-0.3,0.2-0.6,0.5-0.9,0.7c-0.3,0.2-0.6,0.4-0.9,0.6c0.3-0.2,0.6-0.4,0.9-0.6c0.3-0.2,0.5-0.5,0.8-0.7c0.5-0.5,1.1-1,1.6-1.5
			c1-1,2-2.1,3-3.2c2-2.1,4-4.3,5.9-6.5l0.1-0.1c0.1-0.1,0.2-0.2,0.4-0.4c0.1-0.2,0.3-0.3,0.4-0.5c0.3-0.3,0.5-0.7,0.8-1.1
			c0.5-0.8,1-1.5,1.5-2.3c1-1.6,1.9-3.1,2.9-4.7l5.7-9.5c3.8-6.3,7.7-12.6,11.9-18.8c2.1-3.1,4.2-6.1,6.7-9c0.3-0.4,0.7-0.7,1-1.1
			c0.3-0.4,0.6-0.6,1-1c0.7-0.6,1.4-1.3,2.1-1.9c1.4-1.2,2.9-2.4,4.4-3.5c1.5-1.1,3-2.2,4.5-3.3c1.5-1.1,3.1-2.1,4.6-3.1
			c3.1-2,6.2-4,9.5-5.9l0.1-0.1l0.1-0.1l31.1-12.8l31.1-13l15.5-6.5l15.5-6.6c5.2-2.2,10.4-4.3,15.6-6.5l2-0.8
			c0.1,0,0.1-0.1,0.3-0.1c1.1,0.5,0,1.2,0.3,0.9l-0.1,0l-0.1,0l-0.1,0.1l-0.5,0.2l-1,0.4l-3.9,1.7L230.5,161.9z"/>
	</g>
	<g>
		<path d="M538.6,173.6c0,0-2.4,1-6.6,2.7c-4.2,1.7-10.2,4.1-17.5,6.9c-3.6,1.4-7.6,2.9-11.7,4.5c-4.2,1.6-8.6,3.2-13.1,4.9
			c-4.6,1.7-9.3,3.4-14.1,5.1c-4.8,1.7-9.7,3.5-14.5,5.2c-4.9,1.7-9.8,3.5-14.6,5.2c-2.4,0.9-4.8,1.7-7.1,2.5
			c-0.6,0.2-1.2,0.4-1.7,0.6l-0.9,0.3l-0.9,0.3c-1.2,0.4-2.3,0.9-3.4,1.4c-4.4,1.9-8.7,3.8-12.7,5.7c-4,1.9-7.7,3.8-11.1,5.7
			c-3.4,1.9-6.4,3.7-8.8,5.6c-2.3,2-4.3,4-6,5.5c-3.3,3.1-5.1,5-5.1,5s0.4-0.5,1.2-1.4c0.8-0.9,1.9-2.3,3.4-4c1.5-1.7,3.3-3.8,5.6-6
			c2.4-2.3,5.3-4.3,8.7-6.4c3.3-2.1,7-4.2,10.9-6.3c4-2.1,8.2-4.2,12.6-6.2c1.1-0.5,2.3-1,3.4-1.5l0.9-0.4l0.9-0.3
			c0.6-0.2,1.2-0.5,1.8-0.7c2.3-0.9,4.7-1.8,7.1-2.7c4.8-1.7,9.7-3.5,14.5-5.3c4.9-1.7,9.8-3.4,14.6-5.1c4.8-1.7,9.6-3.3,14.2-4.9
			c4.6-1.6,9.1-3,13.3-4.4c4.2-1.4,8.2-2.7,11.9-3.9C528.6,176.5,538.6,173.6,538.6,173.6z"/>
	</g>
	<path class="st9" d="M398.2,297.9"/>
	<path class="st9" d="M37.1,288.6"/>
	<path class="st10" d="M40.6,294.2c0,0,13.4,6.1,17.3,6.5c3.8,0.4,6.9-2.8,6.9-2.8s-5,3.6-5.8,12.5c-0.8,8.9-2.3,44.5,1.5,46.5
		c3.8,2-20.3-2.8-20-6.9C40.9,346,40.6,294.2,40.6,294.2z"/>
	<path class="st11" d="M71.3,312.4c0,0,27.2,3.6,37.6,5.3s83.3,15.4,83.3,15.4s41.4,4.9,46.4,5.7c5,0.8,6.9,12.9,6.9,12.9
		s0.8,38-5,42.5S85.8,373.9,78.2,367.9c-7.7-6.1-11.5-24.3-10.4-38C67.9,328.4,71.3,312.4,71.3,312.4z"/>
	<path class="st12" d="M87.6,329c0.2,11,2.1,30,6.3,31.2s62.6,16.2,62.6,16.2s40.9,6.5,45.2,6.1c4.2-0.4,39.9,4,39.9,4l0,0
		c6.8-26.2,6.3-33.7,3.8-34.8c-1.7-0.7-3.5,1.9-8.1,3.6c-9,3.5-18.2-0.4-21.9-1.8C187.7,343.2,72.1,325.8,72,325.8l0,0"/>
	<path class="st6" d="M101.2,332.7c0,0,1.5,20.4,6.5,19.7s59.9,9.4,59.9,9.4v-16.2"/>
	<path class="st6" d="M186.9,348.7c0,0-2.9,4.2,1.8,11.1c4.6,6.9,15.7,12.9,15.7,12.9l40.2,6.1"/>
	<path class="st10" d="M270,342.4c-1.6,1.1-4,3-5.8,6.1c-1.5,2.7-1.9,5.3-2.3,14.6c-0.4,10,0,9.2-0.4,14.6
		c-0.4,6.3-1.1,8.6-0.9,14.1c0.2,7.4,1.5,9.2,2,9.7c2.6,3.1,7.1,2.9,10.7,2.8c8.2-0.1,16.3,1.9,24.6,2c20,0.4,16.1,0.8,28.4,0.8
		c20.6,0,25.4-1.2,29.9-3.2c6.6-3,11.8-7.5,13-8.6c4.4-3.9,7-7.4,9.3-10.5c6.8-9.2,10.3-17.9,13.5-25.9c1.9-4.9,3.3-9,4.2-11.7
		C354.2,345.6,312.1,344,270,342.4z"/>
	<path class="st13" d="M269.6,363.7l113.6,1.7c-4.6,6.5-9.2,14.6-21.9,21s-14.2,8.2-14.2,8.2"/>
	<g>
		<path d="M267.7,398.6c0,0,2.3-1,5.7-2.2c1.7-0.6,3.7-1.3,5.9-1.9c1.1-0.3,2.2-0.7,3.4-1c1.2-0.3,2.3-0.6,3.5-0.9
			c1.2-0.3,2.4-0.6,3.5-0.9c1.2-0.3,2.3-0.5,3.4-0.8c2.2-0.5,4.3-0.9,6.1-1.2c3.6-0.6,6-0.9,6-0.9s-2.3,1-5.7,2.2
			c-1.7,0.6-3.7,1.3-5.9,1.9c-1.1,0.3-2.2,0.7-3.4,1c-1.2,0.3-2.3,0.6-3.5,0.9c-1.2,0.3-2.4,0.6-3.5,0.9c-1.2,0.3-2.3,0.5-3.4,0.8
			c-2.2,0.5-4.3,0.9-6.1,1.2C270.2,398.4,267.7,398.6,267.7,398.6z"/>
	</g>
	<g>
		<path d="M286.5,398.6c0,0,2.9-0.8,7.2-1.7c2.2-0.4,4.7-0.9,7.5-1.3c1.4-0.2,2.8-0.4,4.2-0.6c1.4-0.2,2.9-0.4,4.4-0.6
			c1.5-0.1,2.9-0.3,4.4-0.4c1.4-0.2,2.9-0.2,4.3-0.3c2.8-0.2,5.4-0.2,7.6-0.2c2.2,0,4.1,0.2,5.4,0.4c0.6,0.1,1.2,0.3,1.5,0.4
			c0.2,0.1,0.3,0.2,0.3,0.2c0,0.1,0.1,0.1,0.1,0.1s-0.1-0.2-0.4-0.2c-0.3-0.1-0.8-0.1-1.5-0.1c-1.3,0-3.1,0.2-5.3,0.5
			c-2.2,0.3-4.7,0.6-7.5,0.9c-1.4,0.2-2.8,0.4-4.2,0.5c-1.4,0.2-2.9,0.3-4.4,0.5c-1.5,0.2-2.9,0.3-4.4,0.5c-1.4,0.2-2.9,0.3-4.2,0.4
			c-2.8,0.3-5.3,0.5-7.5,0.6C289.5,398.6,286.5,398.6,286.5,398.6z"/>
	</g>
	<g>
		<path d="M400.1,342.4c0,0,0.1,0,0.2,0.1c0.1,0,0.3,0,0.6,0c0.5,0,1.3-0.1,2.3-0.3c2-0.3,4.9-0.8,8.3-1.4c3.4-0.6,7.5-1.3,11.8-2.1
			c2.2-0.4,4.4-0.7,6.7-1.1c2.3-0.4,4.6-0.8,6.9-1.1c2.3-0.4,4.6-0.7,6.9-1.1c2.3-0.4,4.5-0.7,6.7-1c4.3-0.6,8.4-1.2,11.9-1.6
			c7-0.9,11.6-1.3,11.6-1.3s-4.5,1.2-11.4,2.6c-3.4,0.7-7.4,1.5-11.7,2.3c-2.2,0.4-4.4,0.8-6.6,1.2c-2.3,0.4-4.6,0.8-6.9,1.2
			c-2.3,0.4-4.6,0.7-6.9,1.1c-2.3,0.4-4.5,0.6-6.7,0.9c-4.3,0.6-8.4,1-11.9,1.3c-3.5,0.3-6.4,0.5-8.5,0.5c-1,0-1.8,0-2.4-0.1
			c-0.3,0-0.5-0.1-0.6-0.1C400.1,342.4,400.1,342.4,400.1,342.4z"/>
	</g>
	<path class="st13" d="M414.7,344.4c0,0,7.2-9.5-6.5,19.3s-31.4,61.6-43.3,63.2s-101.3-5.3-101.3-5.3s-11-4.5-19.9-6.9
		c0,0-124-18.6-127.5-21c-3.5-2.4-61-16.6-61-19s-8.8-11.1-8.8-11.1"/>
	<g>
		<path d="M393.2,403.1c3.8-2.9,7.6-5.8,11.4-8.7c1.9-1.4,3.8-2.9,5.7-4.3l5.8-4.2l0.2-0.1l0.2,0c7.4-0.3,14.7-0.8,22.1-1l11-0.4
			l11-0.4l1.6-0.1l-0.5,1.6l-2.7,8.7l-0.1,0.4l-0.3,0.2c-5,3.7-10,7.3-15.2,10.7c-2.6,1.7-5.2,3.4-8,4.9c-0.7,0.4-1.4,0.7-2.2,1
			l-0.6,0.2c-0.3,0.1-0.6,0.1-0.7,0.1c-0.4,0-0.7,0.1-1.1,0.1l-4.6,0.7c-3.1,0.5-6.1,1-9.2,1.4c-1.5,0.2-3.1,0.4-4.7,0.5
			c-1.6,0.1-3.1,0.2-4.7,0.1c-0.8-0.1-1.6-0.1-2.4-0.3c-0.4-0.1-0.8-0.2-1.2-0.5c-0.4-0.3-0.7-0.5-1-0.8c-1.2-1.1-2.3-2.1-3.4-3.2
			C397.4,407.6,395.3,405.3,393.2,403.1z M393.2,403.1c2.3,2.1,4.6,4.2,6.9,6.3c1.2,1,2.3,2,3.5,3c0.3,0.2,0.6,0.5,0.9,0.6
			c0.3,0.2,0.6,0.2,1,0.3c0.7,0.1,1.5,0.2,2.2,0.2c3,0,6.1-0.4,9.1-0.9c3-0.5,6.1-1.1,9.1-1.7l4.6-0.9c0.4-0.1,0.8-0.1,1.2-0.2
			c0.2,0,0.3-0.1,0.4-0.1l0.5-0.2c0.6-0.3,1.3-0.6,2-1c2.6-1.5,5.2-3.2,7.8-5c5.1-3.5,10.1-7.1,15.1-10.8l-0.4,0.6l2.7-8.7l1.2,1.5
			l-11,0.3l-11,0.3c-7.4,0.2-14.7,0.3-22.1,0.4l0.4-0.1l-5.9,4.1c-2,1.4-4,2.7-6,4C401.1,397.8,397.2,400.5,393.2,403.1z"/>
	</g>
	<path class="st13" d="M393.2,403.1c0,0,3.8,4.5,12.3,4s55.3-22.1,55.3-22.1"/>
	<line class="st9" x1="89.4" y1="246.8" x2="95.5" y2="255.9"/>
	<path class="st6" d="M103.3,246.8l-21.2,31.9c0,0-3.9,4.2,0,7.9c3.9,3.6,24.9,9.4,24.9,9.4s113.4,14.9,117.4,14.3
		c4-0.6,22.4-1.2,23.3-2.4c0.9-1.2,0.5-38.2-3.2-41.4c-3.7-3.2-37.7-8.1-41.7-8.5c-4-0.4-86-11-90.9-11.1
		C107,246.8,103.3,246.8,103.3,246.8z"/>
	<path class="st9" d="M246.6,273.1c0,0,12.9-6,23-5.1c10.1,0.9,14.4,2.5,14.4,2.5"/>
	<path class="st13" d="M405.2,302.9c0,0,27.3-2.1,35.7-4.2c8.3-2.1,45.2-4.9,45.2-4.9"/>
	<path class="st13" d="M571.2,346.3c0,0,11.2-105.9,10.6-110.2c-0.6-4.2-1.1-13.9-1.1-13.9"/>
	<g>
		<path d="M528.9,240.8c0,0-3.9,2.1-9.8,5.3c-2.9,1.6-6.3,3.5-9.9,5.6c-1.8,1.1-3.6,2.2-5.3,3.5c-0.9,0.6-1.7,1.3-2.4,2
			c-0.2,0.2-0.3,0.4-0.5,0.5c-0.1,0.2-0.2,0.3-0.3,0.6l-0.8,1.5c-1.1,2-2.2,3.9-3.3,5.8c-1.1,1.9-2.2,3.7-3.3,5.5
			c-2.2,3.6-4.2,6.9-6,9.7c-3.6,5.6-6.2,9.3-6.2,9.3s1.9-4,5-10c1.6-3,3.4-6.4,5.4-10.1c1-1.8,2-3.7,3.1-5.6
			c1.1-1.9,2.1-3.8,3.2-5.8l0.8-1.5c0.1-0.2,0.4-0.6,0.5-0.8c0.2-0.2,0.4-0.5,0.6-0.7c0.9-0.9,1.8-1.6,2.7-2.3
			c1.8-1.3,3.7-2.4,5.6-3.5c1.8-1,3.7-1.9,5.4-2.8c1.7-0.8,3.4-1.6,4.9-2.3C524.7,242.2,528.9,240.8,528.9,240.8z"/>
	</g>
	<g>
		<path d="M467.3,244.2c3-1.4,6-2.9,9.1-4.3l9.1-4.1l9.1-4.1c3-1.4,6.1-2.7,9.2-4l18.4-8l9.2-4c3.1-1.3,6.1-2.6,9.2-3.9l0.7-0.3
			l0.8,0.1c3.8,0.5,7.5,1,11.2,1.6c3.7,0.6,7.5,1.1,11.2,1.8c3.7,0.7,7.5,1.3,11.3,2.2c0.9,0.2,1.9,0.4,2.9,0.7
			c0.5,0.1,1,0.3,1.5,0.5c0.5,0.2,1,0.3,1.9,0.8c0.1,0,0.2,0.1,0.4,0.2l0.2,0.1c0.1,0.1,0.2,0.2,0.3,0.3c0.1,0.1,0.2,0.2,0.3,0.3
			c0.2,0.2,0.4,0.5,0.5,0.8c0.1,0.2,0.1,0.2,0.2,0.5c0.1,0.2,0.1,0.5,0.1,0.8c0,0.3,0,0.5-0.1,0.8c-0.6,1.8-0.2,0.5-0.3,0.9
			c0.1-0.1-0.3,0.5-0.5,0.7c-0.2,0.2-0.3,0.3-0.5,0.4l-0.1,0.1c-0.1,0.1-0.3,0.2-0.4,0.2c-0.2,0.1-0.4,0.2-0.5,0.3
			c-0.6,0.3-1,0.4-1.5,0.6c-0.9,0.3-1.9,0.7-2.8,1c-3.6,1.2-7.3,2.3-10.9,3.4l-10.9,3.1l-10.9,3.1l-10.9,2.9l-10.9,2.9
			c-3.6,1-7.3,1.9-11,2.8l-22,5.5l-11,2.7l-11,2.5l-11,2.5c-3.7,0.9-7.4,1.6-11.1,2.4l-0.1-0.3c29.1-7.9,58.2-15.9,87.2-24.1
			l21.7-6.2c7.2-2.1,14.5-4.2,21.6-6.5c0.9-0.3,1.8-0.6,2.7-0.9c0.4-0.2,0.9-0.3,1.3-0.5l0.3-0.1c0.1,0,0.1,0,0.1-0.1
			c0.1-0.1,0,0.1,0,0c-0.1,0.2,0,0.2,0,0.1c0,0-0.1-0.1-0.2-0.2c-0.8-0.4-1.7-0.7-2.6-0.9c-0.9-0.3-1.8-0.5-2.7-0.7
			c-3.7-0.8-7.4-1.5-11.1-2.2c-7.4-1.3-14.9-2.5-22.3-3.6l0.1,0l-74.3,29.9L467.3,244.2z"/>
	</g>
	<g>
		<path d="M745.9,169.7c0,0-3.2,0.8-8.7,2.3c-5.5,1.4-13.5,3.5-23,5.8c-4.8,1.2-9.9,2.4-15.4,3.7c-5.5,1.3-11.2,2.7-17.2,4
			c-6,1.4-12.1,2.8-18.4,4.2c-6.3,1.4-12.7,2.7-19.1,4.1c-3.2,0.7-6.4,1.3-9.7,1.9c-3.2,0.6-6.3,1.2-9.5,1.8
			c-6.3,1.3-12.5,2.6-18.5,3.8c-6,1.2-11.8,2.4-17.3,3.6c-5.5,1.1-10.7,2.2-15.5,3.2c-9.6,2-17.6,3.5-23.3,4.6
			c-5.6,1.1-8.8,1.7-8.8,1.7s12.6-3.5,31.6-8.2c4.8-1.2,9.9-2.5,15.4-3.8c5.5-1.3,11.2-2.7,17.2-4.1c6-1.4,12.1-2.8,18.5-4.1
			c3.2-0.7,6.4-1.3,9.6-1.9c3.1-0.6,6.3-1.2,9.5-1.9c12.8-2.7,25.6-5.3,37.6-7.8c6-1.2,11.8-2.4,17.3-3.6c5.5-1.1,10.7-2.2,15.5-3.1
			C733,172,745.9,169.7,745.9,169.7z"/>
	</g>
	<g>
		<path d="M580.8,280.5c0,0,2.1-0.7,5.7-1.8c3.6-1.1,8.8-2.8,15-4.6c6.2-1.9,13.5-4.1,21.3-6.3c3.9-1.1,7.9-2.3,12-3.5
			c4.1-1.2,8.3-2.3,12.4-3.5c4.2-1.2,8.3-2.3,12.5-3.4c4.1-1.1,8.2-2.2,12.1-3.3c7.8-2.1,15.2-4,21.5-5.6c1.6-0.4,3-0.9,4.5-1.3
			c1.4-0.4,2.8-0.8,4-1.2c2.5-0.8,4.7-1.4,6.5-2c3.6-1.1,5.7-1.7,5.7-1.7s-2,0.8-5.6,2.1c-1.8,0.7-3.9,1.5-6.4,2.4
			c-1.2,0.5-2.6,0.9-3.9,1.5c-1.4,0.5-2.9,1.1-4.4,1.5c-6.2,1.9-13.5,4.1-21.3,6.3c-3.9,1.1-7.9,2.3-12,3.5
			c-4.1,1.2-8.3,2.3-12.4,3.5c-4.2,1.2-8.3,2.3-12.5,3.4c-4.1,1.1-8.2,2.2-12.1,3.3c-7.8,2.1-15.2,4-21.5,5.6
			c-6.3,1.6-11.6,2.9-15.2,3.8C582.9,280,580.8,280.5,580.8,280.5z"/>
	</g>
	<path class="st13" d="M560.8,350.3c0,0,101.3-39.8,108.5-41.9c7.2-2.1,37.1-12.7,37.1-12.7"/>
	<line class="st13" x1="560.8" y1="360.3" x2="715.7" y2="300.5"/>
	<path class="st13" d="M532.1,190.6c0,0,189.3-40.1,191.4-42.5c2-2.4-20.4-41.9-22.2-43.4c-1.7-1.5-36.5-36.1-36.5-36.1
		s-46.6-6.4-55.8-3.9s-19.9,9.4-20.1,12.4c-0.3,3-20.7,90.1-20.7,90.1s1.7-0.9,3.2,2.4c1.4,3.3,0,8.5,0,8.5L532.1,190.6z"/>
	<path class="st6" d="M588.3,162.4h-14.5c3.7-19.2,6.4-30.4,11.8-52.8c5-20.7,7.7-30.1,16.1-35.2c3.9-2.4,7.7-3.1,10.4-3.3H659
		c1.4,0.6,3.6,1.5,6,3c3.5,2.2,5.9,4.5,7.5,6.1c8.8,8.9,18.2,23.2,28.8,36.6c6.9,8.8,9.3,14,10.6,20c1.4,6.6-2.6,9.3-2.6,9.3
		c-20.1,4.1-40.3,8.3-60.4,12.4"/>
	<line class="st13" x1="583.3" y1="118.4" x2="593.4" y2="139"/>
	<path class="st14" d="M640,137c0,0-39.1-3.6-42.9-1.8s-8.6,4.2-8.8,12.1c-0.1,7.9,0.7,14.6,2.2,15.8s56.2,0.9,56.2,0.9
		s2.5-8.2,2.2-12.7c-0.3-4.6-0.6-13.4-3.5-14.3C642.6,136.1,640,137,640,137z"/>
	<path class="st13" d="M633.9,71.1c0,0,22.4,57.1,22.2,63.4c-0.3,6.4,2.2,22,2.2,22"/>
	<path class="st13" d="M640,71.1c0,0,12.7,37,14.7,40.4s8.6,30.7,8.6,30.7v13.4"/>
	<line class="st13" x1="546.3" y1="171.2" x2="568" y2="167.3"/>
	<path class="st13" d="M664.8,162c0,0,14.6,20.1,13.2,26.8c-1.4,6.7-4.3,77.1-4.9,80.1c-0.6,3-6.6,40.4-6.6,40.4"/>
	<path class="st15" d="M694.7,89.3c0,0,56.4-2.7,57.6,0s12.1,25.8,10.4,30.7c-1.7,4.9-5.2,16.8-5.2,16.8l-9.2,2.3l-13.1-2.6
		l5.3-13.8l-0.9-23.4l-36.3-2.1L694.7,89.3z"/>
	<polyline class="st16" points="733.8,92.9 745.9,95 745.9,122.3 739.8,135.4 	"/>
	<line class="st16" x1="745.9" y1="122.3" x2="762.6" y2="119.9"/>
	<g id="logo">
		<g>
			<path class="st17" d="M159.5,260.8c0.4,0,1.2,0.1,1.9,0.2c0.8,0.1,1.7,0.3,2.5,0.5c1.5,0.4,2.9,1,4.4,1.8c1.6,0.9,3.1,2,4.5,3.4
				c1.1,1.1,2,2.4,2.8,4c0.6,1.2,1,2.5,1.2,3.9c0.2,1.5,0.1,3-0.2,4.4c-0.3,1.3-0.8,2.4-1.4,3.5c-0.7,1.2-1.5,2.2-2.3,3.1
				c-1.3,1.4-2.8,2.5-4.3,3.3c-1.2,0.7-2.4,1.2-3.7,1.6c-0.8,0.2-1.6,0.4-2.4,0.6c-1.3,0.3-2.6,0.4-3.8,0.3c-0.7,0-1.3-0.1-2-0.2
				c-1.2-0.1-2.4-0.4-3.6-0.8c-0.8-0.3-1.6-0.6-2.4-1c-1.1-0.5-2.2-1.2-3.2-2c-0.4-0.3-0.8-0.6-1.1-0.9c-0.9-0.8-1.8-1.7-2.5-2.8
				c-0.9-1.2-1.6-2.6-2.1-4.3c-0.4-1.2-0.5-2.4-0.5-3.7c0-0.9,0.2-1.8,0.4-2.7c0.5-1.7,1.2-3.2,2.2-4.5c0.7-1,1.4-1.8,2.2-2.6
				c1.3-1.2,2.8-2.3,4.3-3c1-0.5,1.9-0.9,3-1.2c0.7-0.2,1.3-0.4,2-0.5C156.6,261,157.9,260.9,159.5,260.8z M159.5,290.7
				c0.4,0,1.1-0.1,1.8-0.1c0.6-0.1,1.2-0.2,1.8-0.3c0.8-0.1,1.5-0.4,2.3-0.6c1.1-0.4,2.1-0.9,3.2-1.4c0.5-0.3,0.9-0.5,1.3-0.8
				c1.1-0.7,2.1-1.7,3.1-2.7c0.5-0.5,0.9-1,1.3-1.6c0.7-1.1,1.4-2.3,1.8-3.6c0.5-1.6,0.6-3.2,0.3-4.9c-0.2-1.3-0.6-2.4-1.1-3.4
				c-0.7-1.3-1.5-2.5-2.4-3.5c-0.6-0.6-1.2-1.2-1.9-1.8c-1-0.9-2.1-1.5-3.2-2.1c-1.2-0.6-2.5-1.1-3.8-1.5c-0.9-0.2-1.7-0.4-2.6-0.5
				c-0.6-0.1-1.2-0.1-1.9-0.1c-1.2,0-2.3,0.1-3.5,0.3c-0.8,0.1-1.5,0.3-2.3,0.6c-1.2,0.4-2.4,0.9-3.6,1.5c-1.4,0.8-2.7,1.8-3.9,2.9
				c-0.8,0.8-1.6,1.7-2.3,2.8c-0.7,1.1-1.2,2.2-1.6,3.6c-0.5,1.7-0.5,3.4-0.2,5.1c0.3,1.5,0.9,2.7,1.6,3.9c0.8,1.3,1.7,2.3,2.6,3.3
				c1.4,1.3,2.9,2.4,4.5,3.1c1.4,0.7,2.9,1.2,4.4,1.5c0.5,0.1,1.1,0.2,1.6,0.3C157.5,290.7,158.3,290.7,159.5,290.7z"/>
			<path d="M152.7,281.9c-0.3-0.9-0.5-1.8-0.7-2.7c-0.3-1.2-0.6-2.4-1-3.6c0-0.1-0.1-0.1-0.1-0.2c-1.5-0.5-3-0.9-4.5-1.4
				c-0.9-0.3-1.7-0.5-2.6-0.8c0,0,0,0,0,0c0.2-0.1,0.4-0.1,0.6-0.2c0.6-0.2,1.3-0.4,1.9-0.6c1.5-0.5,2.9-0.9,4.4-1.4
				c0.1,0,0.3,0,0.3-0.1c0.1-0.1,0.1-0.3,0.1-0.5c0.5-1.8,1-3.6,1.5-5.4c0,0,0-0.1,0-0.1c0.1,0.5,0.3,0.9,0.4,1.4
				c0.4,1.4,0.9,2.8,1.3,4.3c0,0.1,0.1,0.1,0.2,0.2c0.9,0.3,1.9,0.6,2.8,0.9c0.8,0.2,1.5,0.5,2.3,0.7c0.9,0.3,1.8,0.6,2.7,0.9
				c0,0,0,0,0,0c-0.2,0.1-0.4,0.1-0.6,0.2c-0.7,0.2-1.4,0.4-2.1,0.6c-1.5,0.4-2.9,0.9-4.4,1.3c-0.2,0.1-0.5,0.1-0.7,0.2
				c-0.1,0-0.1,0.1-0.1,0.2c-0.6,2-1.1,4-1.7,6C152.7,281.8,152.7,281.8,152.7,281.9z"/>
			<path d="M161.5,283.7c0.2-0.1,0.4-0.1,0.5-0.2c0.6-0.2,1.2-0.4,1.8-0.6c0.2-0.1,0.4-0.1,0.6-0.2c0.1,0,0.1-0.1,0.1-0.1
				c0.2-0.8,0.5-1.5,0.7-2.3c0,0,0,0,0-0.1c0,0.1,0,0.2,0.1,0.2c0.2,0.7,0.4,1.4,0.6,2c0,0.1,0.1,0.1,0.1,0.1
				c0.7,0.2,1.5,0.5,2.2,0.7c0.4,0.1,0.8,0.2,1.1,0.4c-0.1,0-0.3,0.1-0.4,0.1c-1,0.3-1.9,0.6-2.9,0.8c-0.1,0-0.1,0.1-0.1,0.1
				c-0.2,0.8-0.5,1.6-0.7,2.4c0,0,0,0.1,0,0.1c0-0.1,0-0.1,0-0.1c-0.2-0.8-0.5-1.6-0.7-2.4c0-0.1-0.1-0.1-0.1-0.1
				C163.5,284.3,162.5,284,161.5,283.7C161.5,283.7,161.5,283.7,161.5,283.7C161.5,283.7,161.5,283.7,161.5,283.7z"/>
			<path d="M166.5,277.6c-0.2,0.1-0.4,0.1-0.6,0.2c-0.6,0.2-1.2,0.4-1.8,0.6c-0.3,0.1-0.6,0.2-0.8,0.3c-0.1,0-0.1,0.1-0.1,0.1
				c-0.2,0.8-0.4,1.6-0.6,2.4c0,0,0,0.1,0,0.2c-0.1-0.4-0.2-0.7-0.3-1c-0.2-0.5-0.3-1.1-0.5-1.6c0-0.1-0.1-0.1-0.1-0.2
				c-1-0.3-2-0.6-2.9-0.9c0,0,0,0-0.1,0c0.4-0.1,0.8-0.3,1.2-0.4c0.6-0.2,1.3-0.4,1.9-0.6c0.1,0,0.1-0.1,0.1-0.1
				c0.2-0.7,0.4-1.5,0.6-2.2c0,0,0-0.1,0-0.2c0,0.1,0,0.1,0.1,0.1c0.2,0.8,0.5,1.5,0.7,2.3c0,0.1,0.1,0.1,0.1,0.1
				c1,0.3,2,0.6,2.9,0.9C166.3,277.5,166.4,277.6,166.5,277.6C166.5,277.6,166.5,277.6,166.5,277.6z"/>
			<path d="M174.8,277.6c-0.2,0.1-0.4,0.1-0.5,0.2c-0.9,0.3-1.9,0.6-2.8,0.9c-0.1,0-0.1,0.1-0.1,0.1c-0.2,0.8-0.4,1.6-0.6,2.4
				c0,0,0,0.1,0,0.1c0-0.1,0-0.1,0-0.1c-0.2-0.8-0.5-1.7-0.7-2.5c0-0.1-0.1-0.1-0.1-0.2c-1-0.3-1.9-0.6-2.9-0.9c0,0-0.1,0-0.1,0
				c0.4-0.1,0.8-0.3,1.2-0.4c0.6-0.2,1.2-0.4,1.8-0.6c0,0,0.1-0.1,0.1-0.1c0.2-0.7,0.5-1.5,0.7-2.2c0,0,0-0.1,0.1-0.2
				c0,0.1,0,0.1,0.1,0.2c0.2,0.7,0.4,1.5,0.6,2.2c0,0.1,0,0.1,0.1,0.1c0.4,0.1,0.9,0.3,1.3,0.4c0.6,0.2,1.3,0.4,1.9,0.6
				C174.7,277.6,174.7,277.6,174.8,277.6z"/>
			<path d="M172.6,270.2c-1.1,0.3-2.1,0.6-3.2,0.9c-0.1,0-0.2,0.1-0.2,0.3c-0.2,0.8-0.4,1.6-0.6,2.4c0,0,0,0.1,0,0.2
				c-0.1-0.4-0.2-0.8-0.4-1.2c-0.1-0.5-0.3-0.9-0.4-1.4c0-0.1-0.1-0.1-0.1-0.2c-1-0.3-1.9-0.6-2.9-0.9c0,0-0.1,0-0.1-0.1
				c0.1,0,0.3-0.1,0.4-0.1c0.9-0.3,1.7-0.6,2.6-0.8c0.1,0,0.1-0.1,0.1-0.2c0.2-0.7,0.4-1.5,0.6-2.2c0-0.1,0-0.1,0.1-0.2
				c0.2,0.5,0.3,1,0.5,1.5c0.1,0.3,0.2,0.6,0.3,0.9c0,0.1,0,0.1,0.1,0.1C170.4,269.5,171.5,269.8,172.6,270.2
				C172.5,270.2,172.6,270.2,172.6,270.2z"/>
			<path d="M160.4,284.6c-1,0.3-2,0.6-3,0.9c-0.1,0-0.2,0.1-0.3,0.1c-0.1,0-0.1,0.1-0.1,0.1c-0.2,0.8-0.4,1.6-0.6,2.4
				c0,0,0,0.1,0,0.2c0-0.1,0-0.1,0-0.2c-0.2-0.8-0.5-1.6-0.7-2.5c0-0.1-0.1-0.2-0.1-0.2c-0.8-0.2-1.5-0.4-2.3-0.6
				c-0.2-0.1-0.5-0.1-0.7-0.2c0.2-0.1,0.3-0.1,0.5-0.2c0.8-0.3,1.7-0.5,2.5-0.8c0.1,0,0.1-0.1,0.1-0.1c0.2-0.8,0.4-1.6,0.6-2.4
				c0,0,0-0.1,0-0.2c0.1,0.2,0.1,0.4,0.2,0.5c0.2,0.6,0.4,1.2,0.6,1.8c0,0.1,0.1,0.2,0.2,0.2c0.8,0.3,1.6,0.5,2.4,0.8
				C159.8,284.3,160.1,284.4,160.4,284.6C160.4,284.5,160.4,284.5,160.4,284.6z"/>
		</g>
	</g>
	<g>
		<path class="st18" d="M415.6,96.6c6.2-0.2,12.5-0.5,18.7-0.6c6.2-0.2,12.5-0.3,18.7-0.4c6.2-0.1,12.5-0.2,18.7-0.3
			c6.2-0.1,12.5-0.2,18.7-0.2l10.8-0.1l-10.3,3.2l-11.2,3.5l-11.2,3.4c-7.5,2.3-14.9,4.5-22.4,6.8c-7.5,2.2-15,4.5-22.5,6.6
			c-7.5,2.2-15,4.4-22.5,6.5l0.1-2.6l13.2,5.1l13.1,5.2l13.1,5.3c4.4,1.8,8.7,3.6,13.1,5.4c-4.5-1.5-8.9-2.9-13.4-4.5l-13.4-4.6
			l-13.3-4.7l-13.3-4.7l-3.9-1.4l3.9-1.3c7.4-2.4,14.9-4.7,22.4-7c7.5-2.3,14.9-4.6,22.4-6.8c7.5-2.3,15-4.5,22.4-6.7l11.2-3.3
			l11.2-3.3l0.5,3.1c-6.2,0-12.5-0.1-18.7-0.2c-6.2-0.1-12.5-0.2-18.7-0.3c-6.2-0.1-12.5-0.3-18.7-0.4
			C428.1,97,421.8,96.8,415.6,96.6z"/>
	</g>
</g>
<g id="Layer_3">
	<path class="st19" d="M74.2,211c0,0,9.2-3.3,10.6,0s6.9,12.1,6.9,12.1v16.1l-17.6,30.3c0,0-8.3,7.6-10.1,5.2
		c-1.7-2.4-3.7-7.9-6-8.5c-2.3-0.6-8.1-0.6-8.1-0.6l5.5-10.6l10.9-31.9L74.2,211z"/>
	<path class="st20" d="M75.7,243.7c-2.7,7.9-9.2,15.2-12.1,14c-2.7-1.2-2.1-9.8-0.6-15.4c2.4-9,8.9-17.9,12.1-16.8
		C78,226.6,78.2,236.3,75.7,243.7z"/>
	<path class="st21" d="M91.8,239.2c0,0-0.3-7-6.3-2.4c-6,4.6-10.9,11.5-10.9,13.4s-3.2,6.7-1.7,10.6c1.4,3.9,3.3,5.6,3.3,5.6"/>
	<path class="st19" d="M373.9,242.8c0,0-79.2,6.9-82.8,9.7c-3.6,2.9-14.9,12.9-13.6,19.8c1.3,6.9,4.9,22.8,9,24.9
		c4.1,2.1,20.8,6.9,25,6c4.2-0.9,7.7-1.4,12.4-0.7c4.7,0.7,47.3,7,59.8,8.8s16.6-0.7,16.6-0.7s23.8-46.6,20.7-51.9
		c-3-5.3-6.5-13.8-15.1-14.7C397.4,243.1,373.9,242.8,373.9,242.8z"/>
	<path class="st22" d="M328.3,284.9c-1.2,10.2-10.8,17.4-21.4,16c-10.6-1.4-18.3-10.8-17.1-21s10.8-17.4,21.4-16
		C321.8,265.3,329.5,274.7,328.3,284.9z"/>
	<ellipse class="st23" cx="314.5" cy="282.4" rx="14" ry="16.2"/>
	<path class="st24" d="M333.3,305.7c0,0,4.2-24.6,7.4-27.2c3.2-2.6,13.8-19.3,18.7-18.7c4.9,0.6,16.1-3.9,19,3
		c2.9,7,7.5,16.1,6.6,19.4c-0.9,3.3-9.1,23.4-9.1,23.4"/>
	<ellipse class="st22" cx="336" cy="378.4" rx="14.6" ry="13.9"/>
	<ellipse class="st23" cx="49.5" cy="335" rx="6" ry="9.2"/>
</g>
<g id="wheels">
	<path class="st25" d="M560.8,337.9c-0.5,5.1-3.1,31.5-17.3,55c-2.7,4.4-6.2,9.5-11.9,10.9c-10.4,2.6-20.6-8.6-22.6-10.9
		c-11.3-12.4-12.4-28.5-13.4-45.3c-0.8-14.2-2-33.6,7.7-54.6c3.6-8,14.8-32.2,29.9-31.6c10.9,0.5,18.4,13.6,21.5,19
		C564.5,297.7,562.9,315.2,560.8,337.9z"/>
	<path class="st9" d="M461.3,418.3l15.1,4.6c10,1.6,32.2,4.9,38.8,2s15.3-4.5,24.9-20.7c9.6-16.2,16.5-35.2,16.5-35.2l1-11.7"/>
	<g>
		<path d="M533.5,268.6c0,0,0.3,0.7,0.5,2c0.3,1.3,0.6,3.2,0.8,5.4c0.1,1.1,0.1,2.4,0,3.7c-0.1,1.3-0.2,2.7-0.5,4.1
			c-0.1,0.7-0.4,1.4-0.6,2.1c-0.2,0.7-0.5,1.4-0.7,2.1c-0.5,1.4-1.1,2.8-1.7,4.2c-0.6,1.4-1.2,2.8-1.8,4.1c-0.6,1.3-1.3,2.6-1.9,3.9
			c-0.6,1.3-1.3,2.5-1.9,3.6c-0.6,1.1-1.2,2.2-1.8,3.2c-2.2,3.9-4,6.4-4,6.4s1-2.8,2.8-7c0.9-2.1,1.9-4.5,3-7.1
			c0.6-1.3,1.1-2.6,1.7-4c0.6-1.3,1.2-2.7,1.7-4.1c0.6-1.4,1.2-2.7,1.7-4.1c0.5-1.4,1-2.6,1.4-4c0.4-1.3,0.6-2.6,0.8-3.8
			c0.2-1.2,0.3-2.4,0.4-3.5c0.1-2.2,0.1-4.1,0.1-5.4C533.6,269.4,533.5,268.6,533.5,268.6z"/>
	</g>
	<g>
		<path d="M543.4,275.9c-0.7,3.7-1.7,7.4-2.6,11.1c-1,3.7-2,7.3-3.2,11c-0.3,0.9-0.6,1.8-0.9,2.7c-0.3,0.9-0.6,1.8-1,2.7
			c-0.3,0.9-0.7,1.8-1.1,2.7c-0.4,0.9-0.8,1.8-1.3,2.7c-0.3,0.5-0.6,0.9-0.9,1.4c-0.4,0.4-0.6,0.7-1,1.1c-0.7,0.7-1.5,1.4-2.3,2
			c-0.8,0.6-1.6,1.2-2.5,1.7c-0.9,0.5-1.7,0.9-2.8,1.3l-0.3-2.3c1.6,0.1,3.2,0.2,4.7,0.3c1.6,0.1,3.2,0.1,4.8,0.2c1.6,0,3.2,0,4.7,0
			c0.8,0,1.6,0,2.4-0.1c0.8,0,1.6-0.1,2.3-0.2c0.4,0,0.8-0.1,1.1-0.2c0.4-0.1,0.8-0.1,1.1-0.3c0.3-0.1,0.7-0.2,1-0.3
			c0.3-0.2,0.6-0.2,0.9-0.5c0.7-0.5,1.2-0.9,1.9-1.4c0.6-0.5,1.2-1,1.8-1.6c2.3-2.1,4.6-4.5,6.7-6.8c-1.8,2.6-3.8,5.2-6,7.6
			c-0.5,0.6-1.1,1.2-1.7,1.7c-0.6,0.6-1.2,1.2-1.8,1.6c-0.3,0.3-0.7,0.5-1.1,0.7c-0.4,0.3-0.8,0.3-1.2,0.5c-0.4,0.2-0.8,0.3-1.2,0.4
			c-0.4,0.1-0.8,0.2-1.2,0.3c-1.6,0.3-3.2,0.5-4.9,0.6c-1.6,0.1-3.2,0.2-4.9,0.2c-3.2,0-6.4-0.1-9.7-0.3l-5.2-0.3l4.9-1.9
			c0.7-0.3,1.6-0.7,2.4-1.2c0.8-0.5,1.5-0.9,2.2-1.5c0.7-0.5,1.4-1.1,2-1.7c0.3-0.3,0.7-0.7,1-1c0.2-0.3,0.5-0.6,0.7-1
			c0.4-0.8,0.8-1.6,1.2-2.4c0.4-0.8,0.8-1.7,1.1-2.6c0.4-0.9,0.7-1.7,1-2.6l1-2.6c0.7-1.8,1.3-3.5,1.9-5.3l1.9-5.4L543.4,275.9z"/>
	</g>
	<g>
		<path d="M557.6,313.5c-2.7,1.8-5.5,3.6-8.3,5.3c-1.4,0.9-2.7,1.7-4.1,2.7c-1.4,0.9-2.7,1.8-4,2.7c-0.7,0.5-1.3,1-1.9,1.4
			c-0.6,0.5-1.2,1-1.8,1.5c-0.3,0.3-0.6,0.5-0.7,0.8l-0.3,0.4l0,0l0,0l0,0c0,0,0,0.1,0-0.1l0,0.1l-0.1,0.1c0,0.1-0.1,0.2-0.1,0.2
			c0,0.2-0.1,0.4-0.1,0.7c0,0.3,0,0.5,0.1,0.8c0.2,0.6,0.6,1.1,1,1.7c0.5,0.5,1,1,1.6,1.5c0.6,0.5,1.2,0.9,1.9,1.4
			c0.7,0.4,1.4,0.8,2,1.2l-0.4-0.1l3.8,0.2c1.3,0.1,2.5,0.1,3.8,0.2c1.3,0.1,2.5,0.2,3.8,0.3c1.3,0.1,2.5,0.2,3.8,0.4
			c-1.3,0.1-2.5,0.3-3.8,0.4c-1.3,0.1-2.5,0.2-3.8,0.3c-1.3,0.1-2.5,0.2-3.8,0.2l-3.8,0.2l-0.2,0l-0.2-0.1c-0.8-0.4-1.5-0.8-2.3-1.2
			c-0.7-0.4-1.5-0.9-2.1-1.4c-0.7-0.5-1.4-1.1-2-1.8c-0.6-0.7-1.2-1.5-1.5-2.5c-0.4-1-0.4-2.2,0.1-3.3c0.1-0.1,0.1-0.2,0.2-0.3
			l0.1-0.1l0-0.1c0.1-0.1,0,0,0-0.1l0,0l0,0l0,0l0.5-0.6c0.3-0.4,0.6-0.7,0.9-1c0.6-0.6,1.3-1.1,2-1.7c0.7-0.5,1.4-1,2.1-1.4
			c1.4-0.9,2.8-1.8,4.2-2.6c1.4-0.8,2.9-1.6,4.4-2.3C551.5,316.1,554.5,314.7,557.6,313.5z"/>
	</g>
	<g>
		<path d="M554.8,342.5c0,0-3,0.5-7.6,1c-2.3,0.3-4.9,0.6-7.8,0.9c-1.4,0.2-2.9,0.4-4.2,0.6l-0.2,0c-0.1,0-0.1,0-0.1,0l0,0l0,0l0,0
			c-0.2,0.1,0.2-0.2,0.2-0.2l0,0c0,0-0.1,0.1,0,0c0.1-0.1,0.2-0.2,0.2-0.3l0-0.1c0,0,0,0,0,0c0,0,0,0.4,0.1,0.7
			c0.2,0.7,0.4,1.4,0.6,2.1c0.5,1.4,1,2.8,1.6,4.2c0.5,1.4,1.1,2.8,1.6,4.1c1,2.7,2,5.2,2.8,7.3c1.6,4.3,2.6,7.2,2.6,7.2
			s-1.7-2.6-3.8-6.7c-1.1-2-2.3-4.4-3.5-7.1c-0.6-1.3-1.2-2.7-1.8-4.1c-0.6-1.4-1.2-2.8-1.7-4.3c-0.2-0.7-0.5-1.5-0.7-2.3
			c-0.1-0.4-0.2-0.8-0.2-1.5l0-0.2c0-0.1,0-0.1,0.1-0.3c0.1-0.1,0.2-0.3,0.3-0.4c0.1-0.1,0.1-0.1,0.1-0.1l0,0c0,0,0.4-0.3,0.2-0.2
			l0.1,0l0.1,0l0.2-0.1c0.1-0.1,0.3-0.1,0.4-0.1l0.3-0.1c1.6-0.3,3.1-0.4,4.5-0.5c2.9-0.2,5.6-0.2,7.9-0.2
			C551.7,342.2,554.8,342.5,554.8,342.5z"/>
	</g>
	<g>
		<path d="M540.8,379.7l-2.7-8.1c-0.9-2.7-1.9-5.4-2.9-8c-0.5-1.3-1.1-2.6-1.7-3.8c-0.3-0.6-0.6-1.2-1-1.7c-0.2-0.3-0.4-0.5-0.5-0.6
			c-0.1-0.1-0.1,0-0.2-0.1l-0.5-0.2c-2.5-1.1-5.2-2.3-7.8-3.3l1.5-1.5c1.3,3,2.3,6,3.3,9.1c0.5,1.5,0.9,3.1,1.2,4.8
			c0.1,0.4,0.1,0.8,0.2,1.3c0,0.4,0,1,0,1.3c0,0.8,0,1.5,0.1,2.3c0.1,1.6,0.2,3.2,0.3,4.8c0.1,1.6,0.2,3.2,0.2,4.8
			c0,0.8,0,1.6,0,2.4c0,0.8-0.1,1.6-0.2,2.4c-0.1,0.8-0.2,1.6-0.4,2.4l-0.3,1.2l-0.5,1.1l0.3-1.2l0.2-1.2c0.1-0.8,0.1-1.6,0.1-2.4
			c0-0.8,0-1.6-0.1-2.4c0-0.8-0.1-1.6-0.2-2.4c-0.3-3.1-0.9-6.3-1.2-9.5c-0.1-0.8-0.2-1.7-0.2-2.5c0-0.5,0-0.7-0.1-1.1
			c-0.1-0.4-0.1-0.7-0.2-1.1c-0.3-1.5-0.8-3-1.2-4.5c-1-3-2.1-5.9-3.3-8.9l-1.1-2.6l2.6,1.1c2.6,1.1,5.3,2.2,7.8,3.6l0.5,0.2
			c0.2,0.1,0.5,0.3,0.7,0.5c0.4,0.4,0.6,0.7,0.8,1c0.4,0.7,0.8,1.3,1.1,2c0.6,1.3,1.1,2.7,1.5,4.1c0.4,1.4,0.9,2.7,1.2,4.1
			c0.4,1.4,0.7,2.8,1.1,4.2C539.8,374.1,540.4,376.9,540.8,379.7z"/>
	</g>
	<path class="st16" d="M509.5,289c0,0-12.2,13.2-9.6,48c2.6,34.8,2.3,33.3,2.3,33.3"/>
	<g>
		<path d="M514.5,352.7c0.4,0.6,0.4,1.3,0.5,2c0.1,0.7,0.1,1.4,0.1,2.1c0,1.4-0.1,2.8-0.3,4.2c-0.2,1.4-0.4,2.8-0.6,4.2
			c-0.2,1.4-0.5,2.7-0.8,4.1c-0.3,1.4-0.6,2.7-0.9,4.1c-0.3,1.4-0.7,2.7-1.1,4.1c-0.4,1.3-0.8,2.7-1.2,4c-0.4,1.3-0.9,2.6-1.4,4
			l-2-1.2c1.2-1.5,2.4-2.9,3.6-4.3c1.2-1.4,2.4-2.9,3.7-4.3l-0.2,0.4c0.2-0.6,0.4-1.1,0.6-1.6c0.2-0.5,0.4-1,0.7-1.5
			c0.5-1,0.9-2,1.4-2.9c0.5-1,1-1.9,1.6-2.8l0.8-1.4l0.4-0.7l0.4-0.7c0.3-0.5,0.5-0.9,0.7-1.4l0.3-0.7l0.2-0.7
			c0.2-0.5,0.3-1,0.4-1.5c0.1-0.5,0.2-1,0.2-1.5c0-0.5,0-1,0-1.5c0-0.5-0.1-1-0.2-1.5c-0.2-1-0.6-2-1.2-2.9c0.7,0.8,1.3,1.7,1.7,2.8
			c0.2,0.5,0.3,1,0.5,1.6c0.1,0.5,0.2,1.1,0.2,1.6c0,0.6,0,1.1,0,1.7c-0.1,0.5-0.1,1.1-0.3,1.6l-0.2,0.8l-0.3,0.8
			c-0.2,0.6-0.4,1.1-0.6,1.5l-0.3,0.8l-0.4,0.7l-0.7,1.4c-0.5,1-0.9,1.9-1.3,2.9c-0.4,1-0.9,1.9-1.3,2.9c-0.2,0.5-0.4,1-0.6,1.5
			c-0.2,0.5-0.4,1-0.5,1.4l-0.1,0.2l-0.2,0.2c-1.2,1.5-2.4,2.9-3.6,4.4c-1.2,1.5-2.4,2.9-3.6,4.3l-4.8,5.6l2.8-6.8
			c0.5-1.2,1-2.5,1.4-3.8l1.3-3.9c0.8-2.6,1.6-5.3,2.4-7.9l1.1-4c0.4-1.3,0.7-2.7,1-4c0.3-1.3,0.6-2.7,0.8-4.1
			c0.1-0.7,0.2-1.4,0.2-2.1C514.7,354.1,514.8,353.3,514.5,352.7z"/>
	</g>
	<path class="st16" d="M521.3,321.1c-0.9-0.3-1.3-1.4-1-2.3s1.3-1.4,2.2-1s1.3,1.4,1,2.3C523.1,320.9,522.2,321.4,521.3,321.1z"/>
	<ellipse class="st16" cx="528.2" cy="327.2" rx="2.6" ry="4.2"/>
	<path class="st16" d="M527.1,336.5c0.9,0.3,1.3,1.4,1,2.3s-1.3,1.4-2.2,1c-0.9-0.3-1.3-1.4-1-2.3
		C525.2,336.6,526.2,336.2,527.1,336.5z"/>
	<path class="st16" d="M522.3,341.5c0.9,0.3,1.3,1.4,1,2.3s-1.3,1.4-2.2,1s-1.3-1.4-1-2.3C520.4,341.6,521.4,341.1,522.3,341.5z"/>
	<g>
		<path d="M503.1,313.5c0,0,0.8,0.5,2,1.4c1.2,1,3,2.4,4.7,4.6c0.4,0.5,0.9,1.1,1.2,1.8c0.4,0.7,0.7,1.4,1,2.1
			c0.6,1.4,1.2,3,1.7,4.6c0.5,1.6,1.1,3.3,1.6,5c0.5,1.7,0.9,3.5,1.1,5.4c0.2,1.9,0.4,3.7-0.1,5.8c-0.2,0.5-0.4,1-0.7,1.6
			c-0.3,0.4-0.5,0.7-0.8,1c-0.5,0.7-1.1,1.4-1.6,2c-2.1,2.7-4,5.1-5.8,7.2c-3.4,4.2-5.9,6.8-5.9,6.8s1.8-3.1,4.8-7.6
			c1.5-2.3,3.2-4.9,5.2-7.6c0.5-0.7,1-1.4,1.5-2.1c0.2-0.3,0.5-0.7,0.7-1.1c0.2-0.2,0.3-0.5,0.4-0.8c0.3-1.4,0.2-3.2,0-4.9
			c-0.2-1.7-0.6-3.4-1-5.1c-0.4-1.7-0.9-3.3-1.3-4.9c-0.5-1.6-0.9-3.1-1.4-4.6c-0.2-0.8-0.5-1.4-0.7-2c-0.3-0.6-0.6-1.2-0.9-1.8
			c-1.4-2.2-2.9-3.9-4-5C503.8,314.2,503.1,313.5,503.1,313.5z"/>
	</g>
	<g>
		<path d="M501.7,319c0,0,0.1,0,0.3,0.1c0.2,0.1,0.5,0.2,0.7,0.5c0.6,0.5,1.2,1.5,1.7,2.7c0.3,0.6,0.5,1.3,0.7,2
			c0,0.2,0.1,0.4,0.1,0.6l0.1,0.3l0.1,0.3c0.1,0.4,0.2,0.7,0.2,1.2c0.3,1.6,0.4,3.3,0.5,5.1c0.1,1.7,0,3.4-0.1,5
			c-0.1,1.6-0.3,3.1-0.5,4.4c-0.2,1.3-0.4,2.3-0.7,3.1c-0.1,0.4-0.2,0.6-0.3,0.8c-0.1,0.2-0.2,0.3-0.2,0.3s0-0.1,0-0.3
			c0-0.2,0-0.5,0-0.9c-0.1-0.7-0.1-1.8-0.2-3.1c-0.1-1.3-0.2-2.7-0.2-4.3c0-0.8-0.1-1.6-0.1-2.4c0-0.8-0.1-1.7-0.1-2.5
			c0-0.8-0.1-1.7-0.1-2.5c0-0.8-0.1-1.6-0.1-2.4c0-0.4-0.1-0.8-0.1-1.2l0-0.3c0-0.1,0-0.2,0-0.3c0-0.2,0-0.4-0.1-0.5
			c-0.1-0.7-0.2-1.4-0.3-2c-0.1-0.6-0.2-1.2-0.4-1.6c-0.1-0.5-0.3-0.9-0.5-1.2c-0.2-0.3-0.3-0.6-0.5-0.7
			C501.8,319,501.7,319,501.7,319z"/>
	</g>
	<path class="st16" d="M563.5,294.7c0,0-9-28.4-13-31.7s-5.4-7.7-11.9-7.7c-6.5,0-15.1,2.4-15.1,2.4"/>
	<ellipse class="st26" cx="751" cy="268.7" rx="14.1" ry="51.8"/>
	<path class="st13" d="M712.6,325.4c0,0,2.1,4.2,6.9,3.8c4.8-0.4,20.7-2.8,22.8-3.8c2.1-1,6.2-5.6,6.2-5.6"/>
	<g>
		<path d="M743.2,225.5c0.5-0.6,1-1.1,1.5-1.6c0.5-0.5,1.1-1,1.7-1.5c0.3-0.2,0.6-0.4,0.9-0.7c0.3-0.2,0.7-0.4,1-0.6
			c0.4-0.1,0.8-0.3,1.4-0.2c0.1,0,0.1,0,0.3,0.1l0.1,0.1c0.1,0,0.2,0.1,0.3,0.1c0.2,0.1,0.4,0.2,0.5,0.3c1.3,0.9,2.3,1.9,3.4,2.9
			c1.1,1,2.1,2.1,3.2,3.1l0.1,0.1l0,0.2c0.4,1.8,0.9,3.6,1.2,5.4c0.2,0.9,0.4,1.8,0.5,2.7c0.2,0.9,0.3,1.8,0.5,2.7
			c-0.4-0.9-0.7-1.7-1-2.6c-0.3-0.9-0.6-1.8-0.9-2.6c-0.6-1.8-1.1-3.5-1.6-5.3l0.2,0.3l-3.1-3.1c-1.1-1-2.1-2-3.2-2.9l-0.4-0.3
			c-0.1,0-0.2-0.1-0.2-0.1l-0.1-0.1c0.1,0,0,0,0,0c-0.1-0.1-0.5,0-0.8,0.1c-0.3,0.1-0.6,0.3-0.9,0.4c-0.3,0.2-0.6,0.3-0.9,0.5
			c-0.6,0.4-1.2,0.8-1.8,1.2L743.2,225.5z"/>
	</g>
	<g>
		<path d="M748.5,226.2c0.3,2.4,0.5,4.8,0.7,7.3c0.1,1.2,0.2,2.4,0.2,3.6c0.1,1.2,0.1,2.4,0.2,3.7c0,1.2,0.1,2.4,0,3.7
			c0,0.6,0,1.2-0.1,1.9c0,0.3-0.1,0.6-0.1,0.9c-0.1,0.3-0.1,0.6-0.2,1c-0.2,0.7-0.4,1.2-0.6,1.8c-0.2,0.6-0.3,1.1-0.5,1.7
			c-0.1,0.6-0.2,1.2-0.3,1.7c-0.1,0.6-0.1,1.2-0.2,1.7l-0.7-0.7l4.5,0L751,255c0.9-4.5,1.9-9,2.9-13.5c0.5-2.2,1-4.5,1.6-6.7
			c0.6-2.2,1.1-4.5,1.7-6.7c-0.3,2.3-0.7,4.6-1.1,6.8c-0.4,2.3-0.8,4.5-1.2,6.8c-0.8,4.5-1.7,9.1-2.6,13.6l-0.1,0.5l-0.6,0l-4.5,0
			l-0.7,0l0-0.7c0-0.7,0.1-1.3,0.2-1.9c0.1-0.6,0.2-1.2,0.4-1.8c0.1-0.6,0.3-1.2,0.5-1.8c0.2-0.6,0.5-1.2,0.6-1.7
			c0.1-0.5,0.2-1.1,0.3-1.7c0.1-0.6,0.1-1.2,0.1-1.8c0.1-1.2,0.1-2.4,0.1-3.6c0.1-2.4,0-4.8,0-7.3L748.5,226.2z"/>
	</g>
	<g>
		<path d="M760,242.2c-0.1,1.1-0.3,2.1-0.5,3.2c-0.2,1.1-0.4,2.1-0.6,3.1c-0.2,1-0.5,2.1-0.8,3.1c-0.3,1-0.6,2-1,3.1
			c-0.4,1-0.8,2-1.3,3c-0.2,0.5-0.6,1-0.9,1.4l-0.9,1.3c-1.2,1.8-2.4,3.5-3.6,5.2l-0.3-0.8c1.3,0.4,2.7,0.9,4,1.4
			c1.3,0.5,2.6,1,3.9,1.5c-1.4-0.3-2.7-0.6-4.1-0.9c-1.4-0.3-2.7-0.7-4.1-1l-0.7-0.2l0.4-0.6c1.1-1.8,2.2-3.6,3.4-5.4l0.9-1.3
			c0.3-0.5,0.6-0.8,0.8-1.3c0.5-0.9,0.9-1.8,1.3-2.8c0.8-1.9,1.4-3.9,2.1-5.9L760,242.2z"/>
	</g>
	<g>
		<path d="M750,280.5c0.7,1.8,1.2,3.6,1.6,5.5c0.2,0.9,0.3,1.9,0.4,2.8c0.1,1,0.2,1.9,0.2,2.9c0,1,0,1.9-0.1,2.9
			c-0.1,0.9-0.2,1.9-0.3,2.9c-0.1,1-0.2,1.9-0.4,2.9c-0.1,0.5-0.2,1-0.3,1.4c-0.1,0.2-0.1,0.5-0.2,0.7c0,0.1-0.1,0.2-0.1,0.4
			c-0.1,0.1-0.1,0.2-0.3,0.5l-1-0.9c1.5-1.7,3-3.4,4.5-5.1c1.5-1.7,3-3.3,4.6-5l0,0.7c-1.5-2.1-2.9-4.2-4.3-6.3
			c-0.7-1-1.4-2.1-2.1-3.2C751.4,282.6,750.7,281.5,750,280.5z M750,280.5c0.8,1,1.6,2,2.4,3c0.8,1,1.6,2,2.4,3c1.6,2,3.1,4,4.7,6
			l0.3,0.4l-0.3,0.4c-1.5,1.7-2.9,3.4-4.4,5.1c-1.5,1.7-3,3.4-4.5,5.1l-1-0.9c0,0.1,0.1-0.1,0.1-0.2c0-0.1,0.1-0.2,0.1-0.3
			c0.1-0.2,0.1-0.4,0.2-0.6c0.1-0.4,0.2-0.9,0.3-1.3c0.2-0.9,0.4-1.8,0.5-2.8c0.1-0.9,0.2-1.9,0.4-2.8c0.1-0.9,0.2-1.9,0.2-2.8
			c0-0.9,0-1.9,0-2.8c0-0.9-0.1-1.9-0.2-2.8C750.8,284.2,750.4,282.3,750,280.5z"/>
	</g>
	<g>
		<path d="M759,271.8c-1.1-0.3-2.2-0.5-3.3-0.8l-3.3-0.9c-2.2-0.6-4.4-1.2-6.6-1.8l0.6-0.9c1.9,2.2,3.7,4.4,5.5,6.6
			c0.9,1.1,1.8,2.2,2.7,3.4c0.9,1.1,1.8,2.3,2.6,3.4c0.4,0.6,0.9,1.2,1.3,1.8c0.2,0.3,0.4,0.6,0.6,0.9c0.1,0.2,0.2,0.3,0.3,0.5
			l0.1,0.3l0.1,0.1c0,0,0,0.1,0,0c0,0,0,0-0.1-0.1c0,0-0.1-0.1-0.1-0.1c0,0-0.2-0.1-0.3,0c-0.1,0-0.1,0-0.2,0.1c0,0,0,0-0.1,0
			c0,0-0.1,0.1-0.1,0.1c0,0.1,0,0,0,0.1c0,0,0,0,0,0l0-0.1l0-0.2l0-0.5l0.1-1.1l0.1-2.1l0.1-4.3C759,274.6,759,273.2,759,271.8z
			 M759,271.8c0.2,1.4,0.3,2.9,0.4,4.3c0.1,1.4,0.2,2.9,0.3,4.3c0,0.7,0.1,1.4,0.1,2.2l0,1.1l0,0.6l0,0.3c0,0.1,0,0.1,0,0.2
			c0,0.1,0,0.1,0,0.1c0,0,0,0.1-0.1,0.1c0,0-0.1,0.1-0.1,0.1l-0.1,0.1c0,0-0.1,0.1-0.2,0.1c-0.1,0-0.3,0-0.4,0
			c-0.1,0-0.1-0.1-0.2-0.1c-0.1-0.1-0.1-0.1-0.1-0.2c-0.1-0.1-0.1-0.1-0.1-0.1c0-0.1,0-0.1-0.1-0.1l-0.1-0.2
			c-0.1-0.1-0.2-0.3-0.3-0.4c-0.2-0.3-0.4-0.6-0.6-0.9c-0.4-0.6-0.9-1.1-1.3-1.7l-10.7-13.4l-1.2-1.5l1.8,0.6
			c2.2,0.7,4.3,1.5,6.5,2.2l3.2,1.2C756.9,270.9,757.9,271.3,759,271.8z"/>
	</g>
	<g>
		<path d="M745.9,252.3c-0.1,0.3-0.2,0.6-0.4,0.9c-0.1,0.3-0.3,0.6-0.4,0.9c-0.3,0.6-0.6,1.2-1,1.8c-0.3,0.6-0.6,1.2-1,1.8
			c-0.2,0.3-0.4,0.6-0.8,0.7c-0.3,0-0.4-0.2-0.5-0.4c-0.1-0.2-0.1-0.3-0.1-0.5c-0.1-0.7-0.1-1.4-0.2-2c0-0.7,0-1.4,0-2
			c0.1-1.4,0.2-2.7,0.3-4.1l0,0.1c-0.3-2.9-0.6-5.9-0.8-8.8c-0.2-2.9-0.4-5.9-0.5-8.8l1.2-0.2c0.4,1.7,0.7,3.4,1,5.2l1,5.2
			c0.3,1.7,0.7,3.4,1,5.2C745.1,248.9,745.5,250.6,745.9,252.3z M745.9,252.3c-0.4-1.7-0.8-3.4-1.2-5.1c-0.4-1.7-0.9-3.4-1.3-5.1
			l-1.4-5.1c-0.5-1.7-0.9-3.4-1.4-5.1l1.2-0.2c0.3,2.9,0.5,5.9,0.7,8.8c0.2,2.9,0.3,5.9,0.4,8.9l0,0.1l0,0c-0.2,1.3-0.4,2.6-0.6,4
			c-0.1,0.7-0.1,1.3-0.2,2c0,0.7-0.1,1.3,0,2c0,0.3,0.1,0.7,0.3,0.7c0.2,0,0.5-0.4,0.7-0.6c0.4-0.6,0.7-1.1,1.1-1.7
			c0.3-0.6,0.7-1.2,1-1.8c0.2-0.3,0.3-0.6,0.5-0.9C745.6,253,745.8,252.7,745.9,252.3z"/>
	</g>
	<g>
		<path d="M739.5,263.7l3.1-1.4c0.5-0.2,1-0.5,1.5-0.7c0.2-0.1,0.5-0.3,0.7-0.4c0,0,0,0,0,0c0,0,0,0.1,0,0.1l0,0.1c0,0,0,0.1,0,0.2
			c0,0.1,0.1,0.1,0.1,0.1l0,0c0,0,0,0,0.1,0l0,0c0,0,0.2,0,0.1,0l0,0l0,0l-0.1,0c0,0-0.1,0-0.1,0c0,0-0.1,0.1-0.2,0.2
			c-0.3,0.4-0.6,0.8-0.9,1.3c-0.3,0.5-0.5,1-0.7,1.5c-0.4,1-0.8,2.1-1.1,3.1c-0.2,0.5-0.3,1-0.4,1.6c-0.1,0.6-0.2,1.1-0.3,1.6
			c-0.2,1.1-0.4,2.2-0.5,3.3c-0.3,2.2-0.5,4.5-0.6,6.7l-1.3,0c0-2.9,0.1-5.8,0.2-8.7c0.1-1.4,0.1-2.9,0.2-4.3
			C739.3,266.6,739.3,265.1,739.5,263.7z M739.5,263.7c0.1,1.4,0.2,2.9,0.3,4.3c0.1,1.4,0.1,2.9,0.2,4.3c0.1,2.9,0.2,5.8,0.2,8.7
			l-1.3,0c0.1-2.3,0.3-4.6,0.6-6.8c0.2-1.1,0.3-2.3,0.6-3.4c0.1-0.6,0.3-1.2,0.4-1.7c0.1-0.5,0.3-1.1,0.5-1.6
			c0.4-1.1,0.8-2.2,1.3-3.2c0.3-0.5,0.5-1,0.8-1.5c0.3-0.5,0.6-1,1.1-1.4c0.1-0.1,0.2-0.2,0.5-0.3c0.1,0,0.1,0,0.1,0l0.1,0l0,0l0,0
			c-0.1,0,0.1,0,0.1,0l0.1,0c0,0,0.1,0,0.1,0c0,0,0,0,0.1,0c0,0,0.1,0.1,0.1,0.2c0,0.1,0,0.1,0,0.2c0,0,0,0,0,0.1c0,0,0,0.1-0.1,0.1
			c-0.1,0.1-0.1,0.1-0.2,0.1c-0.3,0.2-0.6,0.3-0.8,0.4c-0.5,0.2-1.1,0.4-1.6,0.6C741.6,263,740.5,263.4,739.5,263.7z"/>
	</g>
	<g>
		<path d="M745.9,278.6c-1.2,1.7-2.4,3.3-3.5,5c-0.6,0.8-1.2,1.7-1.7,2.5c-0.3,0.4-0.5,0.9-0.7,1.3c0,0.1-0.1,0.2-0.1,0.2
			c0,0,0,0,0-0.1c0,0,0-0.1,0-0.1l0,0l0,0l0.1,0.2c0.1,0.2,0.3,0.5,0.4,0.7c1,1.8,1.8,3.7,2.7,5.5c0.9,1.8,1.7,3.7,2.6,5.6l0,0
			c0-0.1,0-0.1-0.1-0.2c0-0.1-0.2-0.1-0.3-0.2c-0.1,0-0.1,0-0.2,0c0,0-0.1,0-0.1,0c-0.1,0-0.1,0.1-0.1,0.1c0,0,0,0,0.1-0.1
			c0.1-0.1,0.2-0.3,0.2-0.5c0.1-0.4,0.3-0.8,0.4-1.2c0.2-0.9,0.5-1.7,0.7-2.6c0.1-0.4,0.2-0.9,0.3-1.3c0.1-0.4,0.2-0.9,0.2-1.3
			c0-0.4,0.1-0.9,0.2-1.3c0-0.4,0.1-0.9,0.1-1.3c0.1-1.8,0-3.6-0.2-5.4C746.7,282.2,746.3,280.4,745.9,278.6z M745.9,278.6
			c0.4,0.8,0.7,1.7,0.9,2.6c0.3,0.9,0.5,1.8,0.7,2.7c0.2,0.9,0.3,1.8,0.4,2.7c0.1,0.5,0.1,0.9,0.1,1.4c0,0.5,0,0.9,0.1,1.4
			c0,0.5,0,0.9,0,1.4c0,0.5-0.1,0.9-0.1,1.4c0,0.5-0.1,0.9-0.2,1.4c-0.1,0.5-0.2,0.9-0.3,1.4c-0.2,0.9-0.4,1.8-0.6,2.7
			c-0.1,0.5-0.3,0.9-0.4,1.4c-0.1,0.2-0.2,0.5-0.3,0.7c-0.1,0.1-0.1,0.3-0.3,0.5c0,0-0.1,0.1-0.2,0.2c-0.1,0-0.1,0-0.2,0.1
			c-0.1,0-0.2,0-0.3,0c-0.2,0-0.4-0.1-0.5-0.2c-0.1-0.1-0.1-0.2-0.2-0.3l0,0l-5-11.1c-0.1-0.2-0.2-0.4-0.3-0.6L739,288c0,0,0,0,0,0
			l0-0.1c0-0.1,0-0.1-0.1-0.2c0-0.1,0-0.2,0-0.2c0-0.3,0.1-0.4,0.1-0.5c0.2-0.5,0.5-1,0.8-1.4c0.6-0.8,1.2-1.6,1.9-2.4
			C743.1,281.6,744.4,280.1,745.9,278.6z"/>
	</g>
	<path class="st16" d="M518.6,334.6c-0.9,0.2-1.8-0.5-1.9-1.4c-0.2-1,0.5-1.9,1.4-2c0.9-0.2,1.8,0.5,1.9,1.4
		C520.1,333.5,519.5,334.4,518.6,334.6z"/>
	<path class="st27" d="M517.9,326.5c-0.7-0.3-1-1-0.7-1.7c0.2-0.7,1-1,1.6-0.8c0.7,0.3,1,1,0.7,1.7S518.5,326.8,517.9,326.5z"/>
	<path d="M501.7,267.9l-18.6,35l-9.2,28.5l3.9,10.9l-16.3,74.6l17.2,4.8c3.9,1.4,9.6,3,16.7,3.3c5,0.2,20.5,0.9,34-9.7
		c11.5-9,15.2-21.2,15-21.3c-0.2-0.1-2.9,7.1-9.7,9.7c-6.3,2.4-12.9-0.5-15.7-1.7c-6.9-3-10.7-7.8-14-12c-2.8-3.6-9.4-12.3-11-24.7
		c-1-8,1.3-8.3,0.3-22c-0.3-4.7-0.8-7.8-0.7-13.3c0-0.7,0.2-6.6,1.3-13.3c1.4-8,3.7-21.5,12.3-34.7c5.8-8.8,14.1-21.6,25.3-21.3
		c10.4,0.3,17.6,11.6,20.7,16.3c16.2,25.3,7.3,53.3,10,53.7c3.5,0.5,11.2-48,2-61.7c-1.2-1.8-2.7-3.7-2.7-3.7
		c-4.2-5.3-8.1-10.4-14.3-13.7c-1.5-0.8-11.8-6-22.7-2c-2.5,0.9-4.4,2.1-5.7,3"/>
	<path d="M748.4,212.1c-1,0.8-2.5,2-4,3.8c-5,5.7-6.2,11.5-8.3,17.5c-1.3,3.9-1.3,2.9-7.8,16.3c-4,8.4-10.4,22.1-20.8,45.5
		c3.4,1.6,6.8,3.1,10.3,4.7v20.8l-3.9,5.5l3.8,3c5-1.3,9.1-1.8,11.9-2c5.4-0.4,8.6,0,12.5-2.3c1.6-0.9,4-2.3,4.5-4.8
		c0.5-2.6-1.5-4.3-4-9.3c-0.8-1.8-2-4.4-3-7.8c-1.9-6.1-2.5-11-3-26c-0.1-2.8-0.7-23.7,0.8-33.3c0.4-2.8,1.6-8.2,1.8-8.8
		c0.3-1.3,0.5-2.4,1-3.8c0.6-1.9,1.2-2.7,2-4.8c1.4-3.6,1.5-4.3,2-5.3c1-1.9,3.2-4.1,8.8-5.5"/>
</g>
</svg>
