<?xml version="1.0" encoding="utf-8"?>
<!-- Generator: Adobe Illustrator 19.2.1, SVG Export Plug-In . SVG Version: 6.00 Build 0)  -->
<svg version="1.1" xmlns="http://www.w3.org/2000/svg" xmlns:xlink="http://www.w3.org/1999/xlink" x="0px" y="0px"
	 viewBox="0 0 756 268.5" style="enable-background:new 0 0 756 268.5;" xml:space="preserve">
<style type="text/css">
	.st0{display:none;}
	.st1{display:inline;fill:#F4F4C1;}
	.st2{fill:#4A9AE7;}
	.st3{fill:#CCCCCC;}
	.st4{display:none;fill:none;stroke:#4D4D4D;stroke-width:7;stroke-miterlimit:10;}
	.st5{fill:none;stroke:#000000;stroke-width:4;stroke-miterlimit:10;}
	.st6{fill:#1A1A1A;stroke:#000000;stroke-miterlimit:10;}
	.st7{fill:#FFFFFF;stroke:#000000;stroke-width:0.9043;stroke-miterlimit:10;}
	.st8{fill:#1A1A1A;stroke:#000000;stroke-width:0.9043;stroke-miterlimit:10;}
	.st9{fill:none;stroke:#000000;stroke-width:0.9043;stroke-miterlimit:10;}
	.st10{fill:#CCCCCC;stroke:#000000;stroke-width:0.9117;stroke-miterlimit:10;}
	.st11{fill:#1A1A1A;stroke:#000000;stroke-width:0.9117;stroke-miterlimit:10;}
	.st12{fill:none;stroke:#000000;stroke-width:0.9117;stroke-miterlimit:10;}
	.st13{fill:#FFFFFF;stroke:#000000;stroke-width:0.9117;stroke-miterlimit:10;}
	.st14{fill:#4A9AE7;stroke:#000000;stroke-width:3;stroke-miterlimit:10;}
	.st15{fill:none;stroke:#000000;stroke-miterlimit:10;}
	.st16{fill:#ED1C24;stroke:#000000;stroke-miterlimit:10;}
	.st17{fill:#FCEE21;}
	.st18{stroke:#000000;stroke-width:12;stroke-miterlimit:10;}
	.st19{fill:#FFFFFF;stroke:#000000;stroke-width:2;stroke-miterlimit:10;}
	.st20{display:none;stroke:#000000;stroke-miterlimit:10;}
</style>
<g id="Layer_6" class="st0">
	<rect x="-104.5" y="-158" class="st1" width="960" height="560"/>
</g>
<g id="Layer_2">
	<path class="st2" d="M163.2,141.9c319.7-14.7,554.3-34.2,557.3-48.9c0.2-1,0.4-6.6,2-26.7c0.5-6.5,0.8-9.7-1.3-12
		c-3.5-3.8-10.4-1.7-22,0c-6.6,0.9-15.8,1.9-27.3,2c-6.5,7.8-10.2,14.8-12.3,19.7c-3.9,9-4.4,14.7-9,17c-5,2.5-11.6-0.7-16-3.5
		l-79-45.5l2.8-7.9l-8.8-5.1l-15,4.5l-105.3-5.3l-51.2,3.7l-40.9,6.5L226,109.5l-48,3.1l-12-6.1l-27,2.5l0.1,8.8l-85.9,25.9
		l-26,41.3l5.5,14.5l1.2,29.7l6.7,16.7h69c0.1-13.9,0.5-26.7,1-38.3c0.7-15.3,1.2-19.4,2.7-24c2.2-7.1,8-19.6,25.3-31.3"/>
	<path class="st3" d="M225.5,114h20c0,0,73.7-57.4,81-60.1c7.3-2.7,15.3-6.8,15.3-6.8l-4.9-6.7l-111.4,69.1V114z"/>
	<g>
		<path class="st2" d="M159.2,141.7c0.1,1.8,18.7-3.4,37.1,6.5c21.3,11.5,28.9,33,31.1,40.1c4.1,13.5,6.2,44.8,6.2,44.8l288,0.5
			c0,0,0.7-13.1,3.1-28c2.8-17.5,5.1-27.5,12.6-38c2.5-3.6,11.6-16,28.6-21.8c15.1-5.2,28-2.4,36-0.7c9.8,2.1,18.4,4,26,10.7
			c11.6,10.1,15.6,26.7,21.3,50c2.8,11.6,3.1,16.3,7.5,18.8c5.8,3.3,11.5-1.3,33.1-8.8c21.1-7.4,22.9-5.6,27.2-10.2
			c11.3-12,10-36.2,10-36.2L712.5,153l-14.8-57.8c-127.7,11.5-255.4,21.9-383.2,31.1c-9.3,0.7-18.7,1.3-28,2
			c-11.2,0.2-27.9,0.6-48,2C193.8,133.4,159,139.3,159.2,141.7z"/>
	</g>
	<path class="st4" d="M139.1,113.8c0,0-82.6,21.3-85.9,25.9s-27.3,37.3-26,41.3c1.3,4,5.3,9.3,5.3,9.3s0.7,31.3,1.3,34.7
		c0.7,3.3,5.3,14.6,5.3,14.6l1.3,13.9h69c-0.2-7-0.2-20.7,0.5-31c1.6-22.4,2.6-38.9,9.8-51.2c3.1-5.2,13.1-21.5,38.7-29.3
		c5.2-1.1,15-3.3,26.7-0.3c15.4,4,24.8,13.1,28.3,17.1c7.4,10.3,17.8,28.2,20,52.3c0.6,6.5,0.5,12.5,0,17.9l96,0.5l118-1l74,1
		c0-10,1.1-25.1,6.5-42.5c4.3-13.9,7.2-23.5,16-32c15.7-15.3,37.2-15.1,43-15c3.8,0,33.7,0.4,47,20c6.5,9.6,10,25.1,10.5,27.5
		c1.3,6,3.4,11.9,4.5,18c0.7,4.1,1.1,7.2,3.5,10.5c2.2,3,6.5,6.5,6.5,6.5l0,0c0,0,55-15,58-21c8.1-16.1,10.4-30.6,10-36.2L712.5,149
		c0,0-12-55-14-55.5s10.5-1,13.5-3s3-7,3-7v-26h-19.5h-25l-18,33l-18-3c0,0-77.5-46.5-79-46.5s6-6.5,6-6.5l-12-7.3l-15,4.4
		c0,0-76.5-8.1-123.5-4.6s-70.5,7.5-70.5,7.5s-112.5,69-114,71s-37,1.5-42.5,3.5s-18-6.5-18-6.5l-27,2.5L139.1,113.8z"/>
	<path class="st5" d="M139.1,117.8c0,0-82.6,21.3-85.9,25.9s-27.3,37.3-26,41.3c1.3,4,5.3,9.3,5.3,9.3s0.7,31.3,1.3,34.7
		c0.7,3.3,5.3,11.3,5.3,11.3l1.3,10.7h69c-0.2-7-0.2-17.5,0.5-27.8c1.6-22.4,2.6-37.2,9.8-49.5c3.1-5.2,13.1-20.7,38.7-28.5
		c5.2-1.1,15-2.9,26.7,0.2c15.4,4,24.8,13.3,28.3,17.3c7.4,10.3,17.8,28.3,20,52.4c0.6,6.5,0.5,12.5,0,18l96,0.5l118-1l74,1
		c0-10,1.1-25.1,6.5-42.5c4.3-13.9,7.2-23.5,16-32c15.7-15.3,37.2-15.1,43-15c3.8,0,33.7,0.4,47,20c6.5,9.6,10,25.1,10.5,27.5
		c1.3,6,3.4,11.9,4.5,18c0.7,4.1,1.1,7.2,3.5,10.5c2.2,3,6.5,6.5,6.5,6.5l0,0c0,0,55-15,58-21c8.1-16.1,10.4-30.6,10-36.2L712.5,153
		c0,0-12-55-14-55.5s13.7-1,16.7-3s6.3-7,6.3-7V55h-26l-25,1.3l-18,35.6l-18-1.7c0,0-77.5-45.8-79-45.8s6-6.2,6-6.2l-12-7.1l-15,4.5
		c0,0-76.5-8-123.5-4.5s-70.5,7.5-70.5,7.5s-112.5,69-114,71s-37,1.5-42.5,3.5s-18-6.5-18-6.5l-27,2.5L139.1,117.8z"/>
	<path class="st6" d="M251.9,118.3c13.1-13.1,24.7-23.2,33.3-30.3c24.5-20.3,37.9-31.1,58.7-38c9.9-3.3,18.4-4.4,35.3-6.7
		c20.3-2.7,37.2-3.3,49-3.3c14.6-0.3,27.6-0.3,38.7-0.3c21.5,0,26.1,0.4,32,2c14,3.8,26,13.5,33,20c16.4,15.1,28.1,31.9,34.3,41.7
		c-8.7,0.5-22,1.2-38.3,2c-9.1,0.5-25.1,1.3-44.7,2.2c-14.5,0.7-35.6,1.7-61.7,2.8c-24.9,1.4-50,2.8-75.3,4
		C314.5,115.9,283,117.2,251.9,118.3z"/>
	<path class="st7" d="M266.5,113.2c11.9-11.7,22.5-20.8,30.3-27.3c22.3-18.2,34.5-28,53.4-34.2c9-2.9,16.7-4,32.1-6
		c18.4-2.4,33.9-3,44.6-3c13.3-0.2,25.1-0.3,35.2-0.3c19.5,0,23.7,0.3,29.1,1.8c12.7,3.5,23.6,12.2,30,18
		c15,13.6,25.6,28.7,31.2,37.5c-7.9,0.4-20.1,1.1-34.9,1.8c-8.3,0.4-22.9,1.1-40.6,2c-13.2,0.6-32.4,1.5-56.1,2.5
		c-22.7,1.3-45.5,2.5-68.5,3.6C323.5,111,294.9,112.2,266.5,113.2z"/>
	<polygon class="st8" points="416.1,106.3 427,42.8 433.5,42.5 420.9,106 	"/>
	<polyline class="st9" points="233.9,220.7 416.1,219.4 522.3,218.7 	"/>
	<g>
		<path d="M416.1,219.4c0,0-0.3-1.7-0.7-4.6c-0.5-3-1-7.2-1.6-12.3c-0.6-5.1-1.2-11.1-1.7-17.4c-0.2-3.2-0.4-6.5-0.6-9.9
			c-0.2-3.4-0.2-6.8-0.2-10.2c0.1-3.4,0.2-6.9,0.4-10.2c0.2-3.4,0.5-6.7,0.8-9.9c0.3-3.2,0.7-6.3,1.1-9.2c0.4-2.9,0.8-5.7,1.2-8.2
			c0.8-5.1,1.7-9.3,2.3-12.2c0.6-2.9,1-4.6,1-4.6s-0.3,1.7-0.9,4.6c-0.5,2.9-1.2,7.2-2,12.2c-0.4,2.5-0.7,5.3-1.1,8.2
			c-0.3,2.9-0.7,6-1,9.2c-0.3,3.2-0.5,6.5-0.7,9.8c-0.2,3.4-0.3,6.8-0.3,10.2c0,3.4,0,6.8,0.1,10.2c0.1,3.4,0.3,6.7,0.5,9.9
			c0.4,6.4,0.9,12.3,1.4,17.5c0.5,5.1,0.9,9.4,1.3,12.3C415.9,217.7,416.1,219.4,416.1,219.4z"/>
	</g>
	<g>
		<path d="M252.9,117.3c0,0-0.1,0.4-0.3,1.1c-0.2,0.7-0.5,1.8-0.9,3.2c-0.4,1.4-0.8,3-1.3,5c-0.5,1.9-1,4.1-1.5,6.5
			c-1,4.8-2,10.4-2.8,16.4c-0.4,3-0.7,6.2-1,9.4c-0.2,3.2-0.4,6.5-0.5,9.7c-0.1,1.6-0.1,3.2-0.1,4.9c0,1.6-0.1,3.2,0,4.8
			c0,3.2,0.1,6.4,0.2,9.4c0.1,3.1,0.2,6,0.4,8.8c0.2,2.8,0.3,5.4,0.5,7.9c0.4,4.9,0.7,8.9,1,11.8c0.3,2.8,0.5,4.5,0.5,4.5
			s-0.3-1.6-0.6-4.4c-0.4-2.8-0.9-6.9-1.3-11.7c-0.2-2.4-0.4-5.1-0.6-7.9c-0.2-2.8-0.4-5.8-0.5-8.8c-0.1-3.1-0.2-6.2-0.2-9.4
			c0-1.6,0-3.2,0-4.9c0-1.6,0-3.3,0.1-4.9c0.1-3.3,0.3-6.5,0.6-9.7c0.3-3.2,0.6-6.4,1-9.4c0.8-6.1,2-11.7,3.1-16.4
			c0.6-2.4,1.1-4.6,1.7-6.5c0.5-1.9,1-3.6,1.5-4.9c0.4-1.4,0.8-2.4,1-3.2C252.7,117.7,252.9,117.3,252.9,117.3z"/>
	</g>
	<g>
		<path d="M564.5,103.4c0,0,0.1,0.7,0.4,1.9c0.2,1.2,0.5,3,0.7,5.1c0.2,2.1,0.4,4.6,0.5,7.3c0,2.7,0,5.5-0.2,8.3
			c-0.2,2.8-0.6,5.7-1,8.3c-0.4,2.6-1,5-1.5,7.1c-0.5,2.1-1.1,3.7-1.5,4.9c-0.4,1.2-0.6,1.8-0.6,1.8s0.2-0.7,0.5-1.9
			c0.3-1.2,0.7-2.9,1.1-5c0.4-2.1,0.9-4.5,1.3-7.1c0.4-2.6,0.7-5.4,0.9-8.2c0.2-2.8,0.3-5.6,0.3-8.3c0-2.6,0-5.1-0.2-7.2
			c-0.1-2.1-0.2-3.9-0.4-5.1C564.6,104.1,564.5,103.4,564.5,103.4z"/>
	</g>
	<path class="st10" d="M44.5,169.4c0.3-0.1,5-13.6,5-13.6s22.8-12.3,26.3-12.8s17.3-1.5,17.3-1.5s0.5,2.3,0,3.8S78.3,158.8,77.3,161
		s-17.3,15.4-19,15.5C56.5,176.5,44.5,169.4,44.5,169.4z"/>
	<g>
		<path d="M77.3,161c0,0,2.2,1.8,5.6,4.6c0.8,0.7,1.7,1.4,2.7,2.2c1,0.7,2,1.5,3.1,2.2c0.3,0.2,0.6,0.3,0.8,0.4
			c0.2,0.1,0.7,0.1,1,0.2c0.7,0.1,1.3,0.1,2.1,0.2c1.4,0.1,2.8,0.2,4.3,0.2c2.9,0.2,5.8,0.3,8.4,0.4c2.7,0.1,5.2,0.3,7.4,0.4
			c2.2,0.1,4,0.3,5.2,0.3c1.3,0.1,2,0.2,2,0.2s-0.7,0-2,0c-1.3,0-3.1,0-5.2,0c-2.2,0-4.7,0-7.4-0.1c-2.7-0.1-5.6-0.2-8.5-0.3
			c-1.4-0.1-2.9-0.2-4.3-0.3c-0.7-0.1-1.4-0.1-2.1-0.2c-0.2,0-0.4-0.1-0.5-0.1c-0.2-0.1-0.3,0-0.5-0.1c-0.4-0.1-0.7-0.3-1-0.5
			c-1.2-0.7-2.2-1.6-3.1-2.4c-1-0.8-1.8-1.6-2.6-2.3c-1.6-1.4-2.9-2.7-3.8-3.6C77.8,161.5,77.3,161,77.3,161z"/>
	</g>
	<g>
		<path d="M117.5,176.5c0,0-1.2,0.3-3.4,0.8c-2.2,0.5-5.3,1.2-9,2c-3.7,0.8-8.1,1.7-12.8,2.4c-1.2,0.2-2.4,0.3-3.6,0.4
			c-1.3,0.1-2.5,0-3.8,0c-2.5-0.1-5.1-0.1-7.6-0.2c-5.1-0.1-10.2-0.3-15-0.4c-4.8-0.2-9.2-0.3-13-0.5c-3.8-0.2-7-0.3-9.2-0.4
			c-2.2-0.1-3.5-0.2-3.5-0.2s1.3,0,3.5,0c2.2,0,5.4,0,9.2,0.1c3.8,0.1,8.3,0.1,13,0.2c4.8,0.1,9.9,0.2,15,0.3
			c2.5,0.1,5.1,0.1,7.6,0.2c1.2,0,2.5,0.1,3.7,0c1.2-0.1,2.4-0.2,3.6-0.4c4.7-0.7,9.1-1.4,12.9-2.1
			C112.5,177.4,117.5,176.5,117.5,176.5z"/>
	</g>
	<path class="st11" d="M91.8,190.5l-6,41.8c0,0,10.6,2,12.8-0.8s12-38.3,10.5-41S91.8,190.5,91.8,190.5z"/>
	<path class="st12" d="M35,192c0,0,34.8,1.8,42.3,2.5s6-0.7,7.3,1.8s-1.8,32.5-1.8,32.5s-41,1.8-43,0"/>
	<ellipse class="st13" cx="64.1" cy="159" rx="2.4" ry="7.7"/>
	<path class="st12" d="M396.3,133.5h-21.5c-3.2,0-5.7-2.6-5.7-5.8v0c0-3.2,2.6-5.7,5.7-5.7h21.5c3.2,0,5.8,2.6,5.8,5.7v0
		C402,130.9,399.4,133.5,396.3,133.5z"/>
	<path class="st12" d="M544.3,124.1h-21.5c-3.2,0-5.8-2.6-5.8-5.7v0c0-3.2,2.6-5.7,5.8-5.7h21.5c3.2,0,5.8,2.6,5.8,5.7v0
		C550,121.5,547.4,124.1,544.3,124.1z"/>
	<polygon class="st14" points="694,52.8 676.4,95.5 719.9,94.4 722,90.5 722,53 	"/>
	<line class="st15" x1="652.5" y1="90.5" x2="676.2" y2="92.5"/>
	<line class="st15" x1="690.5" y1="50.3" x2="666.6" y2="91.7"/>
	<line class="st15" x1="680.8" y1="51.9" x2="658.2" y2="91"/>
	<line class="st15" x1="684.5" y1="51.9" x2="661.2" y2="91.2"/>
	<path class="st16" d="M674.9,127.5c-0.5-1.8-1.1-4.5-1.3-7.8c-0.2-3.4-0.3-5.1,0.3-6.7c1.8-4.1,8.3-6.1,13.3-5.7
		c2.7,0.2,7.2,2.1,16.1,5.7l0,0l2.2,14.4H674.9z"/>
	<path class="st15" d="M674.9,127.5c0,0,9.5,19.2,14.6,20.7c5.1,1.5,23.1,4.8,23.1,4.8l-7-25.5H674.9z"/>
	<g>
		<path d="M223.2,116c0,0-8.9,1.3-22.1,3.2c-6.6,0.9-14.4,2-22.7,3.2c-8.3,1.1-17.2,2.3-26,3.5c-4.4,0.6-8.8,1.3-13.2,2.1
			c-2.2,0.4-4.3,0.8-6.4,1.2c-2.1,0.4-4.2,0.9-6.3,1.3c-4.1,0.9-8.1,1.8-11.8,2.6c-3.7,0.9-7.3,1.7-10.5,2.5
			c-6.5,1.6-11.9,3.1-15.7,4.1c-3.8,1.1-5.9,1.7-5.9,1.7s8.5-2.8,21.5-6.3c3.2-0.9,6.8-1.8,10.5-2.7c3.7-0.9,7.7-1.9,11.8-2.8
			c2.1-0.4,4.1-0.9,6.3-1.3c2.1-0.4,4.3-0.8,6.4-1.2c4.4-0.8,8.7-1.5,13.2-2.2c8.9-1.2,17.7-2.3,26.1-3.4c8.3-1.1,16.1-2,22.8-2.9
			C214.3,117.1,223.2,116,223.2,116z"/>
	</g>
	<g>
		<path d="M248,135.7c0.1-0.1-0.6-0.3-1.8-0.5c-1.2-0.2-3.1-0.3-5.4-0.5c-4.7-0.3-11.4-0.5-19.5-0.7c-4-0.1-8.4-0.2-13-0.2
			c-4.6,0-9.5,0-14.5,0.1c-5,0.1-10.2,0.3-15.5,0.6c-5.3,0.3-10.6,0.7-16,1.2c-5.3,0.5-10.7,1-15.9,1.7c-5.2,0.7-10.4,1.4-15.3,2.4
			c-1.2,0.2-2.5,0.5-3.7,0.7c-1.2,0.3-2.4,0.5-3.6,0.8c-2.3,0.6-4.6,1.4-6.8,2.1c-4.4,1.5-8.4,3.1-12.2,4.5c-15,5.8-25,10-25,10
			s2.5-1.1,6.8-3c4.3-1.9,10.5-4.5,18-7.6c3.7-1.5,7.8-3.1,12.2-4.7c2.2-0.8,4.4-1.6,6.8-2.2c2.4-0.6,4.8-1.1,7.3-1.6
			c5-1,10.1-1.7,15.4-2.5c5.3-0.7,10.6-1.3,16-1.8c5.4-0.5,10.7-0.9,16-1.1c5.3-0.3,10.5-0.4,15.5-0.5c10.1-0.2,19.5,0.2,27.6,0.4
			c8.1,0.3,14.8,0.7,19.5,1.1c2.3,0.2,4.2,0.4,5.4,0.6C247.4,135.4,248.1,135.6,248,135.7z"/>
	</g>
</g>
<g id="Layer_5">
	<path class="st2" d="M214,137.8"/>
	<path d="M111.9,139c0,0.1,41.4-18.1,100.7-16.7c48.2,1.2,101,18.6,204.7,53.3c27.1,9.1,43.5,15,64.7,10c40.5-9.6,72.3-53.2,80-64
		c5.2-7.3,11.1-16.8,11.3-16.7c0.6,0.4-13.1,32.3-39.3,59.3c-6,6.2-26.6,26.5-60,40.7c-12.3,5.2-48.6,19-94.7,14
		c-55.1-6-106.6-37.1-152.3-64.7c-8.5-5.1-20.4-12.6-38.3-17.3C147.9,126.3,111.8,138.9,111.9,139z"/>
</g>
<g id="Layer_4">
	<path class="st17" d="M519.3,148l12.1,9.4c5.9-5.4,12.9-10.9,21.2-16c30.2-18.6,60.8-21.8,78.9-22c0.8-0.8,1.7-1.7,2.5-2.5
		c-23.7-0.5-57.2,2.5-92.3,18.8C533.5,139.6,526,143.8,519.3,148z"/>
	<path class="st17" d="M467,140.2l39.9,2.6c13-4.9,27.2-9.6,42.6-13.7c31.8-8.5,61-12.7,86.1-14.5c0.5-0.8,1-1.7,1.5-2.5
		c-27.9,2.1-55.8,4.2-83.8,6.3l-0.9,5.8c0,0-2,1.3-5.2,1.7c-3.2,0.4-31.2,0-31.2,0l-26.5,6.2L467,140.2z"/>
	<path class="st17" d="M419.5,212v7L305,220.2c-4.8-0.2-13.3-1.3-22.4-6c-5.8-3-17.4-9-21.6-21.8c-3.8-11.6,0.7-22.1,1.2-23.2
		c6.4-14.3,22.3-19.3,52.8-28.3c0,0,10.7-3.2,51.2-12.3l0,0c0,0,1.5,4,4,4.8s32.5-0.1,32.5-0.1s1.5-1.4,1-5.7
		c-0.5-4.3-1.7-5.8-1.7-5.8l49-5l68.2-6.3l68.8-3.4c15.7,0.4,31.3,0.8,47,1.2c1.4,0.4,2.8,0.8,4.2,1.3c0,0-86.2,4.5-88.2,3.3
		s-9-2-9-2l-25,1.6c0,0-1.2,0.4-1.2,2.9s-13,4.8-13,4.8l-81,19c-13,3.1-29.6,9.6-42.8,23.6c-5.3,5.6-11.1,12-10,20.1
		c1.2,9.2,10.4,14.4,12.5,15.5C394.2,203,406.9,207.5,419.5,212z"/>
	<path class="st17" d="M423.5,143h3l5.3,18.2c0,0,27.5,1.6,28,4s-27.5,4.2-27.5,4.2s-3.8,22.9-5.8,22.6s-6.3-19.5-6.3-19.5
		s-24.8-1.8-27-3.2c-2.3-1.3-2-4.3-2-4.3s27.3-1.8,28-3.8S423.5,143,423.5,143z"/>
	<path class="st17" d="M488.4,149h1.5l2.6,7.7c0,0,13.8,0.6,14,1.6c0.3,1-13.8,1.8-13.8,1.8s-1.9,9.8-2.9,9.7
		c-1-0.1-3.1-8.4-3.1-8.4s-12.4-0.8-13.5-1.4s-1-1.8-1-1.8s13.6-0.6,14-1.5S488.4,149,488.4,149z"/>
	<path class="st17" d="M497.6,168h1.3l2.3,7.5c0,0,12.2,0.6,12.5,1.6c0.2,1-12.2,1.7-12.2,1.7s-1.7,9.6-2.6,9.5
		c-0.9-0.1-2.8-8.2-2.8-8.2s-11-0.8-12-1.3c-1-0.6-0.9-1.8-0.9-1.8s12.1-0.6,12.5-1.5S497.6,168,497.6,168z"/>
	<path class="st17" d="M463.6,170h1.3l2.3,7.5c0,0,12.2,0.6,12.5,1.6c0.2,1-12.2,1.7-12.2,1.7s-1.7,9.6-2.6,9.5
		c-0.9-0.1-2.8-8.2-2.8-8.2s-11-0.8-12-1.3c-1-0.6-0.9-1.8-0.9-1.8s12.1-0.6,12.5-1.5S463.6,170,463.6,170z"/>
	<path class="st17" d="M443.6,183h1.3l2.3,7.5c0,0,12.2,0.6,12.5,1.6c0.2,1-12.2,1.7-12.2,1.7s-1.7,9.6-2.6,9.5
		c-0.9-0.1-2.8-8.2-2.8-8.2s-11-0.8-12-1.3c-1-0.6-0.9-1.8-0.9-1.8s12.1-0.6,12.5-1.5S443.6,183,443.6,183z"/>
	<path class="st17" d="M482.6,183h1.3l2.3,7.5c0,0,12.2,0.6,12.5,1.6c0.2,1-12.2,1.7-12.2,1.7s-1.7,9.6-2.6,9.5
		c-0.9-0.1-2.8-8.2-2.8-8.2s-11-0.8-12-1.3c-1-0.6-0.9-1.8-0.9-1.8s12.1-0.6,12.5-1.5S482.6,183,482.6,183z"/>
</g>
<g id="wheel">
	<path class="st18" d="M639.2,200.3c0.7,30.1-24.7,56.9-55,55.7c-28.1-1.1-50.3-25.9-50.7-53.7c-0.3-28.2,22-54.2,51.3-55
		C614.6,146.5,638.5,171.9,639.2,200.3z"/>
	<path class="st19" d="M627.5,207.3c-0.6,21.6-17.7,43-40.7,43.7c-24.1,0.7-43.2-21.5-43.3-44.7c-0.2-23.9,19.9-46.6,44.3-45.3
		C611.2,162.2,628.2,184.9,627.5,207.3z"/>
	<circle cx="585" cy="205.5" r="13.5"/>
	<polyline class="st15" points="583.2,161 581.9,192 564.5,167.5 	"/>
	<polyline class="st15" points="588,161 588,192 609.7,169.4 	"/>
	<polyline class="st15" points="614.3,173.6 594.9,196.3 624.6,190.1 	"/>
	<polyline class="st15" points="626,194.5 598.5,205.5 626,217.5 	"/>
	<polyline class="st15" points="624.6,221.9 597,211.7 612.3,240.4 	"/>
	<polyline class="st15" points="586.9,251 588,218.7 607.8,243.9 	"/>
	<polyline class="st15" points="558.5,240.6 579,218.7 579,251 	"/>
	<polyline class="st15" points="545.1,194.5 571.5,205.5 546,220.7 	"/>
	<polyline class="st15" points="547.3,223.8 573.9,213.1 554.7,235.9 	"/>
	<polyline class="st15" points="547.3,184.3 572.9,195.5 560.1,166.8 	"/>
	<path class="st18" d="M223.2,204.3c0.7,30.1-24.7,56.9-55,55.7c-28.1-1.1-50.3-25.9-50.7-53.7c-0.3-28.2,22-54.2,51.3-55
		C198.6,150.5,222.5,175.9,223.2,204.3z"/>
	<path class="st19" d="M211.5,207.3c-0.6,21.6-17.7,43-40.7,43.7c-24.1,0.7-43.2-21.5-43.3-44.7c-0.2-23.9,19.9-46.6,44.3-45.3
		C195.2,162.2,212.2,184.9,211.5,207.3z"/>
	<polyline class="st15" points="131.3,188.3 156.9,199.5 144.1,170.8 	"/>
	<circle cx="169" cy="205.5" r="13.5"/>
	<polyline class="st15" points="167.2,161 165.9,192 148.5,167.5 	"/>
	<polyline class="st15" points="172,161 172,192 193.7,169.4 	"/>
	<polyline class="st15" points="198.3,173.6 178.9,196.3 208.6,190.1 	"/>
	<polyline class="st15" points="210,194.5 182.5,205.5 210,217.5 	"/>
	<polyline class="st15" points="208.6,221.9 181,211.7 196.3,240.4 	"/>
	<polyline class="st15" points="170.9,251 172,218.7 191.8,243.9 	"/>
	<polyline class="st15" points="142.5,240.6 163,218.7 163,251 	"/>
	<polyline class="st15" points="129.1,194.5 155.5,205.5 130,220.7 	"/>
	<polyline class="st15" points="131.3,223.8 157.9,213.1 138.7,235.9 	"/>
	<ellipse class="st20" cx="396" cy="262.1" rx="379.5" ry="3"/>
</g>
</svg>
