<?xml version="1.0" encoding="utf-8"?>
<!-- Generator: Adobe Illustrator 19.2.1, SVG Export Plug-In . SVG Version: 6.00 Build 0)  -->
<svg version="1.1" id="Layer_1" xmlns="http://www.w3.org/2000/svg" xmlns:xlink="http://www.w3.org/1999/xlink" x="0px" y="0px"
	 viewBox="0 0 481.5 246.5" style="enable-background:new 0 0 481.5 246.5;" xml:space="preserve">
<style type="text/css">
	.st0{fill:#474747;}
	.st1{fill:#D0D0D0;}
	.st2{fill:#424242;}
	.st3{fill:#7D7D7D;}
	.st4{fill:#C1C1C1;}
	.st5{fill:#FF4D4D;}
	.st6{fill:#555555;}
	.st7{fill:#EFFFA6;}
	.st8{fill:#FF304D;}
	.st9{fill:#1F1F1F;}
	.st10{fill:#FFFFFF;}
	.st11{fill:#DCFF0D;}
</style>
<g>
	<path d="M474.1,78.8c-1-3.2-1.2-6.7-2-10.1c-0.8-3.3-1-7.2-2.9-9.7c-2.2-2.9-5.2-5.3-8.2-7.7c-1-0.4-1.9-0.8-2.9-1.2
		c-0.5-0.1-1-0.2-1.5-0.4c-0.2,0-0.3,0-0.5,0c-5.2-0.2-9.9-2.4-14.6-4.6c-0.5-0.2-0.8-0.6-1.1-0.9c-0.1,0-0.1-0.1-0.2-0.1
		c-10.8-6.1-21.6-12.2-33.4-18.9c0.1,0,0.1,0,0.2,0c-0.6-0.4-1.2-0.7-1.7-1.1c-0.1-0.1-0.3-0.1-0.4-0.2c-1.7-0.9-3-1.9-4.9-2.5
		c-1.9-0.5-4-0.6-5.9-1.1c-0.6-0.1-1-0.4-1.3-0.7c-7.8-0.3-15.5-1-23.1-2.9c-1.7-0.4-4.1-0.6-4.7-1.7c-3-4.8-6.8-4.1-11.2-2.4
		c-2.3,0.9-4.9,1.8-7.2,1.7c-27.5-1.5-55.1-1.8-82.6,0.6c-22,1.9-43.5,5.5-63,16.6c-18.6,10.5-37.2,21.1-56,31.2
		c-6,3.2-12.5,5.7-19.1,7.5c-18.4,5.2-37.4,9-55.4,15.2c-20.9,7.2-39.2,18.8-50.3,38.7c-1.2,2.2-2.2,4.6-2.5,7
		c-1.8,11.2-3.3,22.4-0.8,33.8c0.3,1.5-0.1,3.5-0.8,4.8c-1.7,2.9-3.7,5.6-5.9,8.2c-3.1,3.6-2.3,5.8,2.2,7.2c0.8,0.3,1.6,0.9,2.5,1.4
		c-0.5,0.6-0.7,1-1,1.3c-10.8,8.8-10.3,13.9,1.8,20.7c0.4,0.2,0.8,0.5,1.3,0.7c11.8,5.8,23.4,11.7,35.3,17.2
		c28.8,13.5,59,18.9,90.7,13.5c17-2.9,33.8-7,50.8-10.2c19.2-3.6,37.7-8.6,54.3-19.2c5.5-3.5,11.6-6.2,17.8-8.2
		c14.8-4.7,29.6-9.3,44.6-13c32.5-7.9,65.1-15.2,97.7-22.5c12.9-2.9,26.3-3.2,38.6-8.9c4.3-2,8.8-3.7,13-6c1.2-0.7,2.4-3.3,1.9-4.5
		c-2.1-5.6-0.6-11,4.4-14.1c4.4-2.8,10.6-3.9,7.6-12.1c-1.4-3.8,0.7-8.9,1.3-13.5C475.8,98.1,477.2,88.4,474.1,78.8z M468.8,61.3
		c0.8,2.3,1,4.8,1.5,7.1c-4.9,1.9-10.1,0.2-11.9-3.9c-1-2.3-1.1-4.6,1.9-5.9C464,57.2,467.8,58.2,468.8,61.3z M407.8,131.5
		c-3.1,6.9-7.7,11-15.6,12.2c-9.3,1.4-18.5,3.8-27.7,5.7c-0.7,0.2-1.5,0.1-2.9,0.2c0.3-1.7,0.5-2.8,0.6-3.9c0.2-4.7,2.5-7,7.4-8.1
		c10.1-2.2,20.1-5.2,30.1-7.8c0.7-0.2,1.3-0.6,2-0.9c-0.1-0.4-0.2-0.8-0.4-1.2c-12.5,3.3-25,6.5-37.9,9.9c0-3-0.1-5.5,0-8
		c0.7-13.6,1.5-27.3,2.1-40.9c0.1-2.5,0.1-4.4,3.4-5.1c14.6-3.2,29.2-6.6,44-10c-1.5,7.2-1,8,6.2,11.7c-3.5,1.9-6.9,3.8-10.4,5.6
		c0.2,0.3,0.3,0.6,0.5,0.9c7.6-3.3,15.1-6.6,22.7-9.9c0.5,0.3,1.1,0.7,1.6,1c-1.3,3.9-1.5,8.6-4,11.4
		C419.8,105.5,413.7,118.4,407.8,131.5z M424.4,105.8c-2.1,4.1-4.3,8.3-6.2,12.5c-1.3,2.9-2.1,6-3.4,8.8c-0.6,1.3-2,2.3-3.6,2.9
		C414.8,121.4,417.3,112.4,424.4,105.8z M267.4,78.3c0.4-4,11.9-16.3,20.7-20.7C281.2,64.5,274.3,71.4,267.4,78.3z M287.4,61.9
		c-0.3,7.4-0.6,14.4-1.1,21.4c-0.1,0.7-1.3,1.8-2.1,2c-5,1.1-10,1.9-15,2.8C268.2,79.4,275.1,69.3,287.4,61.9z M284.8,87.1
		c0.1,0.2,0.1,0.5,0.2,0.7c-6.5,1.5-13,3-19.5,4.5c-0.1-0.5-0.2-1-0.3-1.5C271.6,89.5,278.2,88.3,284.8,87.1z M268.8,93.2
		c4.8-1.1,9.6-2.2,15.1-3.4c-1.9,5.6,0.7,8.9,6.1,11.5c-4.6,1.2-8,2.1-11.5,3c-3.5,0.9-7.1,1.6-11,2.5c-0.7-4.4-1.4-8.4-2.1-12.5
		C266.8,93.9,267.8,93.4,268.8,93.2z M285.2,93.8c1.4-3.2,4.1-5.9,6.3-8.8c1.9,1.7,3.8,3.3,5,4.4c-0.4,7.2-2.7,10.4-6.3,9.4
		C288.1,98.2,284.8,94.7,285.2,93.8z M362.5,37.3c-0.1-0.9,1.7-2.9,2.5-2.9c11.6,0.4,23.3,1.1,34.9,1.9c1,0.1,2.4,1.6,2.6,2.7
		c1.3,7.1,2.2,14.2,3.4,22.1c-13.5,2.5-26.1,4.8-39,7.2C365.3,57.5,363.7,47.4,362.5,37.3z M360.8,69.1c-0.9-11.2-1.7-22.5-2.6-33.7
		l2-0.3c0.7,3.9,1.5,7.8,2.1,11.7c0.9,6.1,1.5,12.2,2.3,18.2C364.7,67.5,364.5,69.5,360.8,69.1z M405.5,35.5
		c4.2,2.1,7.3,3.6,10.2,5.3c5.3,3,7.9,10.2,4.2,14.9c-2,2.6-6.4,3.3-10.5,5.2C408,52.2,406.9,44.8,405.5,35.5z M399.5,34.5
		c-11.5-0.6-22.9-1.7-34.4-1.6c-4.9,0-7-1.1-7.3-5.7c14.2-3.7,38.7-0.3,49.2,7.7C404.5,34.8,402,34.6,399.5,34.5z M358.4,67.6
		c0.1,1.1-1.8,2.3-2.8,3.4c-0.6-0.3-1.2-0.7-1.8-1c0-4.7,0.1-9.3,0-14c-0.2-5.8-0.7-11.6-0.9-17.3c0-0.9,1-1.8,1.5-2.7
		c0.6,0.7,1.8,1.4,1.8,2.2C357.2,47.9,357.9,57.7,358.4,67.6z M291.2,61.1c-0.6-0.5-1.2-1-1.7-1.5c0.8-2.4,1-5.4,2.6-7
		c16.3-15.4,36-23.6,58.5-25.5c4.8-0.4,6.3,1.7,6.8,6.6C332,35.4,311,46.7,291.2,61.1z M290.5,62.4c6.5-4,13.1-7.8,19.6-11.8
		c11.1-6.9,23.3-11.1,36-13.8c1.4-0.3,2.8-0.2,5.1-0.4c0.4,7.9,0.8,15.6,1.1,23.2c0.3,11.4,0.3,11.4-10.8,13.7
		c-6.5,1.4-13,2.7-19.8,4.1c-0.3-9.8-8.4-7.7-13.5-9.1c-9.2-2.6-12.9-0.5-19.2,8.6c0-4.3-0.1-8.4,0.1-12.5
		C289,63.8,289.8,62.8,290.5,62.4z M295.7,74.4c-0.6-0.1-1.2-0.1-2.3-0.2c0.6-0.9,0.9-1.6,1.4-2c7.1-5.6,14.2-1.7,21.6-0.2
		c-4,3.4-7.2,7.6-11.4,9.1c-4.3,1.5-9.6,0.3-14.6,0.3c-0.5-5.4,4.1-4.7,7.9-6.3C296.9,74.7,296.3,74.5,295.7,74.4z M317.6,84.8
		c-2.3,2.4-16.9,3-22,0H317.6z M309.2,81.5c-0.1-0.6-0.2-1.1-0.3-1.7c3.3-0.6,6.6-1.2,9.9-1.9l0.4,2.3
		C315.8,80.7,312.5,81.1,309.2,81.5z M297.6,94.2c-0.3-5.4,2.5-6.2,7.1-5.7c2.7,0.3,5.4,0.1,8.2,0c3.5-0.1,6.6-0.5,7.7-4.8
		c0.3-1.1,2.5-2.1,4.1-2.5c9.7-2.1,19.4-4,29.1-6c7.6-1.6,9-0.4,9.5,8.2c-22.4,5.5-44.8,11-67.6,16.6
		C296.4,97.8,297.7,96,297.6,94.2z M362.5,73.8c21.3-6.2,43.8-6.4,64.6-15.7c1.3,3.1,2.6,6,4.2,9.9c-22.1,4.9-43.6,9.8-65.6,14.7
		C364.6,79.5,363.6,76.8,362.5,73.8z M422,57.6c0.4-4.1,0.8-8.2,1.2-12.3c0.4,0.1,0.9,0.1,1.3,0.2C424.1,49.6,426.2,54,422,57.6z
		 M422.5,71.8c3-0.7,5.5-1.3,8-1.8c2.3,12,3.5,10.1-5.1,12.6C428,75.7,428,75.7,422.5,71.8z M433.1,72.1c0.1-1.1,1.4-2.9,2.4-3.1
		c6-1.6,12.1-3.5,18.2-3.9c2.7-0.2,5.5,3,9.4,5.4c-10.3,3.2-19.2,6-29.1,9.1C433.7,76.6,433,74.3,433.1,72.1z M451.8,95.6
		c-3.5-4.1-6.3-4.2-19-0.8c0.6-3.6,1-7.5,1.9-11.2c0.3-1.2,1.5-2.8,2.7-3.2c8.2-2.7,16.4-5.3,24.7-7.6c4.8-1.3,8.9,2.5,7.3,7
		c-1.1,3.2-3.2,6.3-5.5,9c-2,2.4-4.9,3.9-7.4,6c-2.8,2.4-5.3,3.4-9.4,1.8c-5.9-2.4-11.6-0.1-16.4,3.9c-1.9,1.5-3.8,3-5.7,4.5
		C432,95.2,439.4,92.6,451.8,95.6z M206.4,33c10.1-6.4,20.8-5.9,31.9-4.6c16.7,2,33.4,3.7,50.1,5.6c1.7,0.2,3.3,0.7,5.7,1.1
		c-1.1,1.3-1.6,2.2-2.3,2.9c-14.6,12.9-29.4,25.7-43.9,38.8c-5.5,5-11.7,6.2-18.6,5c-24.7-4.4-49.4-8.8-74.2-13.3
		c-1.2-0.2-2.4-0.7-3.5-1c-0.2-0.3-0.5-0.7-0.7-1c0.6-0.2,1.3-0.3,1.9-0.7C170.6,54.9,188.7,44.3,206.4,33z M295,35.1
		c-1.4-1.4-3.7-2.3-5.7-2.6c-17-2.1-33.9-4-50.9-6c0-0.4,0.1-0.8,0.1-1.2c21.2,2.3,42.3,4.6,63.5,6.9c0,0.4,0.1,0.8,0.1,1.3
		c-3,2.3-5.9,4.5-9.3,7.1C293.8,38.3,295.5,35.6,295,35.1z M156.1,60.5c0.1,0.2,0.2,0.3,0.4,0.5c-2.9,2-5.7,4.1-8.6,6.1
		c0,0.5,0,1,0.1,1.6c30,5.8,60.1,11.3,90.2,15.9c-11.3,3.2-23,3.8-34.8,1.6c-22.5-4-44.9-8.5-67.3-12.9c-1.6-0.3-3.2-0.9-5-1.4
		C139.7,68,147.9,64.2,156.1,60.5z M46.5,98.9C60.1,90,75.3,84.6,90.9,80.3c7.2-2,14.5-4,21.8-5.8c6.7-1.7,13-2.6,20.3-0.4
		c13.6,4,27.7,6.3,41.8,8.9c15.1,2.7,30.2,4.9,45.7,7.3c-0.1,2.6-2.5,3.6-5.5,4.3c-22.7,5.4-45.4,11-68.1,16.5
		c-1.4,0.3-2.7,0.7-4.1,1.1c0.1,0.5,0.2,1,0.4,1.5c24.3-5.8,48.5-11.7,72.8-17.5c0.2,0.3,0.3,0.6,0.5,1c-1.4,0.7-2.7,1.6-4.1,2.1
		c-8.3,3.2-16.7,6.3-25.1,9.6c-2,0.8-3.8,2.1-5.7,3.2c10.4-3.7,21.5-6.1,30.9-11.5c8.3-4.8,16.8-8.1,26.1-10.1
		c-0.1-0.5-0.2-1-0.4-1.4c-5.2,1.1-10.4,2.3-15.6,3.4c-0.2-0.4-0.5-0.8-0.7-1.2c1.3-0.9,2.6-2.4,3.9-2.5c12.6-0.3,21.7-7,30.6-14.9
		c11.3-10,23.3-19.3,34.5-29.4C306,30.9,323.2,22.1,344,20.9c1.2-0.1,2.4-0.4,3.6-1.7c-1.4,0-2.8-0.1-4.2,0
		c-13.5,1.7-27,3.7-39,10.8c-1.2,0.7-3.1,0.7-4.6,0.5c-25-2.6-49.9-5.3-73.9-7.8c1.6-0.4,4.7-1.4,7.8-2c28.6-5.5,57.6-6.8,86.6-5.6
		c22.2,1,44.4,3.2,66.4,6c8,1,16,4.5,23.4,8.2c11.4,5.7,22.3,12.3,33.3,18.7c4.7,2.8,9.4,5.3,15.2,4.9c1.5-0.1,3.1,1.2,3.9,1.5
		c-2.5,2.9-4.5,5.2-6.6,7.4c-0.6,0.6-1.6,0.9-2.5,1.1c-6.5,1.5-13.1,3-20.3,4.6c-1.5-6.8-7.7-11.8-6.8-19.5c0.5-4.6-2.9-7.1-6.3-9.3
		c-14-9.4-29.3-15.1-46.4-14.3c-12.9,0.6-25.9,1.6-38.6,3.8c-13.6,2.3-25.7,8.3-36.5,17c-13.6,11-26.9,22.4-37.9,36
		c-1.5,1.8-2.9,3.8-4.1,5.8c-3.5,5.9-2.2,8,4.8,8.2c1,0,2,1.2,3,2c0.2,0.1,0.1,0.6,0.2,0.9c1.8,8.2,1.8,8.2-6.6,12.6
		c-4.8-5.1-11-4.8-17.3-3.5c-7.4,1.5-14.7,3.3-21.9,5.1c-1.6,0.4-3.1,1.3-4.4,2.7c6.8-1.7,13.6-3.4,20.4-5c2.6-0.6,5.3-1.1,8-1.5
		c5.8-0.9,11.3-0.5,15,4.4c2.8-1.4,5.2-2.6,7.9-4c0.7,1.6,1.1,2.7,1.6,3.8c0.5-3.1,2.2-4.6,5.5-5.4c22.9-5.5,45.7-11.2,68.5-16.8
		c1-0.3,2.1-0.4,4.1-0.8c-3.1,3.7-5.4,7-0.9,10.1c3.8,2.6,11.1,1.5,14-2c1.6-2,3.3-3.9,4.9-5.8c-2.2-1.2-4.4-2.4-6.5-3.6
		c-0.2-0.1-0.4-0.5-0.9-1.4c2.7-0.6,5.1-1.2,7.9-1.8c0,9.8,0.3,19.1-0.1,28.3c-0.3,7-1.6,14-2,21.1c-0.2,2.9-1.2,4.1-3.9,4.8
		c-27.8,6.9-55.5,13.9-83.3,20.8c-0.3,0.1-0.6,0-1.8-0.2c-0.4-2.6-1-5.5-1.3-8.3c-1-11.2-1.9-22.5-2.9-33.7c-0.2-1.8-1-3.6-1.5-5.3
		c0.3,5.1,0.2,10.3,1,15.4c0.4,2.6,0,3.8-2.5,4.5c-2.8,0.8-5.5,1.7-8.2,2.7c-4.2,1.6-7.8,1.1-12.2-0.7c-13.4-5.3-26.5-3.2-38.2,4.9
		c-5.6,3.9-10.5,8.7-15.4,13.5c-2.2,2.2-3.7,2.7-5.8,0.3l0,0c-7.8-2.9-15.6-5.7-23.9-8.8c2.8-3.1,5.3-5.4,7.2-8.1
		c1.5-2,2.2-4.6,3.3-6.9l-7.3-2.4c1.3,0.6,2.8,1,3.8,1.9c0.9,0.9,1.2,2.4,1.4,2.7c-13.9,2.2-26.8-2-39.9,1.6c0-0.4,0-0.8-0.1-1.2
		c11.7-1.7,23.3-3.3,35-5c-5.3,0.1-10.5,0.2-15.8,0.4c-0.6,0-1.2,0.2-2.6,0.3c3.4-2.6,6.2-4.7,9-6.8c-8.2,3-15,8.8-24.2,9.7
		c-8.6,0.8-17,2.8-25.5,4.1c-1,0.2-2.3-0.2-3.1-0.7c-19.4-11.6-41.3-17-62.3-24.5c-1.6-0.6-3.3-1.1-6.1-2.1
		C38.9,104.4,42.6,101.5,46.5,98.9z M256.5,93.1c0.1-6,4.4-9.4,8.4-14.5C265.4,91.4,263.8,94,256.5,93.1z M360.8,91.1
		c0.2,0.7,0.3,1.4,0.5,2.1c-5.4,1.1-10.7,2.3-16.1,3.4c-0.1-0.5-0.3-1-0.4-1.5C350.1,93.8,355.5,92.5,360.8,91.1z M361,140.3
		c-0.2,9.8-0.2,9.8-8.5,11.8c-24.4,5.9-48.8,11.9-73.1,17.9c-5.8,1.4-7.3,0.2-6.2-5.3c0.3-1.3,2.3-2.8,3.7-3.2
		c22.8-5.8,45.6-11.4,68.4-17.1C350.4,143.1,355.4,141.7,361,140.3z M267.8,138.3c0.3,0.3,0.8,0.7,0.8,1c0.5,5.6,0.9,11.1,1,16.7
		c-1.8-5.8-3.5-11.6-3.8-17.5C266.5,138.5,267.1,138.4,267.8,138.3z M257.2,139c-0.2-0.5-0.4-1-0.6-1.6c3.5-1.3,7.1-2.6,10.6-3.9
		c0.2,0.5,0.4,1,0.6,1.5C264.3,136.4,260.8,137.7,257.2,139z M225.9,138.2c-5.5,0.7-11.2,1.5-16.6,2.2
		C213.2,136.1,218.3,135.4,225.9,138.2z M98.1,149.2c2.4-8.9,5.3-9.5,13.9-8.2C109.9,151.4,110.9,151.3,98.1,149.2z M114.8,140.3
		v9.9c-0.6,0.3-1.9,0.9-4.1,2C112.1,148,113.2,144.7,114.8,140.3z M95,151.1c-1.9-0.2-4.5-0.4-7.1-0.6c0.6-8.2,3.3-10.7,13.2-12.4
		C99.2,142.2,97.3,146.2,95,151.1z M72.1,155.3c3.3-12.1,6.1-14.5,17-15.4C86.1,150.4,84.7,151.7,72.1,155.3z M104.9,153.8
		c-9.7,9.2-21.3,3.3-32.3,5C77.8,152.8,91.5,150.9,104.9,153.8z M113.4,155.1c1.4,0.8,3.4,0.8,5.1,0.6c10.4-1,20.7-2.2,29.3-3.2
		c-5.1,3.5-27.8,6.9-45.9,5.7C106,155.8,108.7,152.6,113.4,155.1z M116,145.6c1.2-1.9,2.2-5.3,3.7-5.6c6.5-1,13.2-1.1,20.3-1.6
		c-0.6,7.2-1.8,8.5-7.5,8.9c-4.1,0.3-8.3,0.7-12.4,0.6C118.7,147.8,117.4,146.4,116,145.6z M136.5,151.6c-6.1,0.8-12.3,0.9-18.5,1.4
		c0-0.4-0.1-0.7-0.1-1.1c5-0.5,10.1-1,15.1-1.6c4.9-0.6,9.5-5.7,8.9-10.4c-0.2-1.2-3.1-3-4.7-2.9c-8.8,0.3-17.6,1-26.5,0.6
		c13.3-1.7,26.6-3.3,40-5C151.2,142.7,145.3,150.4,136.5,151.6z M164.7,133.4c-1.1,4.2-7.2,9.6-14.4,12.6
		C152.5,136.1,153.1,135.6,164.7,133.4z M22.9,138c5.9,3.4,11.7,7.2,18,10.1c6.2,2.9,12.8,4.8,19.4,7.3c-1.7,7.4-1.8,7.5-8.4,4.7
		c-7.2-3.1-14.2-6.5-21.4-9.5C24.4,148.1,22.6,143.5,22.9,138z M20.5,130.3c0.4,4.2,0.2,8.6,1.4,12.5c0.9,3,3.2,6.5,5.8,7.9
		c8.6,4.5,17.6,8.2,26.5,12.2c3.2,1.4,5.4,0.8,6.6-2.9c1.2-3.9,3-7.6,4.4-11.5c1.6-4.3-0.4-9.4-4.6-11.1c-12.4-4.9-25-9.7-37.5-14.4
		c-0.1-0.6-0.2-1.2-0.2-1.8c1.5-0.2,3.2-1,4.4-0.5c11.8,4.1,23.5,8.3,35.1,12.9c6.8,2.6,9.3,8.9,6.4,15.3
		c-2.4,5.3-5.1,10.5-8.2,15.4c-0.8,1.3-4.1,2.6-5.4,2c-10.9-4.9-21.6-10.2-32.2-15.7c-1.6-0.9-2.8-3.8-3-5.8
		C19.6,140,19.9,135.1,20.5,130.3z M19.6,169.5c0.4,0.9,1,2.4,1.7,4c0.4-0.3,0.7-0.7,1.1-1c-1-3.3-1.9-6.6-2.9-9.9
		c0.5-0.2,1-0.5,1.6-0.7c0.8,1.4,1.5,3,2.5,4.3c2,2.8,3.5,6.4,6.2,8c12.4,7.1,25.2,13.7,38,20.1c3.8,1.9,6.4,3.8,5.9,8.6
		c2.2-3.2-3.8-17.4-10.6-26v4c-4.9-2.1-9.6-3.8-14.1-6c-10.1-5.1-20-10.5-29.9-15.9c-0.9-0.5-1.6-1.9-1.6-2.9
		c-0.2-3.9-0.1-7.8-0.1-10.2c1.7,2,3.6,5.5,6.6,7.1c9.7,5.2,19.7,9.9,29.6,14.5c4.1,1.9,7.4,0.9,9.5-3.5c2.1-4.3,4.6-8.3,6.7-12.5
		c4.7-9.8,1.8-16.7-8.5-20.5c-9.6-3.6-19.2-7-28.8-10.5c-1.9-0.7-3.8-1.5-6.5-2.5c2.4-2.8,4.4-5.3,6.7-7.6c0.5-0.5,1.8-0.7,2.5-0.5
		c21.7,7.2,43.9,13,64,24.2c0.4,0.2,0.6,0.7,1.1,1.3c-6.1,1.4-12,2.8-17.9,3.9c-4.6,0.8-7.3,3.4-8.9,7.6c-1,2.8-2.4,5.5-3.7,8.2
		c-1.3,2.8-0.2,4.2,2.6,4.7c0.9,0.2,1.9,0.4,2.8,0.4c21.3,1,42.7,0.2,63.7-3.1c7-1.1,13.4-6.1,20.1-9.3c1.2-0.6,2.7-1.7,3.6-1.4
		c8.5,3.3,16.8,6.8,25.5,10.4c-8.5,13.6-11.8,28-11.8,43.2c0,1.2-1.6,3-2.9,3.4c-11.5,3.2-23.1,6.1-35.8,9.4
		c11.1-8,20-17.1,27.5-27.3c-0.4-0.3-0.7-0.6-1.1-0.9c-0.9,1.1-1.8,2.3-2.8,3.3c-6.8,6.8-13.4,13.9-20.6,20.4
		c-6,5.5-13.2,7.3-21.7,6.2c-14.3-1.9-28.8-2.6-43.2-3.9c-1.9-0.2-3.8-1.1-5.5-1.1c18.5,0,37,0,55.6,0c2.4,0,4.9-0.2,7.1-0.9
		c4-1.3,6.2-4.2,5.3-8.3c-1.6-7.4-3.5-14.7-5.5-22c-1.3-4.8-4.8-7.4-9.9-7.5c-16.2-0.2-32.4-0.3-48.5-0.4c-0.4,0-0.8,0.3-1.2,0.5
		c0,0.4,0,0.9,0,1.3h23.1c0,0.5,0,1,0,1.5c-3.1,0-6.2-0.2-9.2,0c-5.2,0.4-6.8,3.2-4.1,7.6c3.6,5.9,7.7,11.6,11.6,17.3
		c3.2,4.7,7.6,7,13.3,7.1c7,0.1,14.1,0.4,21.1,0.3c5.5-0.1,7.1-2.3,5.9-7.6c-1.2-5.4-2.6-10.7-3.9-16.1c-1.1-4.9-3.2-9-9.1-9.5
		c5.3-0.5,8.4,2,9.6,6.8c1.6,6.1,3.3,12.2,4.6,18.3c1.5,6.9-0.8,9.7-8.1,9.8c-12.3,0.2-24.7,0-37,0c-1.6,0-3.2,0-4.8-0.1
		c-8.7-0.5-17.4,0-24.3-7.3c-2.9-3-7.8-4.2-11.7-6.4c-6.6-3.6-13.1-7.2-19.7-10.8c-5.3-3-10.6-6.1-16-9.3
		C15.5,172.8,17.2,171.4,19.6,169.5z M117.6,177.8c8.5-1.7,10-0.7,11.2,7.5C118.6,187.1,117.4,186.4,117.6,177.8z M129.5,187.4
		c0.3,2.3,0.4,4,0.8,5.5c1.3,4.9,1.6,9.9-4.4,9.8V190C126.5,189.6,128.1,188.4,129.5,187.4z M120.6,202.6
		c-14.2,3.2-26.2-2.4-31.1-14.6c2,0.6,4,1.6,6,1.6c7.3,0.2,14.6,0.1,21.4,0.1C118.4,194.7,119.5,198.6,120.6,202.6z M116,178.3
		c-0.7,2.1,0,4.6,0.2,7.9c-3.5-0.3-6.4-0.8-9.3-0.9c-5.4-0.1-10.8,0-16.2,0.1c-3.2,0-8-4.7-7-7.5c0.4-1.3,3.1-2.6,4.7-2.6
		c10.7-0.2,21.4-0.1,31.1-0.1C118.8,175.7,116.5,176.7,116,178.3z M60.1,200.5c-0.2,0.3-0.3,0.7-0.5,1c-4.4-2.3-8.8-4.5-13.2-6.8
		c-0.1,0,0.1-0.4,0.1-0.9C51.1,196.1,55.6,198.3,60.1,200.5z M110.6,219.5c-13.2-1.4-26.4-3-39.6-4.4c-2.1-0.2-4.2,0.2-5.9,0.4
		c-18.4-11.3-36.8-22.6-55.3-34c1-3.7,3.4-4.3,6.8-2.6c2,1,4,2,5.9,3.1c12.6,7.1,25.2,14.3,37.8,21.5c1.2,0.7,2.8,1.2,3.6,2.3
		c4.8,5.8,11.5,6.9,18.5,7.6c15.7,1.6,31.5,3.2,46.9,4.7C123.6,220.4,117.1,220.2,110.6,219.5z M174.2,212.6
		c-14.9,2.7-29.8,5.6-44.9,7.4c15.9-5,31.9-10,47.7-15C179.2,209.6,178.9,211.8,174.2,212.6z M205.4,222.9
		c-15.8-0.4-28.6-14.4-27.2-29.9c1.4-15.9,5.7-30.6,17.7-42.2c11.7-11.3,31.7-14.1,45.2-5c8.7,5.8,12.1,15.2,13.4,25.2
		c0.2,1.6,0.2,3.1,0.2,3.9C254.6,201.4,231.5,223.5,205.4,222.9z M265.9,194.4c-0.1,0.6-0.3,1.2-0.7,2.7c-4.1-1.5-7.8-2.8-11.8-4.2
		c4.1-12.7,4.6-24.8-1.6-36.6c-6-11.6-15.4-19.1-29.4-20.9c11.7-5.4,26.8-0.1,33.4,11.2C264.6,161.5,267.9,177.4,265.9,194.4z
		 M268.8,185.6c-1.3-8.2-1.6-16.8-4.2-24.6c-2.7-7.8-7.7-14.8-11.5-21.8c2.9,0.2,6.4,0.5,10.7,0.9c0.6,2.6,1.4,6.2,2.3,9.8
		c1.7,7.3,3.5,14.7,5,22c1.4,6.8,2.7,8.1,10.3,8.7C276.9,182.4,272.9,184,268.8,185.6z M290.1,181c-0.1-0.3-0.1-0.5-0.2-0.8
		c7.9-1.9,15.8-3.9,23.6-5.8c0.1,0.3,0.1,0.6,0.2,0.9C305.8,177.2,298,179.1,290.1,181z M335.2,170c-0.1-0.3-0.2-0.6-0.3-0.9l19-5.1
		c0.1,0.3,0.2,0.6,0.3,0.9C347.9,166.6,341.5,168.3,335.2,170z M328,169.1c-1.2,0.3-2.4,0.5-3.8,0.2c26.1-7.5,52.2-15,78.4-22.5
		l-0.4-1.5c-1,0.2-2.1,0.3-3.1,0.6c-37.6,10.5-75.2,21-112.7,31.5c-1.8,0.5-3.7,0.9-5.6,1.2c-4.7,0.6-5.9-0.3-7.6-6.1
		c38.8-8.9,77.3-17.9,115.8-26.4c8.3-1.8,15.9-3.6,19.7-12.1c0.5-1,2.4-1.4,4.5-2.6c-0.7,4.2-1.3,7.2-1.8,10.3
		c-0.1,0.5-0.1,1.1-0.4,1.3c-4.8,3-9.3,7.3-14.6,8.8C373.7,157.9,350.8,163.3,328,169.1z M410.4,146.1c1.5,4.9,1,5.3-5.8,4.6
		C406.5,149.2,408.4,147.7,410.4,146.1z M406.2,156.8c0.4-0.6,0.5-1,0.7-1c6.8-2,6.6-2.4,6.5-10.8c-0.1-5.5,1.3-10.9,2.1-16.4
		c0.5,0.1,1,0.2,1.5,0.3c-1.2,11.6-1.9,23,9.3,32.5C418.3,161.1,411.8,161.2,406.2,156.8z M442.9,154.9c-9,9.9-19.9,7-23.5-5.9
		c-2.4-8.4-1.5-16.9,0.4-25.2c1-4.2,2.5-8.5,4.5-12.4c3.7-7.1,11.9-12.2,17.3-10.5c7.3,2.4,9.5,8.7,10.6,15.5l-0.1-0.1
		C455.8,130.7,452.9,143.8,442.9,154.9z M458.9,142.1c-0.1,0.4-0.4,0.8-0.8,1.4c-4,0.2-5.8-0.8-4.5-5.4c2.3-8.5,2.4-17-0.4-25.5
		c-2.2-6.6-5.5-12-12.6-14.4c6.9-1.2,11.6,0.9,13.9,7.1C458.9,117.1,461.2,129.4,458.9,142.1z M473.6,102c-0.5,4.2-1.6,8.4-1.6,12.6
		c0,6.9-4.5,9.4-9.7,11.8c-2.7-9.2-5.3-18.1-8.1-27.6c5.4-6,16.1-8.6,17.6-19.5C475.3,86.8,474.5,94.4,473.6,102z"/>
	<path class="st0" d="M164.9,127.3c-5.2,0.1-10.5,0.2-15.7,0.4c-0.6,0-1.2,0.2-2.6,0.3c3.4-2.6,6.2-4.7,9-6.8
		c8.6-3.1,17.2-6.1,25.9-9.2c10.4-3.7,21.5-6.1,30.9-11.5c8.3-4.8,16.8-8.1,26.1-10.1c-0.1-0.5-0.2-1-0.4-1.4
		c-5.2,1.1-10.4,2.3-15.6,3.4c-0.2-0.4-0.5-0.8-0.7-1.2c1.3-0.9,2.6-2.4,3.9-2.5c12.6-0.3,21.7-7,30.6-14.9
		c11.3-10,23.3-19.3,34.5-29.4C306,30.9,323.2,22.1,344,20.9c1.2-0.1,2.4-0.4,3.6-1.7c-1.4,0-2.8-0.1-4.2,0
		c-13.5,1.7-27,3.7-39,10.8c-1.2,0.7-3.1,0.7-4.6,0.5c-25-2.6-49.9-5.3-73.9-7.8c1.6-0.4,4.7-1.4,7.8-2c28.6-5.5,57.6-6.8,86.6-5.6
		c22.2,1,44.4,3.2,66.4,6c8,1,16,4.5,23.4,8.2c11.4,5.7,22.3,12.3,33.3,18.7c4.7,2.8,9.4,5.3,15.2,4.9c1.5-0.1,3.1,1.2,3.9,1.5
		c-2.5,2.9-4.5,5.2-6.6,7.4c-0.6,0.6-1.6,0.9-2.5,1.1c-6.5,1.5-13.1,3-20.3,4.6c-1.5-6.8-7.7-11.8-6.8-19.5c0.5-4.6-2.9-7.1-6.3-9.3
		c-14-9.4-29.3-15.1-46.4-14.3c-12.9,0.6-25.9,1.6-38.6,3.8c-13.6,2.3-25.7,8.3-36.5,17c-13.6,11-26.9,22.4-37.9,36
		c-1.5,1.8-2.9,3.8-4.1,5.8c-3.5,5.9-2.2,8,4.8,8.2c1,0,2,1.2,3,2c0.2,0.1,0.1,0.6,0.2,0.9c1.8,8.2,1.8,8.2-6.6,12.6
		c-4.8-5.1-11-4.8-17.3-3.5c-7.4,1.5-14.7,3.3-21.9,5.1c-1.6,0.4-3.1,1.3-4.4,2.7c6.8-1.7,13.6-3.4,20.4-5c2.6-0.6,5.3-1.1,8-1.5
		c5.8-0.9,11.3-0.5,15,4.4c2.8-1.4,5.2-2.6,7.9-4c0.7,1.6,1.1,2.7,1.6,3.8l-0.1-0.1c0.3,5.1,0.2,10.3,1,15.4c0.4,2.6,0,3.8-2.5,4.5
		c-2.8,0.8-5.5,1.7-8.2,2.7c-4.2,1.6-7.8,1.1-12.2-0.7c-13.4-5.3-26.5-3.2-38.2,4.9c-5.6,3.9-10.5,8.7-15.4,13.5
		c-2.2,2.2-3.7,2.7-5.8,0.3c1.5-0.7,3.6-1.1,4.5-2.2c7.1-8.8,15.7-15.5,26.7-19.1c1-0.3,1.7-1.5,2.5-2.3c7.1,0,14.2,0,21.3,0
		c-7.1-1.9-14.2-1.9-21.3,0c-12.6,3-22.2,10.4-30.2,20.2c-1,1.3-2.3,2.3-3.5,3.5c-7.8-2.9-15.6-5.7-23.9-8.8
		c2.8-3.1,5.3-5.4,7.2-8.1c1.5-2,2.2-4.6,3.3-6.9c-2.4-0.8-4.9-1.6-7.3-2.4L164.9,127.3z"/>
	<path class="st0" d="M73.1,172c7.7,0,15.4,0,23.1,0c0,0.5,0,1,0,1.5c-3.1,0-6.2-0.2-9.2,0c-5.2,0.4-6.8,3.2-4.1,7.6
		c3.6,5.9,7.7,11.6,11.6,17.3c3.2,4.7,7.6,7,13.3,7.1c7,0.1,14.1,0.4,21.1,0.3c5.5-0.1,7.1-2.3,5.9-7.6c-1.2-5.4-2.6-10.7-3.9-16.1
		c-1.1-4.9-3.2-9-9.1-9.5c5.3-0.5,8.4,2,9.6,6.8c1.6,6.1,3.3,12.2,4.6,18.3c1.5,6.9-0.8,9.7-8.1,9.8c-12.3,0.2-24.7,0-37,0
		c-1.6,0-3.2,0-4.8-0.1c-8.7-0.5-17.4,0-24.3-7.3c-2.9-3-7.8-4.2-11.7-6.4c-6.6-3.6-13.1-7.2-19.7-10.8c-5.3-3-10.6-6.1-16-9.3
		c1-0.8,2.7-2.1,5.1-4c0.4,0.9,1,2.4,1.7,4c0.4-0.3,0.7-0.7,1.1-1c-1-3.3-1.9-6.6-2.9-9.9c0.5-0.2,1-0.5,1.6-0.7
		c0.8,1.4,1.5,3,2.5,4.3c2,2.8,3.5,6.4,6.2,8c12.4,7.1,25.2,13.7,38,20.1c3.8,1.9,6.4,3.8,5.9,8.6c2.2-3.2-3.8-17.4-10.6-26
		c0,1.3,0,2.3,0,4c-4.9-2.1-9.6-3.8-14.1-6c-10.1-5.1-20-10.5-29.9-15.9c-0.9-0.5-1.6-1.9-1.6-2.9c-0.2-3.9-0.1-7.8-0.1-10.2
		c1.7,2,3.6,5.5,6.6,7.1c9.7,5.2,19.7,9.9,29.6,14.5c4.1,1.9,7.4,0.9,9.5-3.5c2.1-4.3,4.6-8.3,6.7-12.5c4.7-9.8,1.8-16.7-8.5-20.5
		c-9.6-3.6-19.2-7-28.8-10.5c-1.9-0.7-3.8-1.5-6.5-2.5c2.4-2.8,4.4-5.3,6.7-7.6c0.5-0.5,1.8-0.7,2.5-0.5c21.7,7.2,43.9,13,64,24.2
		c0.4,0.2,0.6,0.7,1.1,1.3c-6.1,1.4-12,2.8-17.9,3.9c-4.6,0.8-7.3,3.4-8.9,7.6c-1,2.8-2.4,5.5-3.7,8.2c-1.3,2.8-0.2,4.2,2.6,4.7
		c0.9,0.2,1.9,0.4,2.8,0.4c21.3,1,42.7,0.2,63.7-3.1c7-1.1,13.4-6.1,20.1-9.3c1.2-0.6,2.7-1.7,3.6-1.4c8.5,3.3,16.8,6.8,25.5,10.4
		c-8.5,13.6-11.8,28-11.8,43.2c0,1.2-1.6,3-2.9,3.4c-11.5,3.2-23.1,6.1-35.8,9.4c11.1-8,20-17.1,27.5-27.3c-0.4-0.3-0.7-0.6-1.1-0.9
		c-0.9,1.1-1.8,2.3-2.8,3.3c-6.8,6.8-13.4,13.9-20.6,20.4c-6,5.5-13.2,7.3-21.7,6.2c-14.3-1.9-28.8-2.6-43.2-3.9
		c-1.9-0.2-3.8-1.1-5.5-1.1c18.5,0,37,0,55.6,0c2.4,0,4.9-0.2,7.1-0.9c4-1.3,6.2-4.2,5.3-8.3c-1.6-7.4-3.5-14.7-5.5-22
		c-1.3-4.8-4.8-7.4-9.9-7.5c-16.2-0.2-32.4-0.3-48.5-0.4c-0.4,0-0.8,0.3-1.2,0.5C73.1,171.2,73.1,171.6,73.1,172z"/>
	<path class="st0" d="M181.5,112c-8.6,3.1-17.3,6.1-25.9,9.2c-8.1,3-14.9,8.8-24.1,9.7c-8.6,0.8-17,2.8-25.5,4.1
		c-1,0.2-2.3-0.2-3.1-0.7c-19.4-11.6-41.3-17-62.3-24.5c-1.6-0.6-3.3-1.1-6.1-2.1c4.5-3.3,8.2-6.2,12.1-8.8
		C60.1,90,75.3,84.6,90.9,80.3c7.2-2,14.5-4,21.8-5.8c6.7-1.7,13-2.6,20.3-0.4c13.6,4,27.7,6.3,41.8,8.9c15.1,2.7,30.2,4.9,45.7,7.3
		c-0.1,2.6-2.5,3.6-5.5,4.3c-22.7,5.4-45.4,11-68.1,16.5c-1.4,0.3-2.7,0.7-4.1,1.1c0.1,0.5,0.2,1,0.4,1.5
		c24.3-5.8,48.5-11.7,72.8-17.5c0.2,0.3,0.3,0.6,0.5,1c-1.4,0.7-2.7,1.6-4.1,2.1c-8.3,3.2-16.7,6.3-25.1,9.6
		C185.2,109.6,183.4,110.9,181.5,112z M42.8,107.8c13.5-7.1,25.7-16.4,42-17.6c-1.1,4.2,1.5,5.3,4.8,6.1c7.1,1.7,14.2,3.5,21.3,5.3
		c0,0.3,0,0.7,0.1,1c-11.2,4.9-22.5,9.9-33.7,14.8c0.2,0.5,0.4,1,0.7,1.6c1.2-0.5,2.5-0.8,3.7-1.4c4.5-2.1,8.8-4.5,13.4-6.3
		c8.2-3.2,16.5-6,24.7-9.3c1.8-0.7,3.2-2.7,4.7-4.1c-1.5-1.6-2.8-4.2-4.7-4.8c-7.9-2.5-15.9-4.7-24.1-6.2c-4-0.7-8.6-0.2-12.6,0.7
		c-13.4,3.2-25.3,9.6-36.7,17.1C45,105.5,43.9,106.7,42.8,107.8z M106.1,115.1c-0.2-0.4-0.4-0.8-0.6-1.2c-6.2,3.2-12.4,6.3-18.6,9.5
		c0.2,0.6,0.4,1.1,0.6,1.7c14.2,0.3,27.1-5.9,40.9-7.6c-0.1-0.6-0.2-1.1-0.3-1.7c-11.8,2.7-23.6,5.4-35.5,8
		c-0.2-0.4-0.3-0.8-0.5-1.2C96.8,120.1,101.4,117.6,106.1,115.1z M114.7,109.6c0.2,0.5,0.3,1,0.5,1.5c14.2-4.3,28.3-8.6,42.5-12.8
		c-0.2-0.5-0.3-1-0.5-1.5C143,101.1,128.8,105.3,114.7,109.6z"/>
	<path class="st0" d="M267,112.8c0.5-3.1,2.2-4.6,5.5-5.4c22.9-5.5,45.7-11.2,68.5-16.8c1-0.3,2.1-0.4,4.1-0.8
		c-3.1,3.7-5.4,7-0.9,10.1c3.8,2.6,11.1,1.5,14-2c1.6-2,3.3-3.9,4.9-5.8c-2.2-1.2-4.4-2.4-6.5-3.6c-0.2-0.1-0.4-0.5-0.9-1.4
		c2.7-0.6,5.1-1.2,7.9-1.8c0,9.8,0.3,19.1-0.1,28.3c-0.3,7-1.6,14-2,21.1c-0.2,2.9-1.2,4.1-3.9,4.8c-27.8,6.9-55.5,13.9-83.3,20.8
		c-0.3,0.1-0.6,0-1.8-0.2c-0.4-2.6-1-5.5-1.3-8.3c-1-11.2-1.9-22.5-2.9-33.7c-0.2-1.8-1-3.6-1.5-5.4
		C266.9,112.7,267,112.8,267,112.8z"/>
	<path class="st1" d="M150.7,66.5c0.6-0.2,1.3-0.3,1.9-0.7c18-10.9,36.1-21.6,53.8-32.8c10.1-6.4,20.8-5.9,31.9-4.6
		c16.7,2,33.4,3.7,50.1,5.6c1.7,0.2,3.3,0.7,5.7,1.1c-1.1,1.3-1.6,2.2-2.3,2.9c-14.6,12.9-29.4,25.7-43.9,38.8
		c-5.5,5-11.7,6.2-18.6,5c-24.7-4.4-49.4-8.8-74.2-13.3c-1.2-0.2-2.4-0.7-3.5-1C151.2,67.2,151,66.8,150.7,66.5z"/>
	<path class="st0" d="M361.7,149.7c0.3-1.7,0.5-2.8,0.6-3.9c0.2-4.7,2.5-7,7.4-8.1c10.1-2.2,20.1-5.2,30.1-7.8
		c0.7-0.2,1.3-0.6,2-0.9c-0.1-0.4-0.2-0.8-0.4-1.2c-12.5,3.3-25,6.5-37.9,9.9c0-3-0.1-5.5,0-8c0.7-13.6,1.5-27.3,2.1-40.9
		c0.1-2.5,0.1-4.4,3.4-5.1c14.6-3.2,29.2-6.6,44-10c-1.5,7.2-1,8,6.2,11.7c-3.5,1.9-6.9,3.8-10.4,5.6c0.2,0.3,0.3,0.6,0.5,0.9
		c7.6-3.3,15.1-6.6,22.7-9.9c0.5,0.3,1.1,0.7,1.6,1c-1.3,3.9-1.5,8.6-4,11.4c-9.8,11-16,23.9-21.8,36.9c-3.1,6.9-7.7,11-15.6,12.2
		c-9.3,1.4-18.5,3.8-27.7,5.7C363.8,149.6,363,149.6,361.7,149.7z"/>
	<path class="st1" d="M321.6,77.5c-0.3-9.8-8.4-7.7-13.5-9.1c-9.2-2.6-12.9-0.5-19.2,8.6c0-4.3-0.1-8.4,0.1-12.5
		c0-0.7,0.8-1.6,1.5-2.1c6.5-4,13.1-7.8,19.6-11.8c11.1-6.9,23.3-11.1,36-13.8c1.4-0.3,2.8-0.2,5.1-0.4c0.4,7.9,0.8,15.6,1.1,23.2
		c0.3,11.4,0.3,11.4-10.8,13.7C334.9,74.8,328.4,76.1,321.6,77.5z"/>
	<path class="st2" d="M254.7,174.9c-0.1,26.5-23.2,48.7-49.3,48.1c-15.8-0.4-28.6-14.4-27.2-29.9c1.4-15.9,5.7-30.6,17.7-42.2
		c11.7-11.3,31.7-14.1,45.2-5c8.7,5.8,12.1,15.2,13.4,25.2C254.7,172.5,254.7,174.1,254.7,174.9z M186.1,186
		c0.1,12,3.8,21.5,14.6,26.9c10.3,5.1,20.6,4.5,29.8-2.5c11.5-8.7,18-20.4,18.5-34.7c0.4-11.1-4.5-19.9-14.3-25.5
		c-9.5-5.4-19.1-4.1-28.2,1.3C193,159.5,186.4,171.3,186.1,186z"/>
	<path class="st1" d="M405.9,61.1c-13.5,2.5-26.1,4.8-39,7.2c-1.6-10.8-3.1-20.8-4.4-30.9c-0.1-0.9,1.7-2.9,2.5-2.9
		c11.6,0.4,23.3,1.1,34.9,1.9c1,0.1,2.4,1.6,2.6,2.7C403.7,46.1,404.7,53.2,405.9,61.1z"/>
	<path class="st3" d="M273.1,172.4c38.8-8.9,77.3-17.9,115.8-26.4c8.3-1.8,15.9-3.6,19.7-12.1c0.5-1,2.4-1.4,4.5-2.6
		c-0.7,4.2-1.3,7.2-1.8,10.3c-0.1,0.5-0.1,1.1-0.4,1.3c-4.8,3-9.3,7.3-14.6,8.8c-22.6,6.3-45.5,11.7-68.3,17.4
		c-1.2,0.3-2.4,0.5-3.8,0.2c26.1-7.5,52.2-15,78.4-22.5c-0.1-0.5-0.3-1-0.4-1.5c-1,0.2-2.1,0.3-3.1,0.6
		c-37.6,10.5-75.2,21-112.7,31.5c-1.8,0.5-3.7,0.9-5.6,1.2C276,179.1,274.8,178.2,273.1,172.4z"/>
	<path class="st3" d="M361,140.3c-0.2,9.8-0.2,9.8-8.5,11.8c-24.4,5.9-48.8,11.9-73.1,17.9c-5.8,1.4-7.3,0.2-6.2-5.3
		c0.3-1.3,2.3-2.8,3.7-3.2c22.8-5.8,45.6-11.4,68.4-17.1C350.4,143.1,355.4,141.7,361,140.3z"/>
	<path class="st4" d="M238.1,84.6c-11.3,3.2-23,3.8-34.8,1.6c-22.5-4-44.9-8.5-67.3-12.9c-1.6-0.3-3.2-0.9-5-1.4
		c8.7-3.9,16.9-7.7,25.1-11.4c0.1,0.2,0.2,0.3,0.4,0.5c-2.9,2-5.7,4.1-8.6,6.1c0,0.5,0,1,0.1,1.6C178,74.5,208,80,238.1,84.6z"/>
	<path d="M265.2,197.1c-4.1-1.5-7.8-2.8-11.8-4.2c4.1-12.7,4.6-24.8-1.6-36.6c-6-11.6-15.4-19.1-29.4-20.9
		c11.7-5.4,26.8-0.1,33.4,11.2c8.7,14.8,12,30.7,10.1,47.7C265.8,195,265.6,195.6,265.2,197.1z"/>
	<path class="st0" d="M295.5,100c0.8-2.2,2.2-4.1,2.1-5.9c-0.3-5.4,2.5-6.2,7.1-5.7c2.7,0.3,5.4,0.1,8.2,0c3.5-0.1,6.6-0.5,7.7-4.8
		c0.3-1.1,2.5-2.1,4.1-2.5c9.7-2.1,19.4-4,29.1-6c7.6-1.6,9-0.4,9.5,8.2C340.8,88.9,318.3,94.4,295.5,100z"/>
	<path class="st0" d="M424.8,105.5c7-10.2,14.4-12.9,27-9.8c-3.5-4.1-6.3-4.2-19-0.8c0.6-3.6,1-7.5,1.9-11.2
		c0.3-1.2,1.5-2.8,2.7-3.2c8.2-2.7,16.4-5.3,24.7-7.6c4.8-1.3,8.9,2.5,7.3,7c-1.1,3.2-3.2,6.3-5.5,9c-2,2.4-4.9,3.9-7.4,6
		c-2.8,2.4-5.3,3.4-9.4,1.8c-5.9-2.4-11.6-0.1-16.4,3.9c-2,1.7-4.1,3.2-6.1,4.9L424.8,105.5z"/>
	<path class="st0" d="M365.7,82.7c-1.1-3.2-2.1-5.9-3.2-8.9c21.3-6.2,43.8-6.4,64.6-15.7c1.3,3.1,2.6,6,4.2,9.9
		C409.3,72.9,387.7,77.8,365.7,82.7z"/>
	<path class="st3" d="M65.1,215.4c-18.4-11.3-36.8-22.6-55.3-34c1-3.7,3.4-4.3,6.8-2.6c2,1,4,2,5.9,3.1
		c12.6,7.1,25.2,14.3,37.8,21.5c1.2,0.7,2.8,1.2,3.6,2.3c4.8,5.8,11.5,6.9,18.5,7.6c15.7,1.6,31.5,3.2,46.9,4.7
		c-5.7,2.4-12.2,2.2-18.6,1.5c-13.2-1.4-26.4-3-39.6-4.4C69,214.8,66.8,215.3,65.1,215.4z"/>
	<path class="st0" d="M357.4,33.8C332,35.4,311,46.7,291.2,61.1c-0.6-0.5-1.2-1-1.7-1.5c0.8-2.4,1-5.4,2.6-7
		c16.3-15.4,36-23.6,58.5-25.5C355.4,26.7,356.9,28.8,357.4,33.8z"/>
	<path class="st0" d="M454.2,98.8c5.4-6,16.1-8.6,17.6-19.5c3.6,7.5,2.7,15.1,1.9,22.7c-0.5,4.2-1.6,8.4-1.6,12.6
		c0,6.9-4.5,9.4-9.7,11.8C459.6,117.2,456.9,108.3,454.2,98.8z"/>
	<path class="st0" d="M22.9,121.3c1.5-0.2,3.2-1,4.4-0.5c11.8,4.1,23.5,8.3,35.1,12.9c6.8,2.6,9.3,8.9,6.4,15.3
		c-2.4,5.3-5.1,10.5-8.2,15.4c-0.8,1.3-4.1,2.6-5.4,2c-10.9-4.9-21.6-10.2-32.2-15.7c-1.6-0.9-2.8-3.8-3-5.8
		c-0.4-4.8-0.1-9.7,0.5-14.5c0.4,4.2,0.2,8.6,1.4,12.5c0.9,3,3.2,6.5,5.8,7.9c8.6,4.5,17.6,8.2,26.5,12.2c3.2,1.4,5.4,0.8,6.6-2.9
		c1.2-3.9,3-7.6,4.4-11.5c1.6-4.3-0.4-9.4-4.6-11.1c-12.4-4.9-25-9.7-37.5-14.4C23.1,122.4,23,121.9,22.9,121.3z"/>
	<path class="st2" d="M452,116.3c3.8,14.4,0.9,27.6-9,38.6c-9,9.9-19.9,7-23.5-5.9c-2.4-8.4-1.5-16.9,0.4-25.2
		c1-4.2,2.5-8.5,4.5-12.4c3.7-7.1,11.9-12.2,17.3-10.5c7.3,2.4,9.5,8.7,10.6,15.5c-1.1-1.9-2.1-3.9-3.2-5.8
		c-4.1-6.9-10.8-8-16.9-2.7c-10.4,9-14.1,30.6-7.3,42.5c4,7,11.6,8.3,17.1,2.4c3.2-3.5,6.4-7.9,7.4-12.4
		C451,132.5,451.1,124.3,452,116.3z"/>
	<path class="st3" d="M116.2,186.1c-3.5-0.3-6.4-0.8-9.3-0.9c-5.4-0.1-10.8,0-16.2,0.1c-3.2,0-8-4.7-7-7.5c0.4-1.3,3.1-2.6,4.7-2.6
		c10.7-0.2,21.4-0.1,31.1-0.1c-0.7,0.6-3,1.6-3.5,3.1C115.3,180.3,116,182.9,116.2,186.1z"/>
	<path class="st3" d="M89.5,187.9c2,0.6,4,1.6,6,1.6c7.3,0.2,14.6,0.1,21.4,0.1c1.4,5.1,2.5,9,3.7,12.9
		C106.4,205.8,94.4,200.1,89.5,187.9z"/>
	<path class="st1" d="M287.4,61.9c-0.3,7.4-0.6,14.4-1.1,21.4c-0.1,0.7-1.3,1.8-2.1,2c-5,1.1-10,1.9-15,2.8
		C268.2,79.4,275.1,69.3,287.4,61.9z"/>
	<path class="st3" d="M253.1,139.2c2.9,0.2,6.4,0.5,10.7,0.9c0.6,2.6,1.4,6.2,2.3,9.8c1.7,7.3,3.5,14.7,5,22
		c1.4,6.8,2.7,8.1,10.3,8.7c-4.5,1.8-8.5,3.4-12.5,5c-1.3-8.2-1.6-16.8-4.2-24.7C261.9,153.1,256.9,146.1,253.1,139.2z"/>
	<path class="st3" d="M60.3,155.4c-1.7,7.4-1.8,7.5-8.4,4.7c-7.2-3.1-14.2-6.5-21.4-9.5c-6.1-2.5-7.9-7.2-7.6-12.6
		c5.9,3.4,11.7,7.2,18,10.1C47,151,53.6,153,60.3,155.4z"/>
	<path class="st0" d="M357.8,27.2c14.2-3.7,38.7-0.3,49.2,7.7c-2.5-0.1-5-0.3-7.5-0.4c-11.5-0.6-22.9-1.7-34.4-1.6
		C360.2,32.9,358.1,31.8,357.8,27.2z"/>
	<path class="st1" d="M409.4,61c-1.4-8.8-2.5-16.2-3.9-25.4c4.2,2.1,7.3,3.6,10.2,5.3c5.3,3,7.9,10.2,4.2,14.9
		C417.9,58.3,413.5,59,409.4,61z"/>
	<path class="st0" d="M267.6,106.8c-0.7-4.4-1.4-8.4-2.1-12.5c1.3-0.4,2.3-0.9,3.4-1.1c4.8-1.1,9.6-2.2,15.1-3.4
		c-1.9,5.6,0.7,8.9,6.1,11.5c-4.6,1.2-8,2.1-11.5,3C275.1,105.2,271.5,105.9,267.6,106.8z"/>
	<path class="st0" d="M434.2,79.5c-0.5-2.9-1.1-5.2-1-7.4c0.1-1.1,1.4-2.9,2.4-3.1c6-1.6,12.1-3.5,18.2-3.9c2.7-0.2,5.5,3,9.4,5.4
		C452.9,73.6,444,76.4,434.2,79.5z"/>
	<path class="st5" d="M117.9,151.9c5-0.5,10.1-1,15.1-1.6c4.9-0.6,9.5-5.7,8.9-10.4c-0.2-1.2-3.1-3-4.7-2.9
		c-8.8,0.3-17.6,1-26.5,0.6c13.3-1.7,26.6-3.3,40-5c0.5,10.1-5.4,17.9-14.3,19c-6.1,0.8-12.3,0.9-18.5,1.4
		C117.9,152.6,117.9,152.2,117.9,151.9z"/>
	<path d="M440.5,98.1c6.9-1.2,11.6,0.9,13.9,7.1c4.4,11.9,6.7,24.1,4.4,36.8c-0.1,0.4-0.4,0.8-0.8,1.4c-4,0.2-5.8-0.8-4.5-5.4
		c2.3-8.5,2.4-17-0.4-25.5C450.9,106,447.6,100.6,440.5,98.1z"/>
	<path class="st6" d="M290.4,81.4c-0.5-5.4,4.1-4.7,7.9-6.3c-1.4-0.4-2-0.6-2.6-0.7c-0.6-0.1-1.2-0.1-2.3-0.2c0.6-0.9,0.9-1.6,1.4-2
		c7.1-5.6,14.2-1.7,21.6-0.2c-4,3.4-7.2,7.6-11.4,9.1C300.7,82.6,295.4,81.4,290.4,81.4z"/>
	<path class="st3" d="M177.1,205c2.1,4.6,1.8,6.8-2.8,7.6c-14.9,2.7-29.8,5.6-44.9,7.4C145.3,215,161.2,210,177.1,205z"/>
	<path class="st7" d="M140,138.4c-0.6,7.2-1.8,8.5-7.5,8.9c-4.1,0.3-8.3,0.7-12.4,0.6c-1.4,0-2.8-1.5-4.1-2.3
		c1.2-1.9,2.2-5.3,3.7-5.6C126.3,139,132.9,138.9,140,138.4z"/>
	<path class="st2" d="M417,129c-1.2,11.6-1.9,23,9.3,32.5c-8.1-0.4-14.6-0.3-20.2-4.6c0.4-0.6,0.5-1,0.7-1c6.8-2,6.6-2.4,6.5-10.8
		c-0.1-5.5,1.3-10.9,2.1-16.4C416,128.7,416.5,128.9,417,129z"/>
	<path class="st0" d="M104.9,153.8c-9.7,9.2-21.3,3.3-32.3,5C77.8,152.8,91.5,150.9,104.9,153.8z"/>
	<path class="st0" d="M353.9,69.9c0-4.7,0.1-9.3,0-14c-0.2-5.8-0.7-11.6-0.9-17.3c0-0.9,1-1.8,1.5-2.7c0.6,0.7,1.8,1.4,1.8,2.2
		c0.8,9.8,1.6,19.6,2.1,29.5c0.1,1.1-1.8,2.3-2.8,3.4C355.1,70.6,354.5,70.3,353.9,69.9z"/>
	<path class="st0" d="M72.1,155.3c3.3-12.1,6.1-14.5,17-15.4C86.1,150.4,84.7,151.7,72.1,155.3z"/>
	<path class="st4" d="M238.6,25.3c21.2,2.3,42.3,4.6,63.5,6.9c0,0.4,0.1,0.8,0.1,1.3c-3,2.3-5.9,4.5-9.3,7.1c1-2.3,2.7-5,2.2-5.5
		c-1.4-1.4-3.7-2.3-5.7-2.6c-17-2.1-33.9-4-50.9-6C238.5,26.1,238.5,25.7,238.6,25.3z"/>
	<path class="st0" d="M360.1,35.1c0.7,3.9,1.5,7.8,2.1,11.7c0.9,6.1,1.5,12.2,2.3,18.2c0.3,2.5,0,4.5-3.7,4
		c-0.9-11.2-1.7-22.5-2.6-33.7C358.8,35.3,359.5,35.2,360.1,35.1z"/>
	<path class="st6" d="M296.4,89.4c-0.4,7.2-2.7,10.4-6.3,9.4c-2.1-0.6-5.3-4.1-4.9-5c1.4-3.2,4.1-5.9,6.3-8.8
		C293.4,86.7,295.3,88.3,296.4,89.4z"/>
	<path class="st7" d="M164.8,127.2c1.3,0.6,2.8,1,3.8,1.9c0.9,0.9,1.2,2.4,1.4,2.7c-13.9,2.2-26.8-2-39.9,1.6c0-0.4,0-0.8-0.1-1.2
		c11.7-1.7,23.3-3.3,34.9-5C164.9,127.3,164.8,127.2,164.8,127.2z"/>
	<path class="st8" d="M470.3,68.4c-4.9,1.9-10.1,0.2-11.9-3.9c-1-2.3-1.1-4.6,1.9-5.9c3.7-1.5,7.5-0.5,8.5,2.6
		C469.6,63.6,469.9,66.1,470.3,68.4z"/>
	<path class="st7" d="M98.1,149.2c2.4-8.9,5.3-9.5,13.9-8.2C109.9,151.4,110.9,151.3,98.1,149.2z"/>
	<path class="st0" d="M147.9,152.6c-5.1,3.5-27.8,6.9-45.9,5.7c4.1-2.5,6.8-5.6,11.5-3.1c1.4,0.8,3.4,0.8,5.1,0.6
		C128.9,154.7,139.2,153.5,147.9,152.6z"/>
	<path class="st9" d="M95,151.1c-1.9-0.2-4.5-0.4-7.1-0.6c0.6-8.2,3.3-10.7,13.2-12.4C99.2,142.2,97.3,146.2,95,151.1z"/>
	<path class="st7" d="M117.6,177.8c8.5-1.7,10-0.7,11.2,7.5C118.6,187.1,117.4,186.4,117.6,177.8z"/>
	<path class="st7" d="M150.4,146.1c2.2-9.9,2.8-10.5,14.4-12.6C163.7,137.6,157.5,143,150.4,146.1z"/>
	<path class="st0" d="M264.9,78.5c0.5,12.9-1.1,15.5-8.4,14.5C256.6,87.1,260.9,83.7,264.9,78.5z"/>
	<path class="st0" d="M425.4,82.6c2.6-6.9,2.6-6.9-2.9-10.8c3-0.7,5.5-1.3,8-1.8C432.9,82,434,80.1,425.4,82.6z"/>
	<path class="st7" d="M125.9,202.8c0-3.8,0-7.7,0-12.8c0.6-0.4,2.2-1.6,3.6-2.6c0.3,2.3,0.4,4,0.8,5.5
		C131.5,197.8,131.9,202.8,125.9,202.8z"/>
	<path class="st0" d="M267.4,78.3c0.4-4,11.9-16.3,20.7-20.7C281.2,64.5,274.3,71.4,267.4,78.3z"/>
	<path class="st3" d="M424.6,105.4c-2.2,4.3-4.5,8.5-6.5,12.9c-1.3,2.9-2.1,6-3.4,8.8c-0.6,1.3-2,2.3-3.6,2.9
		c3.7-8.7,6.3-18,13.6-24.6C424.8,105.5,424.6,105.4,424.6,105.4z"/>
	<path class="st6" d="M317.6,84.8c-2.3,2.4-16.9,3-22,0C303,84.8,310.4,84.8,317.6,84.8z"/>
	<path class="st3" d="M267.8,138.3c0.3,0.3,0.8,0.7,0.8,1c0.5,5.6,0.9,11.1,1,16.7c-1.8-5.8-3.5-11.6-3.8-17.5
		C266.5,138.5,267.1,138.4,267.8,138.3z"/>
	<path d="M361.3,93.3c-5.4,1.1-10.7,2.3-16.1,3.4c-0.1-0.5-0.3-1-0.4-1.5c5.3-1.3,10.7-2.7,16-4C361,91.8,361.1,92.6,361.3,93.3z"/>
	<path d="M225.9,138.2c-5.5,0.7-11.2,1.5-16.6,2.2C213.2,136.1,218.3,135.4,225.9,138.2z"/>
	<path class="st3" d="M289.9,180.2c7.9-1.9,15.8-3.9,23.6-5.8c0.1,0.3,0.1,0.6,0.2,0.9c-7.9,1.9-15.8,3.8-23.7,5.7
		C290,180.8,289.9,180.5,289.9,180.2z"/>
	<path class="st4" d="M424.5,45.6c-0.4,4.1,1.7,8.4-2.5,12.1c0.4-4.1,0.8-8.2,1.2-12.3C423.7,45.4,424.1,45.5,424.5,45.6z"/>
	<path class="st4" d="M265.1,90.7c6.6-1.2,13.1-2.4,19.7-3.6c0.1,0.2,0.1,0.5,0.2,0.7c-6.5,1.5-13,3-19.5,4.5
		C265.3,91.7,265.2,91.2,265.1,90.7z"/>
	<path class="st3" d="M334.9,169.1c6.3-1.7,12.7-3.4,19-5.1c0.1,0.3,0.2,0.6,0.3,0.9c-6.3,1.7-12.7,3.4-19,5
		C335.1,169.7,335,169.4,334.9,169.1z"/>
	<path class="st3" d="M404.6,150.7c1.9-1.5,3.7-3,5.8-4.6C411.9,151,411.4,151.4,404.6,150.7z"/>
	<path class="st6" d="M319.1,80.3c-3.3,0.4-6.6,0.8-9.9,1.2c-0.1-0.6-0.2-1.1-0.3-1.7c3.3-0.6,6.6-1.2,9.9-1.9
		C318.8,78.7,319,79.5,319.1,80.3z"/>
	<path class="st3" d="M256.6,137.4c3.5-1.3,7.1-2.6,10.6-3.9c0.2,0.5,0.4,1,0.6,1.5c-3.5,1.3-7.1,2.6-10.6,3.9
		C257,138.5,256.8,138,256.6,137.4z"/>
	<path class="st10" d="M46.5,193.8c4.6,2.2,9.1,4.4,13.6,6.6c-0.2,0.3-0.3,0.7-0.5,1c-4.4-2.3-8.8-4.5-13.2-6.8
		C46.3,194.7,46.4,194.3,46.5,193.8z"/>
	<path class="st11" d="M110.7,152.2c1.4-4.3,2.5-7.5,4.1-11.9c0,4,0,6.6,0,9.9C114.2,150.5,112.8,151.2,110.7,152.2z"/>
	<path d="M185.5,153.3c1.2-1.1,2.4-2.2,3.5-3.5c8-9.8,17.6-17.2,30.2-20.2l0,0c-0.8,0.8-1.5,1.9-2.5,2.3
		c-10.9,3.7-19.5,10.3-26.7,19.1C189.1,152.2,187.1,152.6,185.5,153.3C185.5,153.3,185.5,153.3,185.5,153.3z"/>
	<path d="M219.3,129.7c7.1-1.9,14.2-1.9,21.3,0C233.5,129.7,226.4,129.7,219.3,129.7C219.2,129.7,219.3,129.7,219.3,129.7z"/>
	<path d="M42.8,107.8c1.2-1.1,2.2-2.3,3.5-3.1C57.7,97.2,69.6,90.7,83,87.6c4.1-1,8.6-1.5,12.6-0.7c8.1,1.5,16.1,3.8,24.1,6.2
		c1.9,0.6,3.1,3.1,4.7,4.8c-1.6,1.4-2.9,3.4-4.7,4.1c-8.1,3.3-16.5,6-24.7,9.3c-4.6,1.8-8.9,4.2-13.4,6.3c-1.2,0.6-2.5,0.9-3.7,1.4
		c-0.2-0.5-0.4-1-0.7-1.6c11.2-4.9,22.5-9.9,33.7-14.8c0-0.3,0-0.7-0.1-1c-7.1-1.8-14.2-3.6-21.3-5.3c-3.3-0.8-5.9-1.9-4.8-6.1
		C68.4,91.4,56.2,100.7,42.8,107.8z M119.3,100.6c1-0.7,2.3-1.7,4.5-3.2c-3.1-1.7-5.3-3-7.5-4.2C117.3,95.7,118.2,97.8,119.3,100.6z
		"/>
	<path d="M106.1,115.1c-4.7,2.5-9.3,5-14,7.5c0.2,0.4,0.3,0.8,0.5,1.2c11.8-2.7,23.6-5.4,35.5-8c0.1,0.6,0.2,1.1,0.3,1.7
		c-13.8,1.7-26.7,7.9-40.9,7.6c-0.2-0.6-0.4-1.1-0.6-1.7c6.2-3.2,12.4-6.3,18.6-9.5C105.7,114.3,105.9,114.7,106.1,115.1z"/>
	<path d="M114.7,109.6c14.2-4.3,28.3-8.6,42.5-12.9c0.2,0.5,0.3,1,0.5,1.5c-14.2,4.3-28.3,8.6-42.5,12.8
		C115,110.6,114.8,110.1,114.7,109.6z"/>
	<path d="M186.1,186c0.3-14.7,6.9-26.5,20.3-34.5c9.1-5.4,18.7-6.8,28.2-1.3c9.8,5.6,14.7,14.5,14.3,25.5c-0.5,14.3-7,26-18.5,34.7
		c-9.2,7-19.5,7.6-29.8,2.5C189.9,207.5,186.3,198,186.1,186z M213.3,152.3c0.6,3.6,1.3,6.4,1.6,9.3c0.5,4.3,0.4,8.8,1.4,13
		c0.8,3.4,2.9,6.5,4.2,9.9c0.3,0.7-0.6,1.7-0.6,1.9c-2.3-0.5-4.5-1.6-5.4-1c-1.9,1.3-3.7,3.4-4.7,5.5c-2.6,5.5-4.8,11.1-7.2,17
		c0.9,0.4,2.3,1,3.9,1.7c2.8-5.7,5.3-11.2,8.2-16.4c2.3-4.1,4.5-4.4,8.1-1.5c4,3.2,7.8,6.8,11.8,10.4c0.8-1,2.1-2.6,3.1-3.7
		c-3.2-3.6-6.3-6.7-9.1-10.1c-4.2-5-3.6-7.5,2.3-10.7c4.4-2.4,9-4.6,13.7-7c-0.8-2.2-1.4-4.1-2.1-6.2c-2.2,1.8-4,3.4-6,4.6
		c-2.2,1.3-4.6,2.3-7,3.1c-6.6,2.2-9.5,0.3-9.6-6.5c-0.1-4.7,0-9.3,0-14.5C217.2,151.6,215,152,213.3,152.3z M228.2,201.5
		c-2.1-1.7-4.1-4.8-6.1-4.8c-7.2,0.1-10.8,3.9-12,11.1C217.7,208.2,223.4,206.4,228.2,201.5z M196.1,172.7c4.6,0.8,8.9,2.6,12.5-0.9
		c3.2-3.1,3.2-7.1,2.2-11.5C204,162.5,198.6,165.5,196.1,172.7z M191,180.6c6.4,1.6,12,3.1,17.6,4.4c0.7,0.2,1.6-0.6,2.4-0.9
		c-0.4-0.9-0.7-1.8-1.2-2.6c-0.5-0.8-1.2-1.4-1.8-2.1c0.7-0.4,1.5-0.8,2.1-1.3c1-0.8,2-1.6,3-2.4c-0.2-0.5-0.4-1-0.6-1.5
		c-6.8,5.6-13.7,1-20.8,0.7C191.5,177.2,191.2,179.2,191,180.6z M222.3,153.6c-0.9,4-1.5,7.2,2.6,8.9c2.7,1.2,5.4,2.3,9,3.9
		c0.5-0.4,1.9-1.5,3.5-2.7C233.7,158.3,228.9,155.1,222.3,153.6z M190.4,184.1c-0.3,1.2-1.1,2.5-0.9,3.6c0.9,3.9,1.9,7.9,3.5,11.7
		c0.6,1.5,3,3.2,4.4,3.1c1.8-0.1,3.5-2,4.1-2.4C197.5,194.3,194.2,189.5,190.4,184.1z M229.6,187.3c2.3,2.5,3.9,4.2,6.8,7.3
		c1.9-7.2,3.4-13,4.9-19C231.2,175,236,185.3,229.6,187.3z M203.2,196.5c2.4-3.4,4.6-7.4,1.6-10.4c-2.2-2.1-6.6-2-10.9-3.1
		C195.1,190.1,197.5,194.3,203.2,196.5z M193.8,170.9c3.6-6,8.9-9.7,15.5-11.9c0.7-0.2,1-1.8,1.5-2.7c-1.2-0.3-2.7-1.3-3.5-0.9
		C200.7,158.7,196.6,164.2,193.8,170.9z M230.5,169.4c-1.3-4.7-3.2-6-6.3-4.2c-1.1,0.6-1.5,2.2-2.3,3.4
		C224.5,168.8,227.1,169.1,230.5,169.4z M211.1,179.3c0.4,0.7,0.7,1.4,1.1,2.1c0.9,0.6,2.2,1.9,2.5,1.7c1-0.7,2.1-1.8,2.3-2.9
		c0.1-0.8-1.2-2.6-1.7-2.5C213.8,177.8,212.5,178.7,211.1,179.3z M209.8,214c0,0.3-0.1,0.5-0.1,0.8c5.5-0.9,11-1.7,16.5-2.6
		c-0.1-0.5-0.1-0.9-0.2-1.4C220.6,211.9,215.2,212.9,209.8,214z"/>
	<path d="M452,116.3c-0.8,8.1-0.9,16.3-2.7,24.1c-1,4.5-4.1,8.9-7.4,12.4c-5.5,5.9-13.1,4.6-17.1-2.4c-6.8-11.9-3.1-33.5,7.3-42.5
		c6-5.2,12.8-4.2,16.9,2.7c1.1,1.9,2.1,3.8,3.2,5.8C452.1,116.4,452,116.3,452,116.3z M436.2,123.6c-0.6-0.2-1.2-0.5-1.8-0.7
		c-1.6-2.8-3.2-5.5-5.1-9c-1.2,2-1.9,3.1-2.5,4.1c2.3,2.9,4.4,5.5,6,7.5c-1.1,2.5-2,4.8-3.1,7c-1.1,2.3-2.5,4.4-3.8,6.6
		c-0.9,1.5-1.7,3.1-2.5,4.7c0.7,0.4,1.4,0.8,2.1,1.2c2.4-3.2,4.7-6.4,7.4-10.1c1.8,5.1,3.5,10,5.6,16c0.4-2.2,1-3.7,0.8-5
		c-0.3-2.6-0.8-5.3-1.7-7.8c-1.3-3.4,0-4.7,3.3-5c1.4-0.1,3,0.2,4.3-0.2c1.3-0.4,2.5-1.5,3.7-2.3c-0.2-0.4-0.4-0.8-0.6-1.2
		c-3.3-0.7-6.6-1.4-10.4-2.2c1.8-3.5,3.5-6.2,4.7-9.1c1-2.5,3.6-5.1,1.8-7.8C441.6,114.8,438.9,119.2,436.2,123.6z M425.7,136.8
		c3.4-2.6,4.7-11.1,2.3-13.9C427.3,127.3,426.4,132.3,425.7,136.8z"/>
	<path class="st10" d="M119.3,100.6c-1.1-2.8-1.9-4.9-2.9-7.4c2.2,1.2,4.4,2.5,7.5,4.2C121.6,98.9,120.3,99.8,119.3,100.6z"/>
	<path class="st10" d="M213.3,152.3c1.7-0.3,3.8-0.7,6.5-1.1c0,5.1-0.1,9.8,0,14.5c0.1,6.7,3,8.7,9.6,6.5c2.4-0.8,4.8-1.8,7-3.1
		c2-1.2,3.7-2.8,6-4.6c0.7,2.1,1.3,3.9,2.1,6.2c-4.7,2.4-9.2,4.6-13.7,7c-5.9,3.2-6.4,5.7-2.3,10.7c2.8,3.4,5.9,6.5,9.1,10.1
		c-1,1.2-2.3,2.7-3.1,3.7c-4-3.6-7.8-7.1-11.8-10.4c-3.6-2.9-5.9-2.5-8.1,1.5c-2.9,5.2-5.4,10.6-8.2,16.4c-1.6-0.7-3-1.3-3.9-1.7
		c2.5-5.9,4.6-11.6,7.2-17c1-2.1,2.8-4.2,4.7-5.5c0.9-0.6,3.1,0.5,5.4,1c0.1-0.2,0.9-1.3,0.6-1.9c-1.3-3.3-3.4-6.4-4.2-9.9
		c-1-4.2-0.9-8.7-1.4-13C214.6,158.7,214,155.9,213.3,152.3z"/>
	<path class="st10" d="M228.2,201.5c-4.8,4.8-10.5,6.7-18.1,6.3c1.2-7.2,4.7-11,12-11.1C224.1,196.7,226.1,199.8,228.2,201.5z"/>
	<path class="st10" d="M196.1,172.7c2.5-7.2,7.9-10.2,14.7-12.4c1,4.4,1.1,8.4-2.2,11.5C205,175.3,200.7,173.5,196.1,172.7z"/>
	<path class="st10" d="M191,180.6c0.2-1.5,0.5-3.4,0.8-5.6c7.2,0.4,14,4.9,20.8-0.7c0.2,0.5,0.4,1,0.6,1.5c-1,0.8-2,1.6-3,2.4
		c-0.7,0.5-1.4,0.9-2.1,1.3c0.6,0.7,1.3,1.3,1.8,2.1c0.5,0.8,0.8,1.7,1.2,2.6c-0.8,0.3-1.7,1.1-2.4,0.9
		C203,183.7,197.4,182.3,191,180.6z"/>
	<path class="st10" d="M222.3,153.6c6.6,1.4,11.4,4.6,15.1,10.1c-1.6,1.3-3.1,2.4-3.5,2.7c-3.6-1.6-6.3-2.8-9-3.9
		C220.8,160.8,221.4,157.6,222.3,153.6z"/>
	<path class="st10" d="M190.4,184.1c3.8,5.4,7.1,10.2,11.1,15.9c-0.6,0.4-2.3,2.3-4.1,2.4c-1.4,0.1-3.8-1.6-4.4-3.1
		c-1.6-3.7-2.5-7.7-3.5-11.7C189.3,186.6,190.1,185.3,190.4,184.1z"/>
	<path class="st10" d="M229.6,187.3c6.5-2,1.6-12.3,11.7-11.7c-1.5,6-3.1,11.8-4.9,19C233.5,191.5,231.9,189.8,229.6,187.3z"/>
	<path class="st10" d="M203.2,196.5c-5.7-2.2-8.1-6.4-9.4-13.4c4.3,1.1,8.7,1,10.9,3.1C207.8,189.1,205.5,193.1,203.2,196.5z"/>
	<path class="st10" d="M193.8,170.9c2.8-6.7,6.9-12.2,13.5-15.6c0.8-0.4,2.3,0.6,3.5,0.9c-0.5,0.9-0.8,2.5-1.5,2.7
		C202.7,161.2,197.4,164.8,193.8,170.9z"/>
	<path class="st10" d="M230.5,169.4c-3.3-0.3-5.9-0.6-8.5-0.8c0.7-1.2,1.2-2.8,2.3-3.4C227.2,163.4,229.1,164.7,230.5,169.4z"/>
	<path class="st10" d="M211.1,179.3c1.4-0.6,2.7-1.5,4.2-1.7c0.5-0.1,1.8,1.8,1.7,2.5c-0.2,1.1-1.3,2.2-2.3,2.9
		c-0.3,0.2-1.6-1.1-2.5-1.7C211.8,180.7,211.4,180,211.1,179.3z"/>
	<path class="st10" d="M209.8,214c5.4-1.1,10.8-2.1,16.2-3.2c0.1,0.5,0.1,0.9,0.2,1.4c-5.5,0.9-11,1.7-16.5,2.6
		C209.7,214.5,209.8,214.3,209.8,214z"/>
	<path class="st10" d="M436.2,123.6c2.7-4.4,5.4-8.8,8.2-13.3c1.8,2.7-0.7,5.3-1.8,7.8c-1.1,2.9-2.8,5.5-4.7,9.1
		c3.8,0.8,7.1,1.5,10.4,2.2c0.2,0.4,0.4,0.8,0.6,1.2c-1.2,0.8-2.3,1.9-3.7,2.3c-1.3,0.4-2.9,0.1-4.3,0.2c-3.3,0.2-4.5,1.6-3.3,5
		c0.9,2.5,1.4,5.2,1.7,7.8c0.2,1.4-0.4,2.8-0.8,5c-2.1-6-3.8-10.9-5.6-16c-2.7,3.6-5,6.9-7.4,10.1c-0.7-0.4-1.4-0.8-2.1-1.2
		c0.8-1.6,1.6-3.1,2.5-4.7c1.2-2.2,2.6-4.4,3.8-6.6c1.1-2.2,2-4.5,3.1-7c-1.6-2-3.7-4.6-6-7.5c0.6-1,1.3-2.1,2.5-4.1
		c2,3.4,3.5,6.2,5.1,9C435,123.1,435.6,123.3,436.2,123.6z"/>
	<path class="st10" d="M425.7,136.8c0.7-4.5,1.6-9.5,2.3-13.9C430.4,125.7,429.1,134.2,425.7,136.8z"/>
</g>
</svg>
