<?xml version="1.0" encoding="utf-8"?>
<!-- Generator: Adobe Illustrator 19.2.1, SVG Export Plug-In . SVG Version: 6.00 Build 0)  -->
<svg version="1.1" xmlns="http://www.w3.org/2000/svg" xmlns:xlink="http://www.w3.org/1999/xlink" x="0px" y="0px"
	 viewBox="0 0 207 291" style="enable-background:new 0 0 207 291;" xml:space="preserve">
<style type="text/css">
	.st0{fill:#F77CA9;}
	.st1{fill:#FF0000;}
	.st2{fill:#FFFFFF;}
	.st3{font-family:'MyriadPro-Bold';}
	.st4{font-size:10.7738px;}
	.st5{fill:#C69C6D;}
	.st6{fill:none;stroke:#000000;stroke-miterlimit:10;}
	.st7{fill:none;stroke:#000000;stroke-width:3;stroke-miterlimit:10;}
	.st8{fill:none;stroke:#000000;stroke-width:4;stroke-miterlimit:10;}
	.st9{fill:none;stroke:#000000;stroke-width:0.75;stroke-miterlimit:10;}
	.st10{stroke:#000000;stroke-width:0.75;stroke-miterlimit:10;}
	.st11{stroke:#000000;stroke-miterlimit:10;}
	.st12{fill:none;stroke:#000000;stroke-width:2;stroke-miterlimit:10;}
</style>
<g id="Layer_6">
	<path class="st0" d="M148.7,197.7c0.1,5.2-1.2,8.7-2.4,11c-1.2,2.3-2,2.6-3.5,5.8c-1.8,3.6-3.1,7.8-3,7.9c0,0,0.3-0.5,0.2-0.7
		c-0.3-0.4-2.2,0.7-4.4,1c-1.8,0.2-3.2-0.2-4.2-0.5c-7.7-2.2-18.2-1.2-34.6-6.3c-2.3-0.7-6.3-2-11.6-2.1c-3.4,0-5.2,0-7.6,0.7
		c-3.4,1-5.2,2.6-8,1.9c-1.3-0.3-2.2-1-2.8-0.5c-0.4,0.3-0.6,0.9,0,3.8c0.6,2.6,1.3,4.6,1.4,4.8c1.1,2.9,2.6,7.7,1.9,8.1
		c-0.9,0.4-3.5-8.2-10.9-11.1c-2.6-1-5.4-0.9-11.1-0.5c-3.7,0.2-8.5,0.5-14.5,2.1c-10.1,2.5-17.9,7-23.2,10.6
		c1.5-37.4,2.1-60.1,1.7-68.9c0-0.9-0.2-3.5,0.5-6.9c2-9.7,8.9-15.8,10.2-17c5.7-4.9,12.9-7.6,18.8-9.8c2-0.8,3.6-1.2,5.7-2.6
		c2.6-1.7,3.3-3.1,5.7-3.8c2-0.6,2.3,0.1,4-0.5c2.3-0.9,2-2.5,4.5-4.1c2.4-1.6,3.3-0.4,5.9-2.1c2.3-1.5,2.1-2.7,4-3.4
		c2.5-0.9,5.6,0.2,5.7,1.2c0.1,1.1-3.3,1.6-3.3,3.1c0,0.9,1.3,1.3,3.3,3.1c0.5,0.4,1.4,1.5,3.3,3.6c3.3,3.7,3.8,4.5,5.4,5.3
		c0.3,0.1,1.2,0.4,2.9,1c0.4,0.1,3.3,1.1,4.8,1.5c4.5,1.3,5.2,0.4,10,1.5c3.8,0.9,3.9,1.7,5.9,1.5c2.2-0.1,2.7-1.1,7.3-3.4
		c4.8-2.5,5.8-2.2,7.8-4.1c1.3-1.3,2.1-2.6,3.1-4.5c1.5-2.7,2.3-4.1,1.9-5.3c-0.8-2.6-5.8-2.9-5.7-3.4c0.1-0.5,3.3-1.2,6.4,0.2
		c3,1.3,2.7,3.1,6.4,5.7c1.4,1,3.1,1.7,6.4,3.1c2.5,1.1,4.4,1.7,5.9,2.2c3.7,1.3,7.4,2.8,11.1,4.1c4.1,1.5,10.4,4.1,19.7,8.6
		c1.2,4.4,3.1,11.2,5.5,19.4c1.1,3.7,2.3,7.8,4,13.2c5.4,17.3,6.9,19.8,7.3,26.4c0.2,3.5-0.1,5.2,0.3,11.1
		c0.6,9.3,1.9,14.6,0.3,15.3c-1.8,0.7-4.3-6-9.9-6.3c-1.6-0.1-2.8,0.4-5-0.3c-1.7-0.5-2.4-1.3-4-1.2c-1,0.1-1.7,0.4-2.4,0
		c-0.4-0.3-0.8-0.7-1-1.7c-0.8-3.2,1.4-5.3,0.5-6.5c-0.5-0.7-1.7-0.7-5-0.3c-7.2,0.7-9.9,1.3-10.2,0.5c-0.3-0.6,0.9-1.8,2.1-2.6
		c4.7-3.1,10.2,0.6,11.9-1.7c1.1-1.5,0.2-4.6-1.6-5.7c-0.7-0.4-1.3-0.2-4.3,0c-5.9,0.5-6.5-0.1-6.6-0.3c-0.1-0.2,0.1-0.5,0.2-0.7
		c1.7-2.6,5.9-3.1,7.3-5.5c1.1-2,0.2-5.3-1.6-6.2c-1.5-0.7-3.4,0.6-8.5,4.1C157.2,191.9,153.7,194.3,148.7,197.7z"/>
	<path class="st1" d="M127.2,184.2c-5.3-0.9-11.1-1.4-17.2-1.5c-6.6,0-12.7,0.5-18.3,1.5c0-5.1,0-10.3,0-15.4h35.5V184.2z"/>
	<text transform="matrix(0.892 0 0 1 89.2334 179.8076)" class="st2 st3 st4">    W R X</text>
	<path class="st0" d="M169,284.3c-43,0.2-85.9,0.4-128.9,0.6c-0.3-4.1-0.5-8.1-0.8-12.2c4.8,3.7,8.4,4.2,10.9,4
		c2.5-0.2,3.7-1.1,8.7-2.3c3.8-0.9,6.5-1.1,7.6-1.3c4.8-0.6,21-4.1,59.8-13.5c4.8,2.9,9,4.3,11.9,5.1c11.9,3.3,21.5,3.3,21.5,3.3
		c3.1,0,7.1-0.2,8.4,2.1c0.6,1.1,0.3,2.2,0.1,3.9C168,276.4,167.9,279.9,169,284.3z"/>
	<path class="st0" d="M31.4,251.6c-4.8-1-9.7-2-14.5-3c-0.8-0.2-4.6-1-6.2-4.1c-0.5-0.9-0.6-1.8-0.6-1.9c-0.2-1.4-0.1-3.9,1.2-5.9
		c0.3-0.5,0.8-1.1,0.6-1.8c-0.1-0.5-0.5-0.9-0.9-1.2c0.7-0.8,1.5-1.6,2.5-2.4c3.5-2.9,7.4-3.6,9.6-3.9
		C25.8,235.4,28.6,243.5,31.4,251.6z"/>
	<path class="st0" d="M191.4,247.7c-0.5,0.3-1.3,0.7-2.5,0.8c-1.2,0.1-2.2-0.2-2.7-0.4c1-9.8,1.9-19.5,2.9-29.3c3,2.3,6,4.5,8.9,6.8
		c-0.5,4.2-1.5,9.4-3.5,14.9C193.5,243.2,192.5,245.6,191.4,247.7z"/>
	<path class="st5" d="M175.4,269.8c-16.3-1.3-28.5-2.9-33.2-3.9c-4.1-0.8-6.1-1.9-7.5-2.8c-2-1.3-2.2-2.1-3.6-2.8
		c-3.5-1.8-7.7-0.1-10.1,0.8c-5.8,2.1,2.6-2.1-18.1,3.6c-18.3,5-43.2,13.4-55.2,10.5c-1.3-0.3-4.7-1.1-7.5-3.9
		c-2.3-2.2-3.2-4.7-4.1-7.5c-2.8-7.9-4.2-11.9-4.7-14.1c-1.2-5.2-3.5-12.8-8-22.6c1.5-1.1,4-2.9,7.5-4.1c5.6-2,7.9-0.7,18.7-1.5
		c8-0.6,9.2-1.5,11.9-0.3c5.8,2.6,7.6,9.7,8,9.5c0.3-0.1-0.3-2.4-4.4-13.4c3.8-1.7,9.7-3.6,16.9-3.6c4,0,4.9,0.6,17.4,3.3
		c12.1,2.6,18.1,3.9,22.6,4.4c3.8,0.4,7.8,0.6,11.4,1.8c1.3,0.4,3.6,1.3,5.4,0.3c1.2-0.7,1.9-1.9,2.3-2.7c0.9-1.7,1.2-3.1,1.3-3.9
		c0.8-4.2,3.5-4.5,5.2-8.9c1.6-4.2-0.5-5.2,1.3-8.5c1-1.9,1.7-1.8,6.7-5.9c5-4.1,5.5-5.2,8-5.9c2.6-0.7,6.2-0.6,6.7,0.8
		c1,2.5-8.8,8.1-7.8,10c0.7,1.4,5.9-1.2,9.6,1.5c1.4,1.1,2.6,2.9,2.1,3.9c-0.8,1.5-4.9-0.7-9.3,1.3c-2.4,1.1-4.5,3.1-4.1,4.1
		c0.8,2.1,13.4-1.9,14.8,1c0.7,1.5-2.2,3.6-1.3,5.4c0.6,1.2,2.4,1.4,5.7,1.8c2.2,0.3,5.6,0.7,9.9,1.3c0,8.5-1.1,20.4-6,33.7
		C181.3,259.4,178.3,265.1,175.4,269.8z"/>
	<path class="st5" d="M124.4,114.3c1.1,0.6,4.3,2.4,4.9,5.7c0.8,4.6-4.3,8.5-6,9.8c-0.7,0.5-2.4,1.4-5.7,3.1c-7,3.5-8.2,3.8-9.1,3.9
		c-2.7,0.2-4.1-0.7-7.8-2.1c-7.8-2.8-10.4-1.4-14.8-3.1c-3.7-1.4-8.6-4.8-12.7-14.1c2.3-1.5,5.8-4.2,8-8.7c1.1-2.2,2.7-6.3,1.8-15.9
		c-1.1-11.4-4.8-14.2-5.7-23.7c-0.8-8.4,0-15.5,0.8-20.1c-0.4-1.9-1.1-6.2,1-10.3c1.8-3.4,4.8-5.2,7.3-6.4
		c12-6.1,25.1-12.7,37.1-6.2c2.3,1.2,8.4,5,12.2,14.7c0.5,7.9,0.1,14.4-0.5,19c-0.8,6.3-2.1,11.7-3.1,15.9c-0.9,3.9-1,3.3-2.1,7.7
		c-0.3,1.2-0.5,2.1-1,3.3c-0.9,2.1-1.8,2.8-2.7,4.4c-1,1.7-1.1,3.1-1.7,5.3C123.6,100.5,122.9,106.3,124.4,114.3z"/>
	<path class="st0" d="M-68,52.1"/>
	<path class="st5" d="M83.8,80c-1.2-1.1-3-2.5-5.6-3.3c-2.3-0.7-2.8-0.3-4.1-1c-4-2-4.8-8.1-4.9-9.5c-0.2-1.5-0.3-4.2,0.8-7.5
		c2.9-2.5,4.9-2.5,6-2.3C80.7,57.3,84.1,66.7,83.8,80z"/>
	<path class="st6" d="M73.3,61c-0.5-0.1-0.9,0.4-1.2,0.8c-0.7,1.3-0.7,2.9-0.1,4.2c0.5,1.4,1.5,2.5,2.6,3.5"/>
</g>
<g id="Layer_3">
	<path class="st7" d="M10.6,233.7l1.3-75.1c0,0,4.8-12.9,6.2-13.8c1.4-0.9,11.3-8.6,12.7-9.3c1.4-0.6,15.7-6.7,15.7-6.7
		s5.8-2.6,6.4-4.2c0.5-1.7,3.8,0,3.8,0l4.7-3.9l6.1-2.7l3.9-3.1l5.6,0.8l-3.4,2.4c0,0,10.8,12.2,12.8,13.1
		c2.1,0.9,22.8,5.4,23.9,4.6c1-0.8,13.2-5.8,14.4-7.5c1.2-1.7,5.7-7.8,5.4-9.1c-0.3-1.3-5.6-3.5-5.6-3.5l5.6,0.3l7.2,6.6
		c0,0-2.3-0.9,10.9,3.9c13.2,4.8,30.1,10.2,32,14.7s16.3,56.2,16.3,56.2l0.7,27.8c0,0-2.9-3.5-8.1-5.5c-5.2-2.1-15.6-2.3-15.6-2.3"
		/>
	<path class="st8" d="M79.6,83.2c0,0,4.4,3,4.1,9.1c-0.3,6.2-1,16.3-4.1,19.4c-3.1,3.1-4.8,3.8-4.8,3.8"/>
	<path class="st8" d="M124.2,95.5c0,0-1.4,19-1,20"/>
	<path class="st7" d="M79.3,75.1c0,0,0.1,0.4,0.4,1.1c0.8,2.4,2.8,8,3.3,9.1c0.6,1.4,9.7,13.3,10.9,14.1c1.2,0.8,8.1,7.2,10.1,7.2
		c2,0,8-1.3,9.6-2.2c1.7-0.9,8.2-8.6,10.6-10c2.5-1.4,5.3-9.9,5.3-9.9l3.9-17.4c0,0,3.1-20.8,3-23c-0.1-2.2-4.9-16.1-5.6-17.4
		c-0.6-1.3-15.3-0.5-17.5-0.9c-2.2-0.4-17.2-1.2-20.4-1.2s-10.9,0.9-10.9,0.9l-5.1,4.4c0,0-2.2,8.4,0,13.5S76.7,62,76.7,62l1.9,13.5
		c0,0-1.9,1-3.7,1c-1.8,0-4.2-6.2-5.5-8.7s0.9-10.2,0.9-10.2s2.6-1.8,4.6-1.3c2,0.5,2,3.9,2,3.9"/>
	<path class="st9" d="M175.7,63.6"/>
	<path class="st10" d="M79.3,48.3c-0.3-1,0.8-1.9,1.7-2.5c1.7-1,3.4-2.1,5.3-2.8c4.2-1.6,8.8-1.3,13.2-0.6c1.4,0.2,2.9,0.5,4.1,1.2
		c1.8,1.1,2.8,3.1,2.7,5.2c-0.6-0.5-1.5-0.7-2.4-0.8c-8.2-1.2-16.6-1.5-24.6,0.5"/>
	<path class="st10" d="M115.4,45.1c1-0.9,2.4-1.3,3.7-1.7c4.7-1.4,10.1-2.2,14.4,0.2c0.6,2.5,1.5,4.9,2.5,7.3
		c-4.1-0.7-7.7-3.5-11.8-3.6c-3.7-0.1-7.1,2-10.8,2.2C114.1,48,113.9,46.4,115.4,45.1z"/>
	<ellipse class="st10" cx="95.7" cy="62.2" rx="9.4" ry="9.4"/>
	<ellipse class="st10" cx="122.2" cy="63" rx="9.4" ry="9.4"/>
	<path class="st9" d="M108.9,75.6c-0.2,0.4,0.1,0.9,0.4,1.3s0.8,0.5,1.2,0.6c0.7,0.2,1.7,0.3,2.1-0.3c0.2-0.2,0.2-0.6,0.3-0.8
		s0.4-0.5,0.7-0.5"/>
	<path class="st6" d="M102.1,88.4c0,0,1.9-2.2,4.7-1.9c2.8,0.3,6-0.8,6-0.8s3.6,0.8,4.1,1.7c0.5,1-3,1.7-4.1,1.7s-6.8-0.5-6.8-0.5
		l-4.3,0.1c0,0,2.3,3.1,3,3.4c0.7,0.3,5.9,0.7,7.3,0.4s3.5-2.1,3.5-2.1l1.5-1.6l0.3-1.5"/>
	<line class="st11" x1="104" y1="63.5" x2="114" y2="63.5"/>
	<line class="st11" x1="73.9" y1="55.1" x2="87.9" y2="63.6"/>
	<line class="st11" x1="131.7" y1="63" x2="134.4" y2="60.6"/>
	<path class="st8" d="M10,233.7l3.8-1c5.5-5,16.8-9.9,23.2-10.5c6.4-0.5,24.9-3.6,28.2,1.5s4.7,7.2,4.7,7.2s0-1.9-2.2-9.3
		c-2.2-7.4-8.3-17.7-8.3-23c0-5.3-6-30.7-12.3-40.3s-9.7-8.2-9.7-8.2"/>
	<path class="st7" d="M30.3,248.3c0,0,6.7,3.6-5.5,1.7s-14.2-4.6-14.9-6.5c-0.7-1.9,2.5-10.5,2.5-10.5"/>
	<path class="st12" d="M23.1,226.7c0,0,14.5,44.4,17.6,46.3c3.1,1.9,8.5,4.1,10.5,3.4s26.6-6.2,31.5-6.9c4.8-0.7,42.5-9.3,42.5-9.3"
		/>
	<path class="st12" d="M64.4,230c0,0-2.4-4.8,23,7.7s36.3,20.4,36.3,20.4l16.6,7.7c0,0,33.7,5.1,36.1,3.3
		c2.4-1.9,9.9-20.9,10.2-25.5c0.3-4.6,2.6-23.8,2.6-23.8"/>
	<path class="st12" d="M66,217.4c0,0,1.4-1.2,12.6-2.7c11.2-1.5,27.3,4.1,32.7,5c2.5,0.4,14.9,2.2,28,4.3
		c15.5,2.5,31.9,5.4,33.8,6.8"/>
	<path class="st12" d="M141.1,219.2"/>
	<path class="st12" d="M138.9,224.2c0,0,2.1-5.4,3.4-7.8s4.8-8.1,4.8-8.1l1.5-9.8c0,0,17-11.6,18.1-11.7s2.8,2.2,2.8,2.2l-0.8,3.4
		c0,0-8,4.6-8.3,5.8"/>
	<path class="st12" d="M148.1,213.6c0,0,1.8-6.6,3.4-8.8s4.7-4.9,8.2-5.3c3.4-0.4,12.4,0,12.4,0s1.9,1,1.9,1.2c0,0.2,1.4,3.9-2.1,4
		s-9-1.2-11,1.7c-1.9,2.9-2,3.7-2,3.7"/>
	<path class="st12" d="M150.6,220.3c0,0,0.8-7.2,3.6-8.7c2.8-1.5,7.6-2.3,9.8-2.5c2.2-0.2,11.3,0,11.3,0s0.7,3.8,0.3,4.2
		c-0.4,0.4-1.9,2.6-3.9,1.8c-2-0.8-5.8-0.4-5.8-0.4"/>
	<path class="st12" d="M150.6,224.6c0,0,3.3-8.5,7.3-8.9s15,0.8,15,0.8s3.2-0.8,0.5,1.5c-2.7,2.3-5.2,2.4-6,2.3s-4,0.9-5.4,2.3
		c-1.4,1.4-4.3,4.1-4.3,4.1"/>
	<polyline class="st12" points="162.3,189.9 164.5,192.3 169,189.9 	"/>
	<path class="st12" d="M169,199.9c0,0-1.6,2.6,0,2.7s5.1,0,5.1,0"/>
	<path class="st12" d="M169.5,209.6c0,0-1.1,0.6,0.3,1.5c1.4,0.9,5.3,0,5.3,0"/>
	<path class="st12" d="M168.6,216c0,0-0.4,0.3,0,1.7c0.4,1.4,2.6,2,2.6,2"/>
	<path class="st12" d="M185.8,247.3c0,0,3.6,4.4,7.6-2.7c4-7.1,4-19.4,4-19.4"/>
	<path class="st12" d="M14.8,151.5c0,0,4.3-5.5,10.3,0S39.9,167,39.9,167"/>
	<path class="st12" d="M33.4,170.1c0,0-4.9,3.9,5.2,13.9c10.1,10,21.3,18.7,21.3,18.7"/>
	<path class="st12" d="M44.8,144.3c0,0,0.3-6,5.2,5.8s6.5,19.9,6.5,19.9"/>
	<path class="st12" d="M67.1,150.2c0,0-4.4,5.7-4.9,19.9c-0.5,14.1,4.9,37.5,4.9,37.5"/>
	<path class="st12" d="M76.4,156.4c0,0,2-6.2,4.5,10.5s13.9,41.3,14.8,44.6c0.9,3.3,1.5,6.3,1.5,6.3"/>
	<path class="st12" d="M126.8,164.7c0,0,5.6-1,3.8,15.4s-7,36.8-7.5,39.1"/>
	<path class="st12" d="M128.8,196.5c0,0-0.8-5.9,2.2,6.1c3,11.9,3.4,20.6,3.4,20.6"/>
	<path class="st12" d="M137.3,122.8c0,0-2.1,4.9-6.4,12.1c-4.2,7.2-22.1,12.1-24.7,10.3"/>
	<path class="st12" d="M67.1,120.7c0,0,3.1,10,10.6,15.2c7.5,5.1,30.1,9.6,30.1,9.6"/>
	<path class="st12" d="M141.1,129.4c0,0,1.9-5.4,4.3,6.7c2.3,12.1,5-3,5-3"/>
	<path class="st12" d="M145.7,143.8"/>
	<path class="st12" d="M169.8,140.8c0,0-1.6-3.5-2.6,8.2s-1.5,17.9-1.5,17.9"/>
	<path class="st12" d="M157.8,160.3c0,0,5.4-0.8,2.3,12.9"/>
	<polyline class="st12" points="157,190 157,186.8 161,171.4 	"/>
	<path class="st12" d="M181.4,153.6c-1.3,0.7-5.5,1.1-5.7,4.4"/>
	<path class="st12" d="M181.4,163.4c0,0-8.9,1.5-10.3,11"/>
	<path class="st12" d="M187.4,180.6c0,0-3.4,6.8-7.8,10.5c-4.4,3.7-4.4,3.7-4.4,3.7"/>
	<line class="st12" x1="191.5" y1="192.3" x2="181.3" y2="202.6"/>
	<line class="st7" x1="38.6" y1="269.4" x2="39.9" y2="284.8"/>
	<path class="st12" d="M169.8,269.4"/>
	<line class="st7" x1="168.3" y1="269.4" x2="169.1" y2="286"/>
	<path class="st12" d="M108.8,264c-0.5,1.4-12.3,9.8-13.8,13.7c-1.5,3.9,4.2,7.1,4.2,7.1"/>
	<path class="st12" d="M150.6,267.2c0,0-7.2,7.7-4.9,13.4"/>
	<line class="st12" x1="86.3" y1="269.4" x2="66" y2="286"/>
</g>
<g id="Layer_4">
	<path class="st11" d="M77.1,58.4c-1.7-7.8-3.4-15.7-5.1-23.5l4.1-12.6c0,0,5.5-3.9,6.5-3.3c1,0.5,28.9-1.6,30.7,0
		c1.7,1.6,16,2.4,18.3,3.1c2.3,0.8,6.1,15.3,6.1,15.3c-0.3,4.1-0.5,8.2-0.8,12.3c-2.3-5-4.6-10.1-6.9-15.1l-5.8-8.5l-25.8,2.7
		l-14.6,5.9l-4.5,7.5c-0.6,3.9-1.3,7.8-1.9,11.7"/>
</g>
</svg>
